<?xml version="1.0" encoding="UTF-8"?>
<svg version="1.1" xmlns="http://www.w3.org/2000/svg" width="217" height="148">
<path d="M0 0 C71.61 0 143.22 0 217 0 C217 48.84 217 97.68 217 148 C145.39 148 73.78 148 0 148 C0 99.16 0 50.32 0 0 Z " fill="#010000" transform="translate(0,0)"/>
<path d="M0 0 C1.14080521 0.00022659 2.28161041 0.00045319 3.45698547 0.00068665 C4.67798447 0.0161705 5.89898346 0.03165436 7.15698242 0.04760742 C8.41508224 0.05185226 9.67318207 0.05609711 10.96940613 0.06047058 C14.30197253 0.07439998 17.63391525 0.10131852 20.96630859 0.13458252 C24.3716088 0.16536065 27.77697362 0.17899238 31.18237305 0.1940918 C37.85507067 0.22715204 44.52747493 0.27734558 51.19995117 0.34057617 C52.45404807 11.09855624 52.45404807 11.09855624 49.72485352 15.97769165 C47.57124655 18.46699988 45.31071075 20.69495905 42.88745117 22.92260742 C42.04400146 23.74766281 41.20055176 24.5727182 40.33154297 25.42277527 C37.65013005 28.031842 34.92705972 30.59189643 32.19995117 33.15307617 C30.36626767 34.9215023 28.53550284 36.69296013 26.70776367 38.4675293 C22.24258037 42.80102616 17.72394033 47.06532138 13.19995117 51.34057617 C25.73995117 51.67057617 38.27995117 52.00057617 51.19995117 52.34057617 C51.19995117 62.90057617 51.19995117 73.46057617 51.19995117 84.34057617 C60.76995117 84.34057617 70.33995117 84.34057617 80.19995117 84.34057617 C74.67131681 90.97493741 74.67131681 90.97493741 71.44995117 93.59057617 C67.41430774 97.0246803 63.95238279 100.82338229 60.47338867 104.81323242 C58.19995117 107.34057617 58.19995117 107.34057617 55.11254883 109.88134766 C51.77252062 113.2068734 51.45862143 116.02363649 51.31713867 120.62182617 C51.32100586 121.90573242 51.32100586 121.90573242 51.32495117 123.21557617 C51.30432617 124.0947168 51.28370117 124.97385742 51.26245117 125.87963867 C51.21564165 128.03287653 51.20421601 130.1868338 51.19995117 132.34057617 C43.85449163 132.41018418 36.50910358 132.46344201 29.16338062 132.49601269 C25.75219356 132.51164757 22.34123268 132.53284531 18.93017578 132.56689453 C15.00580583 132.60582108 11.08152647 132.62030347 7.15698242 132.63354492 C5.93598343 132.64902878 4.71498444 132.66451263 3.45698547 132.6804657 C2.31618027 132.68069229 1.17537506 132.68091888 0 132.68115234 C-1.00149582 132.68781418 -2.00299164 132.69447601 -3.03483582 132.70133972 C-6.37630828 132.26539448 -8.12030375 131.37592881 -10.80004883 129.34057617 C-11.42925453 127.01202393 -11.42925453 127.01202393 -11.43496704 124.21655273 C-11.44906616 123.15658081 -11.46316528 122.09660889 -11.47769165 121.0045166 C-11.4675705 119.84182251 -11.45744934 118.67912842 -11.44702148 117.48120117 C-11.45578308 116.25663208 -11.46454468 115.03206299 -11.47357178 113.77038574 C-11.49182844 110.41042434 -11.48752278 107.05199923 -11.47167635 103.69212341 C-11.45902682 100.17810991 -11.47075479 96.66416254 -11.47860718 93.15014648 C-11.4877066 87.24865923 -11.47570851 81.34748471 -11.4519043 75.44604492 C-11.42469198 68.62081973 -11.43350597 61.79634127 -11.46103632 54.97113419 C-11.48371842 49.11368538 -11.48693205 43.25646153 -11.47384298 37.398983 C-11.46604331 33.89944974 -11.46502042 30.4002676 -11.48152542 26.90075684 C-11.49863656 23.00019246 -11.47492905 19.10046605 -11.44702148 15.19995117 C-11.45714264 14.03725708 -11.46726379 12.87456299 -11.47769165 11.67663574 C-11.46359253 10.61666382 -11.44949341 9.55669189 -11.43496704 8.46459961 C-11.43308191 7.54209412 -11.43119678 6.61958862 -11.42925453 5.66912842 C-10.80004883 3.34057617 -10.80004883 3.34057617 -8.43319225 1.54287243 C-5.39679373 0.15644944 -3.3290123 -0.02214421 0 0 Z " fill="#000000" transform="translate(53.800048828125,7.659423828125)"/>
<path d="M0 0 C7.36276592 -0.0463682 14.72550029 -0.08189196 22.08838272 -0.10362434 C25.50737928 -0.11405552 28.92627584 -0.12820243 32.34521484 -0.15087891 C36.277006 -0.17679333 40.20875685 -0.18647832 44.140625 -0.1953125 C45.36678528 -0.20563507 46.59294556 -0.21595764 47.85626221 -0.22659302 C48.99714294 -0.22674408 50.13802368 -0.22689514 51.31347656 -0.22705078 C52.81905121 -0.23371262 52.81905121 -0.23371262 54.3550415 -0.24050903 C57.10972875 0.00997776 58.72621012 0.43719119 61 2 C61.99092426 4.97277279 62.13484916 6.94458979 62.15390015 10.0480957 C62.16250061 11.09123932 62.17110107 12.13438293 62.17996216 13.20913696 C62.18422211 14.35312958 62.18848206 15.49712219 62.19287109 16.67578125 C62.20513733 18.48337418 62.20513733 18.48337418 62.21765137 20.32748413 C62.24250329 24.32248604 62.25916878 28.31745021 62.2734375 32.3125 C62.27879787 33.68779507 62.28417539 35.06309007 62.28956985 36.43838501 C62.311187 42.15682569 62.32992607 47.87526357 62.34119225 53.59373474 C62.35745066 61.79196013 62.39068665 69.98971308 62.44759309 78.18776035 C62.48624291 83.95172675 62.50581865 89.71556647 62.51111281 95.47965908 C62.51477153 98.92339126 62.52684726 102.36661906 62.55921555 105.81021118 C62.59477828 109.64835643 62.59093798 113.48590371 62.58349609 117.32421875 C62.59990143 118.46821136 62.61630676 119.61220398 62.63320923 120.79086304 C62.62073151 122.35557846 62.62073151 122.35557846 62.60800171 123.9519043 C62.61296693 125.31353951 62.61296693 125.31353951 62.61803246 126.7026825 C62 129 62 129 59.63482571 130.79295826 C56.59670168 132.18475526 54.532559 132.36274429 51.19995117 132.34057617 C50.05914597 132.34034958 48.91834076 132.34012299 47.7429657 132.33988953 C46.52196671 132.32440567 45.30096771 132.30892181 44.04296875 132.29296875 C42.78486893 132.28872391 41.5267691 132.28447906 40.23054504 132.28010559 C36.89797865 132.26617619 33.56603592 132.23925765 30.23364258 132.20599365 C26.82834237 132.17521552 23.42297756 132.1615838 20.01757812 132.14648438 C13.3448805 132.11342413 6.67247624 132.06323059 0 132 C-1.31518239 126.46629895 -1.81592566 121.43101207 0 116 C4.93636734 108.31162583 12.27101893 102.27259 18.9375 96.125 C20.76345547 94.38798513 22.58576399 92.64712803 24.40429688 90.90234375 C28.38172625 87.08987157 32.39253645 83.31660927 36.43711853 79.57546997 C38.09705701 78.0662359 38.09705701 78.0662359 39 76 C26.13 76 13.26 76 0 76 C0 65.77 0 55.54 0 45 C-9.57 45 -19.14 45 -29 45 C-25.17736148 40.54025505 -21.92542864 36.8664745 -17.63671875 33.06640625 C-16.65610988 32.16176899 -15.67765675 31.25479037 -14.70117188 30.34570312 C-13.1997884 28.94853822 -11.69320119 27.56745571 -10.14526367 26.22192383 C-4.56693668 21.34678469 -0.58683918 17.09597504 0.08427429 9.48728943 C0.20475667 6.3059617 0.16137493 3.18006496 0 0 Z " fill="#000000" transform="translate(112,8)"/>
<path d="M0 0 C1.05426178 -0.00571014 2.10852356 -0.01142029 3.19473267 -0.01730347 C4.93709702 -0.01898026 4.93709702 -0.01898026 6.71466064 -0.02069092 C8.54406693 -0.02813828 8.54406693 -0.02813828 10.41043091 -0.03573608 C13.76186413 -0.04785885 17.11323484 -0.05530689 20.46468258 -0.05974674 C22.55894936 -0.06267703 24.65321065 -0.06678181 26.74747467 -0.07125092 C33.30101012 -0.08492973 39.85453304 -0.09459373 46.40808177 -0.09845281 C53.97078824 -0.10293058 61.53331371 -0.12046367 69.09596515 -0.1494534 C74.94233912 -0.17108514 80.78866224 -0.18115793 86.63507581 -0.18249393 C90.12628207 -0.18354116 93.61731827 -0.18943107 97.10848236 -0.20731354 C101.00591336 -0.22688773 104.90311919 -0.22249927 108.80059814 -0.21600342 C109.95407745 -0.2252182 111.10755676 -0.23443298 112.29598999 -0.243927 C119.77048956 -0.20486081 124.0467176 0.59975415 129.84999084 5.56466675 C133.37741575 10.17940295 132.72041486 15.80111631 132.67926025 21.35284424 C132.68962814 22.57957352 132.69999603 23.8063028 132.7106781 25.07020569 C132.73309749 28.42411805 132.73304206 31.77648281 132.72097754 35.13034773 C132.71382952 37.93587937 132.72235703 40.74127452 132.73088294 43.54679549 C132.75081721 50.16928254 132.74528807 56.79140849 132.72320557 63.41387939 C132.70085678 70.231774 132.71842506 77.04872099 132.75625485 83.86652601 C132.78755302 89.73261398 132.79538516 95.59840961 132.7843011 101.46457064 C132.77783244 104.96262069 132.77972616 108.46012459 132.80362511 111.95811081 C132.82894153 115.86219682 132.80518438 119.76516781 132.7769165 123.66925049 C132.79749115 125.39328346 132.79749115 125.39328346 132.81848145 127.15214539 C132.7255965 133.5806117 131.87713736 137.59368875 127.79046345 142.63356972 C124.09203554 145.77501097 120.41333084 146.39053343 115.67207336 146.40786743 C114.08449471 146.42066238 114.08449471 146.42066238 112.46484375 146.43371582 C111.31405334 146.43280945 110.16326294 146.43190308 108.9776001 146.43096924 C107.1475367 146.44104507 107.1475367 146.44104507 105.28050232 146.45132446 C101.94158275 146.4670517 98.60291194 146.47367849 95.26397252 146.47495604 C93.1762144 146.47637964 91.08848219 146.48065314 89.00073051 146.48595047 C81.71240463 146.50443927 74.42415179 146.51262233 67.13580322 146.51104736 C60.34934472 146.50984555 53.56320404 146.5309584 46.77682596 146.56253469 C40.94311884 146.58870801 35.10951548 146.59941426 29.2757501 146.59813654 C25.79460586 146.59762731 22.31374435 146.60328891 18.83265877 146.62449265 C14.94985716 146.64749914 11.06748999 146.63834761 7.18463135 146.62628174 C5.46148209 146.64314026 5.46148209 146.64314026 3.70352173 146.66033936 C-2.34459239 146.61252818 -6.31331 146.41170479 -10.98358154 142.14044189 C-13.83561507 138.98296016 -14.36343206 136.95389693 -14.39144897 132.72653198 C-14.40568909 131.6274501 -14.4199292 130.52836823 -14.43460083 129.39598083 C-14.43481232 128.19484146 -14.4350238 126.99370209 -14.4352417 125.75616455 C-14.44692383 124.48750046 -14.45860596 123.21883636 -14.47064209 121.91172791 C-14.50139856 118.43437219 -14.51256106 114.95722224 -14.51828432 111.47974443 C-14.52264095 109.30604628 -14.5310175 107.13240132 -14.54078293 104.95872116 C-14.57452065 97.37213159 -14.59166337 89.7856975 -14.59442139 82.19903564 C-14.59745619 75.13231211 -14.63790299 68.06646341 -14.69556963 60.99999392 C-14.74336801 54.92849828 -14.76415347 48.85729127 -14.76421201 42.78560865 C-14.76474979 39.16113148 -14.77630758 35.53751128 -14.81538773 31.91322708 C-14.85795954 27.86936716 -14.8444346 23.82754963 -14.8258667 19.7835083 C-14.8463205 18.58641739 -14.86677429 17.38932648 -14.8878479 16.15596008 C-14.78759269 8.22122316 -14.78759269 8.22122316 -12.43915939 5.06437302 C-8.40209188 1.52378282 -5.37148288 0.01737663 0 0 Z M-6.98358154 10.14044189 C-7.73350271 12.51676588 -7.73350271 12.51676588 -7.61849976 15.26446533 C-7.63259888 16.32443726 -7.646698 17.38440918 -7.66122437 18.47650146 C-7.65110321 19.63919556 -7.64098206 20.80188965 -7.6305542 21.99981689 C-7.6393158 23.22438599 -7.64807739 24.44895508 -7.65710449 25.71063232 C-7.67536115 29.07059372 -7.67105549 32.42901884 -7.65520906 35.78889465 C-7.64255953 39.30290816 -7.6542875 42.81685553 -7.66213989 46.33087158 C-7.67123932 52.23235884 -7.65924123 58.13353336 -7.63543701 64.03497314 C-7.6082247 70.86019833 -7.61703869 77.68467679 -7.64456904 84.50988388 C-7.66725113 90.36733268 -7.67046476 96.22455654 -7.65737569 102.08203506 C-7.64957602 105.58156832 -7.64855314 109.08075046 -7.66505814 112.58026123 C-7.68216927 116.4808256 -7.65846176 120.38055202 -7.6305542 124.28106689 C-7.64067535 125.44376099 -7.65079651 126.60645508 -7.66122437 127.80438232 C-7.64712524 128.86435425 -7.63302612 129.92432617 -7.61849976 131.01641846 C-7.61661463 131.93892395 -7.6147295 132.86142944 -7.61278725 133.81188965 C-7.17450085 136.3754965 -7.17450085 136.3754965 -4.61672497 137.93814564 C-1.58032645 139.32456863 0.48745498 139.50316227 3.81646729 139.48101807 C5.52767509 139.48067818 5.52767509 139.48067818 7.27345276 139.48033142 C8.49445175 139.46484756 9.71545074 139.44936371 10.97344971 139.43341064 C12.23154953 139.4291658 13.48964935 139.42492096 14.78587341 139.42054749 C18.11843981 139.40661809 21.45038253 139.37969955 24.78277588 139.34643555 C28.18807608 139.31565742 31.5934409 139.30202569 34.99884033 139.28692627 C41.67153795 139.25386603 48.34394222 139.20367249 55.01641846 139.14044189 C55.01754639 137.85226563 55.01867432 136.56408936 55.01983643 135.23687744 C55.05620494 133.52110485 55.09421536 131.80536651 55.13360596 130.08966064 C55.12998047 129.2436731 55.12635498 128.39768555 55.12261963 127.52606201 C55.2998305 121.70201282 56.50559125 118.58896991 60.5836792 114.39750671 C64.07185756 111.16275499 64.07185756 111.16275499 65.72344971 109.87091064 C68.39668375 107.69670033 70.64117619 105.44274886 72.82891846 102.76544189 C75.76124361 99.29527821 79.02545909 96.39287294 82.51251221 93.48809814 C83.00880127 93.04337158 83.50509033 92.59864502 84.01641846 92.14044189 C84.01641846 91.81044189 84.01641846 91.48044189 84.01641846 91.14044189 C74.44641846 91.14044189 64.87641846 91.14044189 55.01641846 91.14044189 C55.01641846 80.58044189 55.01641846 70.02044189 55.01641846 59.14044189 C42.47641846 58.81044189 29.93641846 58.48044189 17.01641846 58.14044189 C19.75954346 55.54813721 22.50266846 52.95583252 25.32891846 50.28497314 C27.97773519 47.73768429 30.61515751 45.17911357 33.25177002 42.61920166 C35.08327894 40.85287272 36.92631223 39.0984099 38.78106689 37.35650635 C41.45361113 34.84256369 44.08107939 32.28811219 46.70391846 29.72247314 C47.53512207 28.95836624 48.36632568 28.19425934 49.22271729 27.40699768 C53.90877058 22.72699239 55.51864976 19.76959411 55.53594971 13.04156494 C55.40401305 11.07132806 55.24506221 9.10180945 55.01641846 7.14044189 C47.67095892 7.07083389 40.32557087 7.01757605 32.97984791 6.98500538 C29.56866084 6.9693705 26.15769997 6.94817275 22.74664307 6.91412354 C18.82227312 6.87519698 14.89799375 6.8607146 10.97344971 6.84747314 C9.75245071 6.83198929 8.53145172 6.81650543 7.27345276 6.80055237 C6.13264755 6.80032578 4.99184235 6.80009918 3.81646729 6.79986572 C2.81497147 6.79320389 1.81347565 6.78654205 0.78163147 6.77967834 C-2.55984099 7.21562359 -4.30383646 8.10508926 -6.98358154 10.14044189 Z M62.01641846 7.14044189 C62.10737793 8.12214355 62.1983374 9.10384521 62.29205322 10.11529541 C62.62837018 17.74517005 61.84044727 23.13984633 56.62075806 28.94815063 C53.49486931 32.10421901 50.25442185 35.10625479 46.95391846 38.07794189 C45.60604479 39.3418268 44.26160688 40.60938625 42.92071533 41.88067627 C40.49147637 44.18113962 38.04158602 46.45474421 35.57086182 48.71051025 C34.72789551 49.5123877 33.8849292 50.31426514 33.01641846 51.14044189 C33.01641846 51.47044189 33.01641846 51.80044189 33.01641846 52.14044189 C42.58641846 52.14044189 52.15641846 52.14044189 62.01641846 52.14044189 C62.01641846 62.37044189 62.01641846 72.60044189 62.01641846 83.14044189 C74.88641846 83.14044189 87.75641846 83.14044189 101.01641846 83.14044189 C96.25652764 88.58031712 91.61574261 93.51679432 86.33282471 98.35919189 C84.15607794 100.4136024 81.9862983 102.47521522 79.81646729 104.53692627 C78.32519864 105.93886524 76.82084324 107.32701286 75.30377197 108.70098877 C65.78772785 116.73872566 65.78772785 116.73872566 61.04718018 127.73809814 C60.89322577 131.63725448 61.29890646 135.31114986 62.01641846 139.14044189 C69.361878 139.2100499 76.70726605 139.26330774 84.05298901 139.29587841 C87.46417607 139.31151329 90.87513695 139.33271103 94.28619385 139.36676025 C98.2105638 139.4056868 102.13484316 139.42016919 106.05938721 139.43341064 C107.2803862 139.4488945 108.50138519 139.46437836 109.75938416 139.48033142 C110.90018936 139.48055801 112.04099457 139.48078461 113.21636963 139.48101807 C114.21786545 139.4876799 115.21936127 139.49434174 116.25120544 139.50120544 C119.58996525 139.0656141 121.336972 138.17080171 124.01641846 136.14044189 C124.75769235 133.80017013 124.75769235 133.80017013 124.63114929 131.09907532 C124.64579475 129.53652763 124.64579475 129.53652763 124.66073608 127.94241333 C124.64590179 126.79999176 124.6310675 125.65757019 124.61578369 124.48052979 C124.61972641 123.27707413 124.62366913 122.07361847 124.62773132 120.83369446 C124.63330036 117.53146833 124.61651768 114.23080168 124.58925128 110.92877889 C124.56543689 107.47399486 124.56836633 104.01922831 124.56794739 100.56437683 C124.56331707 94.76121508 124.53966279 88.95838107 124.503479 83.15533447 C124.46176374 76.44734211 124.44416541 69.73964508 124.44085926 63.03153044 C124.43725786 55.89035637 124.4183774 48.74928854 124.39373899 41.60815883 C124.38751269 39.55075903 124.38387485 37.49336733 124.38070488 35.43596077 C124.37370128 31.60045625 124.34930348 27.76517026 124.32281494 23.92974854 C124.32215027 22.7893512 124.3214856 21.64895386 124.32080078 20.47399902 C124.31082565 19.42948074 124.30085052 18.38496246 124.29057312 17.30879211 C124.28359736 15.9485396 124.28359736 15.9485396 124.27648067 14.56080723 C123.99452751 11.93670567 123.48798467 10.32758564 122.01641846 8.14044189 C118.88808957 7.0976656 116.72452759 7.01967344 113.44342041 7.0269165 C112.30246414 7.02699203 111.16150787 7.02706757 109.98597717 7.02714539 C108.75465561 7.03230667 107.52333405 7.03746796 106.25469971 7.04278564 C104.99376999 7.04420059 103.73284027 7.04561554 102.43370056 7.04707336 C99.08490137 7.05172615 95.73617035 7.06070848 92.38739014 7.07177734 C88.96881702 7.08201502 85.55023686 7.08657603 82.13165283 7.09161377 C75.42655585 7.1026509 68.72149109 7.11939503 62.01641846 7.14044189 Z " fill="#EF6C00" transform="translate(49.98358154296875,0.85955810546875)"/>
</svg>
