<?xml version="1.0" encoding="UTF-8"?>
<svg version="1.1" xmlns="http://www.w3.org/2000/svg" width="167" height="148">
<path d="M0 0 C55.11 0 110.22 0 167 0 C167 48.84 167 97.68 167 148 C111.89 148 56.78 148 0 148 C0 99.16 0 50.32 0 0 Z " fill="#FDFDFE" transform="translate(0,0)"/>
<path d="M0 0 C3.5722338 2.78880597 6.82317902 5.77109999 10 9 C10.57363281 9.57492188 11.14726562 10.14984375 11.73828125 10.7421875 C21.80147133 21.61147291 25.55127494 34.98669661 25.375 49.5 C25.38660156 50.45519531 25.39820313 51.41039062 25.41015625 52.39453125 C25.37250131 61.67019911 23.52580276 70.12251528 18.8125 78.1875 C18.28269531 79.10917969 17.75289063 80.03085938 17.20703125 80.98046875 C16.80871094 81.64691406 16.41039062 82.31335938 16 83 C15.34 83 14.68 83 14 83 C13.46375 82.13375 12.9275 81.2675 12.375 80.375 C7.89361232 73.38006647 0.8798496 69.87021747 -7 68 C-13.22408235 66.6887467 -19.33791741 65.95099957 -25.6875 65.625 C-32.83008921 65.12827317 -38.47801261 63.64808676 -43.5 58.375 C-46.49042313 53.64016337 -46.88534589 49.54375466 -46 44 C-44.08401328 40.51752251 -41.83878081 37.60462812 -37.98046875 36.3359375 C-30.03366592 34.98795911 -23.49663989 37.40682268 -16 40 C-15.23300781 40.26167969 -14.46601562 40.52335937 -13.67578125 40.79296875 C-9.24094089 42.47579077 -9.24094089 42.47579077 -8.1328125 44.88671875 C-6.61689531 47.7146884 -4.80492153 48.68959857 -2.0625 50.3125 C-1.18722656 50.84488281 -0.31195313 51.37726563 0.58984375 51.92578125 C3.06417855 53.3536327 3.06417855 53.3536327 6 52 C6 51.34 6 50.68 6 50 C5.2575 49.79375 4.515 49.5875 3.75 49.375 C0.20977803 47.60488902 -0.83031557 45.25452664 -3 42 C-5.55183404 40.79549696 -5.55183404 40.79549696 -8 40 C-8.66 39.01 -9.32 38.02 -10 37 C-10.99 37 -11.98 37 -13 37 C-13.33 36.34 -13.66 35.68 -14 35 C-14.99 35 -15.98 35 -17 35 C-17.33 34.01 -17.66 33.02 -18 32 C-18.66 32 -19.32 32 -20 32 C-20.495 32.99 -20.495 32.99 -21 34 C-21.94875 33.690625 -22.8975 33.38125 -23.875 33.0625 C-27.02743509 32.1186956 -29.90569501 31.8812722 -33.1875 31.75 C-36.97935536 31.40476279 -37.69018188 31.30981812 -40.5 28.5 C-41.76833625 25.54054875 -42.31033668 23.42185473 -42.8125 20.3125 C-43.2051566 18.00750305 -43.2051566 18.00750305 -44 16 C-46.61471585 14.33103243 -48.09305657 13.72804529 -51 13 C-51.80824219 12.74863281 -52.61648437 12.49726562 -53.44921875 12.23828125 C-60.52613106 10.12037319 -67.69017352 8.98781439 -75 8 C-58.08990902 -15.90737001 -22.12576286 -14.38035779 0 0 Z " fill="#2778FD" transform="translate(117,24)"/>
<path d="M0 0 C3.36338044 3.36338044 4 6.28835716 4 11 C2.5184675 12.185226 1.03535302 13.36861696 -0.4609375 14.53515625 C-3.89013907 17.79899023 -4.8561631 21.84587116 -5.1640625 26.45703125 C-4.94059118 32.05240919 -3.39808167 35.76459381 -0.05859375 40.2109375 C5.71197692 45.22596855 11.39837042 46.53366054 18.875 46.5625 C28.43511752 46.86329847 37.98323354 47.76960833 45 55 C48.76358475 60.00805666 52.10979176 64.7000648 53 71 C45.67817889 76.37086564 38.7795725 81.3020329 30 84 C29.00033203 84.33451172 29.00033203 84.33451172 27.98046875 84.67578125 C12.16077522 89.12223431 -4.63524386 85.60810126 -18.7421875 77.93359375 C-31.85245776 70.15231824 -40.58905796 56.89300844 -45.08984375 42.51953125 C-46.45701288 36.89996314 -46.21437832 31.24771345 -46.125 25.5 C-46.11597656 24.39140625 -46.10695313 23.2828125 -46.09765625 22.140625 C-46.07426167 19.42685408 -46.04148175 16.71354455 -46 14 C-36.41830315 10.14159859 -27.00968753 7.36671772 -16.8125 5.625 C-15.83337646 5.45774414 -14.85425293 5.29048828 -13.84545898 5.11816406 C-9.18785489 4.36972833 -4.73409955 3.79313178 0 4 C0 2.68 0 1.36 0 0 Z " fill="#2494FD" transform="translate(71,47)"/>
<path d="M0 0 C25.56122449 4.04081633 25.56122449 4.04081633 33 9 C33.625 10.98828125 33.625 10.98828125 34 13.3125 C34.62483158 17.14610212 35.5124335 19.95675581 38 23 C41.25966909 24.04078448 41.25966909 24.04078448 44.9375 24.3125 C46.77634766 24.52326172 46.77634766 24.52326172 48.65234375 24.73828125 C52.1049934 25.05196124 52.1049934 25.05196124 56 25 C56.66 25 57.32 25 58 25 C58.99 26.485 58.99 26.485 60 28 C60.99 28 61.98 28 63 28 C63.495 28.99 63.495 28.99 64 30 C64.99 30 65.98 30 67 30 C67.99 31.485 67.99 31.485 69 33 C69.78375 33.268125 70.5675 33.53625 71.375 33.8125 C74.90948539 35.41143387 75.92641623 37.78928965 78 41 C80.10039331 42.38868516 80.10039331 42.38868516 82 43 C82 43.66 82 44.32 82 45 C80.02 45.99 80.02 45.99 78 47 C76.15830774 45.74131097 74.32682969 44.46766474 72.5 43.1875 C71.4790625 42.47980469 70.458125 41.77210937 69.40625 41.04296875 C68.6121875 40.36878906 67.818125 39.69460937 67 39 C67 38.01 67 37.02 67 36 C65.9171875 35.814375 65.9171875 35.814375 64.8125 35.625 C61.16738255 34.8149739 57.92707186 33.39400554 54.5 31.9375 C48.88629025 29.83235885 43.1732834 29.18822983 37.3125 30.6875 C34.16431505 32.47430767 32.79193073 33.81434537 31 37 C30.19110738 41.89420887 30.49155816 45.80626698 32.4375 50.375 C38.64535172 56.73426274 46.48280607 57.621347 55 58.0625 C66.78875462 58.72195381 78.78000686 60.99717629 87 70.125 C90 73.67410714 90 73.67410714 90 76 C90.66 76.33 91.32 76.66 92 77 C91.01 77 90.02 77 89 77 C88.87625 77.598125 88.7525 78.19625 88.625 78.8125 C88 81 88 81 86 84 C83.875 84.6875 83.875 84.6875 82 85 C81.54560547 84.00419922 81.54560547 84.00419922 81.08203125 82.98828125 C77.43843763 75.30870701 73.51471085 70.27307087 66 66 C60.22599274 64.26531971 55.05786683 63.7840139 49.0625 63.6875 C40.78999191 63.36459227 35.27962833 62.11502724 29.171875 56.2421875 C24.90562653 51.31805959 23.55756406 46.47191175 24 40 C25.12943401 34.37247229 27.51648195 30.67878404 32 27 C32.66 27 33.32 27 34 27 C33.01 23.37 32.02 19.74 31 16 C30.34 16 29.68 16 29 16 C28.505 14.515 28.505 14.515 28 13 C23.95820902 12.05747447 20.09365556 11.80704506 15.94921875 11.68359375 C14.96100883 11.6524221 14.96100883 11.6524221 13.95283508 11.62062073 C11.86448815 11.55564511 9.77602388 11.49648425 7.6875 11.4375 C6.2649622 11.39426521 4.84243594 11.3506494 3.41992188 11.30664062 C-0.05326297 11.20001784 -3.52657726 11.09860652 -7 11 C-6 9 -5 7 -4 5 C-18.85 4.505 -18.85 4.505 -34 4 C-34 3.34 -34 2.68 -34 2 C-22.78 2 -11.56 2 0 2 C0 1.34 0 0.68 0 0 Z " fill="#F1F5FC" transform="translate(41,31)"/>
<path d="M0 0 C25.56122449 4.04081633 25.56122449 4.04081633 33 9 C33.73046875 11.6015625 33.73046875 11.6015625 34.1875 14.625 C34.34605469 15.62789062 34.50460938 16.63078125 34.66796875 17.6640625 C34.83232422 18.82035156 34.83232422 18.82035156 35 20 C33.515 20.495 33.515 20.495 32 21 C31.67 19.35 31.34 17.7 31 16 C30.34 16 29.68 16 29 16 C28.505 14.515 28.505 14.515 28 13 C23.95820902 12.05747447 20.09365556 11.80704506 15.94921875 11.68359375 C14.96100883 11.6524221 14.96100883 11.6524221 13.95283508 11.62062073 C11.86448815 11.55564511 9.77602388 11.49648425 7.6875 11.4375 C6.2649622 11.39426521 4.84243594 11.3506494 3.41992188 11.30664062 C-0.05326297 11.20001784 -3.52657726 11.09860652 -7 11 C-6 9 -5 7 -4 5 C-18.85 4.505 -18.85 4.505 -34 4 C-34 3.34 -34 2.68 -34 2 C-22.78 2 -11.56 2 0 2 C0 1.34 0 0.68 0 0 Z " fill="#DCE1EA" transform="translate(41,31)"/>
<path d="M0 0 C0.66 0 1.32 0 2 0 C2.97872278 1.13230697 3.90718137 2.30818813 4.8125 3.5 C12.51689908 12.5744282 24.27874529 18.43896034 36 20 C51.6344307 21.00385709 65.46863862 20.22372951 78.9140625 11.3671875 C81 10 81 10 83.2109375 8.9453125 C85.17868895 8.12753155 85.17868895 8.12753155 86 6 C86.495 7.485 86.495 7.485 87 9 C79.67817889 14.37086564 72.7795725 19.3020329 64 22 C63.33355469 22.22300781 62.66710937 22.44601563 61.98046875 22.67578125 C46.0133083 27.16368294 29.58521164 23.43719015 15.28125 15.96875 C9.2512131 12.35072786 3.93116099 7.87848532 0 2 C0 1.34 0 0.68 0 0 Z " fill="#1E72B7" transform="translate(37,109)"/>
<path d="M0 0 C0.88397461 0.00193359 1.76794922 0.00386719 2.67871094 0.00585938 C8.92918783 0.04714693 15.10739715 0.32801431 21.3125 1.125 C18.07887562 2.99143877 15.31604982 3.50742889 11.625 3.9375 C5.99930835 4.7347919 0.68512018 6.01496171 -4.75 7.625 C-5.47598389 7.83874268 -6.20196777 8.05248535 -6.94995117 8.27270508 C-9.73185979 9.11792845 -12.39261845 9.97730975 -14.99609375 11.28125 C-16.6875 12.125 -16.6875 12.125 -19.6875 12.125 C-17.9375 4.5 -17.9375 4.5 -15.6875 1.125 C-10.57628216 -0.25384016 -5.25867104 -0.02760457 0 0 Z " fill="#2B81E6" transform="translate(46.6875,44.875)"/>
<path d="M0 0 C2 3 2 3 2 7 C1.34628418 7.10022461 0.69256836 7.20044922 0.01904297 7.30371094 C-12.24686338 9.20603719 -24.15644559 11.22353729 -36 15 C-37.33016626 15.34575514 -38.66229148 15.68468299 -40 16 C-39.76171875 14.125 -39.76171875 14.125 -39 12 C-29.04741167 5.75523869 -15.16798354 3.74302152 -3.66796875 2.4921875 C-2.78753906 2.32976563 -1.90710938 2.16734375 -1 2 C-0.67 1.34 -0.34 0.68 0 0 Z " fill="#E9EFFA" transform="translate(69,44)"/>
<path d="M0 0 C6.6144391 0.28027284 12.90058966 1.29280175 19.3125 2.875 C19.98152344 3.03645508 20.65054688 3.19791016 21.33984375 3.36425781 C25.53326178 4.43976094 29.19910139 5.93749688 33 8 C32.67 9.32 32.34 10.64 32 12 C31.505 10.515 31.505 10.515 31 9 C26.95820902 8.05747447 23.09365556 7.80704506 18.94921875 7.68359375 C18.29041214 7.66281265 17.63160553 7.64203156 16.95283508 7.62062073 C14.86448815 7.55564511 12.77602388 7.49648425 10.6875 7.4375 C9.2649622 7.39426521 7.84243594 7.3506494 6.41992188 7.30664062 C2.94673703 7.20001784 -0.52657726 7.09860652 -4 7 C-2.79618552 4.50638429 -1.54571278 2.31856917 0 0 Z " fill="#3188FD" transform="translate(38,35)"/>
<path d="M0 0 C0.5775 0.2475 1.155 0.495 1.75 0.75 C1.81823975 1.30719727 1.88647949 1.86439453 1.95678711 2.43847656 C3.06990636 5.68224789 5.00171139 7.338507 7.44140625 9.734375 C8.13845924 10.42506073 8.13845924 10.42506073 8.84959412 11.12969971 C10.33031819 12.59367811 11.82114519 14.04686041 13.3125 15.5 C14.32034664 16.49279449 15.32751633 17.4862767 16.33398438 18.48046875 C18.79819461 20.91166473 21.27157329 23.33328868 23.75 25.75 C21.92480469 26.38989258 21.92480469 26.38989258 19.75 26.75 C17.60771037 25.03556989 15.85825073 23.42012184 14 21.4375 C13.49339844 20.92509766 12.98679687 20.41269531 12.46484375 19.88476562 C8.75 16.04475868 8.75 16.04475868 8.75 13.75 C7.43 13.09 6.11 12.43 4.75 11.75 C4.75 11.09 4.75 10.43 4.75 9.75 C4.09 9.75 3.43 9.75 2.75 9.75 C-1.25 5.27941176 -1.25 5.27941176 -1.25 2.75 C-2.425625 3.9565625 -2.425625 3.9565625 -3.625 5.1875 C-6.25 7.75 -6.25 7.75 -8.25 8.75 C-6.88064896 4.64194688 -5.04707216 -0.5607858 0 0 Z " fill="#327CF3" transform="translate(79.25,61.25)"/>
<path d="M0 0 C0.66 0.33 1.32 0.66 2 1 C2 1.66 2 2.32 2 3 C0.07373787 4.56395577 -1.83070612 5.98010674 -3.875 7.375 C-4.46635742 7.77984619 -5.05771484 8.18469238 -5.66699219 8.60180664 C-10.54015122 11.85167511 -15.38202865 14.27943686 -21 16 C-21.68964844 16.22300781 -22.37929687 16.44601563 -23.08984375 16.67578125 C-30.2390423 18.63282443 -37.65495979 18.17419068 -45 18 C-45 17.67 -45 17.34 -45 17 C-44.16597656 16.96261719 -43.33195312 16.92523438 -42.47265625 16.88671875 C-35.44001743 16.47587731 -29.52746484 15.58311827 -23 13 C-21.95714844 12.63777344 -20.91429687 12.27554688 -19.83984375 11.90234375 C-13.65019375 9.69226206 -8.51549478 7.4103885 -3.48828125 3.13671875 C-2 2 -2 2 0 2 C0 1.34 0 0.68 0 0 Z " fill="#0A64B1" transform="translate(122,115)"/>
<path d="M0 0 C6.84733583 2.41670676 11.90735792 6.04706607 16 12 C15.91011188 15.14608405 14.79354011 16.30968983 13 19 C12.34 19 11.68 19 11 19 C10.74605469 18.32453125 10.49210937 17.6490625 10.23046875 16.953125 C9.88628906 16.06109375 9.54210937 15.1690625 9.1875 14.25 C8.85105469 13.36828125 8.51460937 12.4865625 8.16796875 11.578125 C7.03112171 9.06869674 5.6558864 7.18254368 4 5 C4 4.34 4 3.68 4 3 C2.68 2.34 1.36 1.68 0 1 C0 0.67 0 0.34 0 0 Z " fill="#2D70DB" transform="translate(114,96)"/>
<path d="M0 0 C0.80421387 -0.00064453 1.60842773 -0.00128906 2.43701172 -0.00195312 C7.99121222 0.04754755 12.96275507 0.60239039 18.3125 2.1875 C16.3125 4.1875 16.3125 4.1875 13.51513672 4.41455078 C12.35256348 4.40407715 11.18999023 4.39360352 9.9921875 4.3828125 C8.10693359 4.37314453 8.10693359 4.37314453 6.18359375 4.36328125 C4.86488281 4.34652344 3.54617187 4.32976563 2.1875 4.3125 C0.84766279 4.30246983 -0.49218152 4.29334404 -1.83203125 4.28515625 C-5.11736573 4.26152075 -8.40234465 4.22857234 -11.6875 4.1875 C-12.0175 3.1975 -12.3475 2.2075 -12.6875 1.1875 C-8.42119407 -0.00635114 -4.40442434 -0.00359912 0 0 Z " fill="#4489FF" transform="translate(82.6875,13.8125)"/>
<path d="M0 0 C0.9590625 1.0828125 0.9590625 1.0828125 1.9375 2.1875 C9.16044156 9.15247936 15.56874451 10.4214474 25.31494141 10.69067383 C31.12405006 10.86753621 36.70212827 11.38237543 42 14 C42.495 14.99 42.495 14.99 43 16 C39.53058454 15.54177532 36.32604951 15.10868317 33 14 C31.45657089 13.83283594 29.90858248 13.70583522 28.359375 13.60546875 C27.00005859 13.50202148 27.00005859 13.50202148 25.61328125 13.39648438 C23.72079083 13.25835581 21.82751446 13.13056435 19.93359375 13.01367188 C13.05861325 12.46425688 8.42029393 11.14216014 3.22265625 6.3671875 C0 2.22222222 0 2.22222222 0 0 Z " fill="#2D6ABA" transform="translate(67,83)"/>
<path d="M0 0 C0 0.33 0 0.66 0 1 C-0.97888184 1.13462646 -0.97888184 1.13462646 -1.97753906 1.27197266 C-16.78457633 3.35429331 -30.81743034 6.24606604 -45 11 C-45 10.34 -45 9.68 -45 9 C-30.0562938 2.93218763 -16.2936248 -0.67785496 0 0 Z " fill="#1B64B6" transform="translate(71,52)"/>
<path d="M0 0 C6.6144391 0.28027284 12.90058966 1.29280175 19.3125 2.875 C19.98152344 3.03645508 20.65054688 3.19791016 21.33984375 3.36425781 C25.53326178 4.43976094 29.19910139 5.93749688 33 8 C32.67 9.32 32.34 10.64 32 12 C31.67 11.01 31.34 10.02 31 9 C28.83319379 8.03528251 28.83319379 8.03528251 26.15234375 7.4296875 C25.15396484 7.17316406 24.15558594 6.91664062 23.12695312 6.65234375 C22.07443359 6.39582031 21.02191406 6.13929687 19.9375 5.875 C18.91205078 5.61074219 17.88660156 5.34648438 16.83007812 5.07421875 C11.2245018 3.6611688 5.75339674 2.56636078 0 2 C0 1.34 0 0.68 0 0 Z " fill="#2360BB" transform="translate(38,35)"/>
<path d="M0 0 C0.79019531 0.00902344 1.58039062 0.01804688 2.39453125 0.02734375 C3.28205078 0.04474609 3.28205078 0.04474609 4.1875 0.0625 C3.8575 0.7225 3.5275 1.3825 3.1875 2.0625 C0.96606445 2.64086914 0.96606445 2.64086914 -1.94921875 3.09765625 C-3.00173828 3.26716797 -4.05425781 3.43667969 -5.13867188 3.61132812 C-6.24791016 3.78083984 -7.35714844 3.95035156 -8.5 4.125 C-9.58990234 4.29837891 -10.67980469 4.47175781 -11.80273438 4.65039062 C-13.84921423 4.97548572 -15.89628181 5.29691702 -17.9440918 5.61352539 C-20.9037117 6.07677682 -23.85835546 6.56563055 -26.8125 7.0625 C-26.4825 6.4025 -26.1525 5.7425 -25.8125 5.0625 C-23.22567151 4.27995485 -20.69035615 3.60838571 -18.0625 3 C-17.34578125 2.82662109 -16.6290625 2.65324219 -15.890625 2.47460938 C-13.86763636 1.98931523 -11.84152749 1.52180787 -9.8125 1.0625 C-8.91660156 0.85882813 -8.02070313 0.65515625 -7.09765625 0.4453125 C-4.68733781 0.04153266 -2.44169147 -0.03644316 0 0 Z " fill="#BDBEBE" transform="translate(26.8125,45.9375)"/>
<path d="M0 0 C8.74139761 2.33103936 18.0827182 6.91536329 24 14 C24 14.66 24 15.32 24 16 C21.18082597 14.68933137 18.9042432 13.21135629 16.5 11.25 C11.42592377 7.3483429 5.77143389 4.71257393 0 2 C0 1.34 0 0.68 0 0 Z " fill="#D3E0FB" transform="translate(89,47)"/>
<path d="M0 0 C9.35288432 -0.87003575 18.63910259 3.11121051 27 7 C26.67 7.99 26.34 8.98 26 10 C25.35933594 9.66226563 24.71867187 9.32453125 24.05859375 8.9765625 C15.71673325 4.67509643 8.32772854 2.71318649 -1 2 C-0.67 1.34 -0.34 0.68 0 0 Z " fill="#2059B5" transform="translate(81,60)"/>
<path d="M0 0 C3.36338044 3.36338044 4 6.28835716 4 11 C2.1875 11.6875 2.1875 11.6875 0 12 C-1.75 10.75 -1.75 10.75 -3 9 C-3 8.01 -3 7.02 -3 6 C-3.99 5.34 -4.98 4.68 -6 4 C-4.02 4 -2.04 4 0 4 C0 2.68 0 1.36 0 0 Z " fill="#4081ED" transform="translate(71,47)"/>
<path d="M0 0 C8.2675968 2.36217052 14.3656659 7.75150458 21 13 C19.68 13.33 18.36 13.66 17 14 C16.566875 13.34 16.13375 12.68 15.6875 12 C14.8521875 11.01 14.8521875 11.01 14 10 C13.01 10 12.02 10 11 10 C10.938125 9.071875 10.938125 9.071875 10.875 8.125 C10.58625 7.42375 10.2975 6.7225 10 6 C7.1628485 4.80404463 7.1628485 4.80404463 4 4 C2.65278717 3.36184656 1.31252882 2.70674629 0 2 C0 1.34 0 0.68 0 0 Z " fill="#4476D3" transform="translate(93,51)"/>
<path d="M0 0 C0 0.99 0 1.98 0 3 C-2.1171875 4.5703125 -2.1171875 4.5703125 -4.875 6.125 C-5.77992187 6.64320312 -6.68484375 7.16140625 -7.6171875 7.6953125 C-9.06497926 8.48803783 -10.52364925 9.26182462 -12 10 C-12.66 9.34 -13.32 8.68 -14 8 C-2 0 -2 0 0 0 Z " fill="#468AFF" transform="translate(60,19)"/>
<path d="M0 0 C0.66 0.33 1.32 0.66 2 1 C2 1.66 2 2.32 2 3 C-0.13770618 4.62677091 -2.2675534 6.13979644 -4.5 7.625 C-5.12003906 8.04523438 -5.74007812 8.46546875 -6.37890625 8.8984375 C-7.91517264 9.93837167 -9.45707524 10.96997056 -11 12 C-11.33 11.01 -11.66 10.02 -12 9 C-10.56542672 8.0165504 -9.12722594 7.03839079 -7.6875 6.0625 C-6.88699219 5.51722656 -6.08648437 4.97195312 -5.26171875 4.41015625 C-3 3 -3 3 0 2 C0 1.34 0 0.68 0 0 Z " fill="#2060B2" transform="translate(122,115)"/>
<path d="M0 0 C5.86487447 3.45877212 10.30117181 8.11321868 15 13 C14.34 13.66 13.68 14.32 13 15 C12.34 14.154375 11.68 13.30875 11 12.4375 C8.19821021 9.03821036 4.97189633 6.30410715 1.57421875 3.515625 C1.05472656 3.01546875 0.53523438 2.5153125 0 2 C0 1.34 0 0.68 0 0 Z " fill="#3883FF" transform="translate(116,24)"/>
<path d="M0 0 C1.77174819 0.08723378 3.54247377 0.19541655 5.3125 0.3125 C6.29863281 0.37050781 7.28476563 0.42851563 8.30078125 0.48828125 C11.24384457 1.04622813 12.18182999 1.68540132 14 4 C9.13103697 3.40380045 4.67209049 2.43023178 0 1 C0 0.67 0 0.34 0 0 Z " fill="#205CB2" transform="translate(96,95)"/>
<path d="M0 0 C4.61513112 1.31860889 8.09897612 3.21355437 12 6 C11.01 6.495 11.01 6.495 10 7 C7.6171875 6.00390625 7.6171875 6.00390625 4.875 4.5625 C3.96492188 4.08941406 3.05484375 3.61632813 2.1171875 3.12890625 C1.41851562 2.75636719 0.71984375 2.38382813 0 2 C0 1.34 0 0.68 0 0 Z " fill="#1657BB" transform="translate(93,51)"/>
<path d="M0 0 C4.455 1.98 4.455 1.98 9 4 C8.67 4.66 8.34 5.32 8 6 C2.25 4.125 2.25 4.125 0 3 C0 2.01 0 1.02 0 0 Z " fill="#4087FF" transform="translate(107,19)"/>
<path d="M0 0 C0.66 0 1.32 0 2 0 C2.33 1.98 2.66 3.96 3 6 C2.01 6 1.02 6 0 6 C-1.125 2.25 -1.125 2.25 0 0 Z " fill="#327CF0" transform="translate(72,52)"/>
<path d="M0 0 C0.86625 0.3403125 0.86625 0.3403125 1.75 0.6875 C-0.23 2.0075 -2.21 3.3275 -4.25 4.6875 C-4.91 4.0275 -5.57 3.3675 -6.25 2.6875 C-2.80384615 -0.38942308 -2.80384615 -0.38942308 0 0 Z " fill="#3386FF" transform="translate(52.25,24.3125)"/>
</svg>
