<?xml version="1.0" encoding="UTF-8"?>
<svg version="1.1" xmlns="http://www.w3.org/2000/svg" width="92" height="92">
<path d="M0 0 C30.36 0 60.72 0 92 0 C92 30.36 92 60.72 92 92 C61.64 92 31.28 92 0 92 C0 61.64 0 31.28 0 0 Z " fill="#FDFDFE" transform="translate(0,0)"/>
<path d="M0 0 C0.09931654 5.97732771 0.17167995 11.9541688 0.21972656 17.93212891 C0.23976836 19.96313857 0.26700947 21.99409106 0.30175781 24.02490234 C0.35060414 26.95424556 0.37304343 29.882822 0.390625 32.8125 C0.41127014 33.71178223 0.43191528 34.61106445 0.45318604 35.53759766 C0.45562394 42.4794412 -1.3164975 47.40768465 -5.46484375 52.9609375 C-11.22604873 58.49291682 -17.61206528 63.22366188 -24 68 C-24.68707031 68.63421875 -25.37414063 69.2684375 -26.08203125 69.921875 C-28 71 -28 71 -30.35546875 70.51171875 C-33.66149037 68.62186592 -36.46529515 66.3159247 -39.3125 63.8125 C-40.16799438 63.0704834 -40.16799438 63.0704834 -41.04077148 62.31347656 C-42.1769644 61.32732865 -43.31121395 60.33893653 -44.44335938 59.34814453 C-45.77133849 58.19803464 -47.1253678 57.07811852 -48.484375 55.96484375 C-49.17015625 55.39894531 -49.8559375 54.83304688 -50.5625 54.25 C-51.14128906 53.78078125 -51.72007813 53.3115625 -52.31640625 52.828125 C-57.90564918 46.75906307 -58.56795768 41.64806387 -58.390625 33.69140625 C-58.38496521 32.72468491 -58.37930542 31.75796356 -58.37347412 30.76194763 C-58.35120531 27.69494681 -58.30102649 24.62914364 -58.25 21.5625 C-58.22992273 19.47462633 -58.21167412 17.38673422 -58.1953125 15.29882812 C-58.15137159 10.19876208 -58.08240983 5.09958362 -58 0 C-39.65233496 -7.25137497 -18.40730028 -7.50536331 0 0 Z " fill="#1279B9" transform="translate(75,13)"/>
<path d="M0 0 C1.42931739 -0.06534022 2.85950505 -0.1118108 4.28979492 -0.15039062 C5.0860881 -0.17830688 5.88238129 -0.20622314 6.70280457 -0.23498535 C10.67261601 0.1710957 12.72591385 2.66624344 15.3125 5.5 C17.15432008 7.43951041 18.99667316 9.21411095 21 11 C25.10503845 11.44362397 25.10503845 11.44362397 27.69921875 8.59375 C29.20934203 7.0576933 30.6864775 5.50112021 32.13867188 3.91015625 C34.4933187 1.54629959 36.02590641 0.13946754 39.40087891 -0.34375 C41.62817576 -0.34375 43.78718241 -0.24494081 46 0 C46.09948577 4.98041064 46.17175686 9.96023252 46.21972656 14.94140625 C46.2397406 16.63291511 46.26696073 18.32435567 46.30175781 20.015625 C46.35073065 22.45850554 46.37307033 24.90046511 46.390625 27.34375 C46.41127014 28.08991577 46.43191528 28.83608154 46.45318604 29.6048584 C46.456012 36.34083187 44.22262905 41.3851423 39.875 46.5 C38 48 38 48 36 48 C36 37.44 36 26.88 36 16 C33.525 18.475 33.525 18.475 31 21 C30.67 21.33 30.34 21.66 30 22 C29.76346477 24.52596259 29.57826308 27.03107207 29.4375 29.5625 C29.39431641 30.27341797 29.35113281 30.98433594 29.30664062 31.71679688 C29.20028223 33.47761912 29.09961154 35.2387832 29 37 C25.04 37 21.08 37 17 37 C16.97421875 35.97519531 16.9484375 34.95039062 16.921875 33.89453125 C16.86556942 32.53381301 16.80822263 31.17313757 16.75 29.8125 C16.73582031 29.13896484 16.72164062 28.46542969 16.70703125 27.77148438 C16.47147777 22.94263811 15.41313912 20.40672344 12 17 C11.34 16.67 10.68 16.34 10 16 C10 26.56 10 37.12 10 48 C0.2252372 39.62163189 0.2252372 39.62163189 -0.34057617 33.03588867 C-0.34010505 31.49650031 -0.32338394 29.95705669 -0.29296875 28.41796875 C-0.28872391 27.60378983 -0.28447906 26.7896109 -0.28010559 25.95075989 C-0.26337753 23.36266332 -0.22573712 20.77535929 -0.1875 18.1875 C-0.17244553 16.42774566 -0.15875846 14.66797905 -0.14648438 12.90820312 C-0.11349336 8.60516563 -0.0617524 4.30271697 0 0 Z " fill="#F1F4F7" transform="translate(23,17)"/>
<path d="M0 0 C11.3019802 0 11.3019802 0 17.3125 1.375 C18.46363281 1.63023438 19.61476563 1.88546875 20.80078125 2.1484375 C23.66286974 2.91026325 26.26719928 3.87508744 29 5 C29.09931654 10.97732771 29.17167995 16.9541688 29.21972656 22.93212891 C29.23976836 24.96313857 29.26700947 26.99409106 29.30175781 29.02490234 C29.35060414 31.95424556 29.37304343 34.882822 29.390625 37.8125 C29.41127014 38.71178223 29.43191528 39.61106445 29.45318604 40.53759766 C29.45562394 47.4794412 27.6835025 52.40768465 23.53515625 57.9609375 C16.40839327 64.80414227 8.46430761 70.92141543 0 76 C0 66.1 0 56.2 0 46 C1.98 46 3.96 46 6 46 C5.91298828 44.48019531 5.91298828 44.48019531 5.82421875 42.9296875 C5.33494115 30.72661785 5.33494115 30.72661785 8.375 27.0625 C11 25 11 25 13 25 C13 35.56 13 46.12 13 57 C13.66 57 14.32 57 15 57 C15.33 56.01 15.66 55.02 16 54 C16.639375 53.38125 17.27875 52.7625 17.9375 52.125 C22.29835303 47.63199991 22.32317091 42.62981891 22.4140625 36.63671875 C22.43342865 35.84473587 22.4527948 35.05275299 22.4727478 34.23677063 C22.53227232 31.72045481 22.57881958 29.20409256 22.625 26.6875 C22.66320481 24.9758921 22.70225799 23.26430291 22.7421875 21.55273438 C22.8379513 17.36864251 22.9220818 13.18446069 23 9 C17.0608946 9.07905493 13.33770526 9.78938161 9.04101562 13.99804688 C8.55310547 14.51431641 8.06519531 15.03058594 7.5625 15.5625 C5.73448057 17.4088225 3.88733118 19.21277687 2 21 C1.34 21 0.68 21 0 21 C0 14.07 0 7.14 0 0 Z " fill="#266591" transform="translate(46,8)"/>
<path d="M0 0 C0.33 7.26 0.66 14.52 1 22 C-2.45809451 20.27095275 -3.96347897 19.24314155 -6.5 16.5625 C-7.11101563 15.94246094 -7.72203125 15.32242187 -8.3515625 14.68359375 C-8.89554688 14.12800781 -9.43953125 13.57242187 -10 13 C-13.74103678 9.25896322 -17.93924759 9.31359363 -23 9 C-23 9.99 -23 10.98 -23 12 C-24.32 11.67 -25.64 11.34 -27 11 C-27 8.69 -27 6.38 -27 4 C-17.74686478 0.59433218 -10.01869618 0 0 0 Z " fill="#0D77B8" transform="translate(46,8)"/>
<path d="M0 0 C0.11690073 4.49977884 0.18748837 8.99916287 0.25 13.5 C0.30027344 15.40265625 0.30027344 15.40265625 0.3515625 17.34375 C0.49292223 30.91428414 0.49292223 30.91428414 -4 36 C-5.63336724 37.05351282 -7.29659971 38.06394166 -9 39 C-9.17406614 34.57106883 -9.30053094 30.14398753 -9.38452148 25.71264648 C-9.41955689 24.20806165 -9.46720379 22.70371231 -9.52807617 21.19995117 C-10.01961367 8.73802998 -10.01961367 8.73802998 -7.48095703 4.41064453 C-3.19477513 0 -3.19477513 0 0 0 Z " fill="#FCFDFD" transform="translate(69,25)"/>
<path d="M0 0 C1.12588014 0.95729916 2.2506715 1.91587895 3.375 2.875 C4.00148438 3.40867187 4.62796875 3.94234375 5.2734375 4.4921875 C8.98060416 7.72966789 8.98060416 7.72966789 9.22705078 11.16455078 C9.22673389 12.50817963 9.21542181 13.8518341 9.1953125 15.1953125 C9.1924826 15.90275604 9.18965271 16.61019958 9.18673706 17.33908081 C9.17553137 19.6012251 9.15042679 21.86297515 9.125 24.125 C9.11497067 25.65754637 9.10584474 27.19009894 9.09765625 28.72265625 C9.07559086 32.48192301 9.04105896 36.24089464 9 40 C7.86800647 39.0919838 6.74467637 38.17316174 5.625 37.25 C4.68527344 36.48429687 4.68527344 36.48429687 3.7265625 35.703125 C0.8288515 32.84474945 0.06224367 30.87944284 -0.22705078 26.79199219 C-0.21657715 25.55610352 -0.20610352 24.32021484 -0.1953125 23.046875 C-0.1924826 22.38665344 -0.18965271 21.72643188 -0.18673706 21.04620361 C-0.17558415 18.94728103 -0.15048946 16.84879258 -0.125 14.75 C-0.11496384 13.32292285 -0.1058391 11.89583898 -0.09765625 10.46875 C-0.07566111 6.97902672 -0.04116536 3.48955577 0 0 Z " fill="#FEFEFE" transform="translate(23,24)"/>
<path d="M0 0 C0 7.92 0 15.84 0 24 C-4 22 -4 22 -6 19 C-6.63491169 13.99422257 -7.20692828 8.43122242 -4.9140625 3.8125 C-1.74308894 0 -1.74308894 0 0 0 Z " fill="#306A94" transform="translate(58,33)"/>
<path d="M0 0 C0.66 0 1.32 0 2 0 C2.04934154 6.08722746 2.08569167 12.1743392 2.10986328 18.26171875 C2.11993712 20.33367947 2.13359666 22.40562593 2.15087891 24.47753906 C2.17506664 27.45120764 2.18646908 30.4246887 2.1953125 33.3984375 C2.20563507 34.32868744 2.21595764 35.25893738 2.22659302 36.21737671 C2.22674408 37.07811798 2.22689514 37.93885925 2.22705078 38.82568359 C2.231492 39.58513275 2.23593323 40.34458191 2.24050903 41.12704468 C2 43 2 43 0 45 C-0.16784025 38.75220534 -0.32780106 32.50424527 -0.48217773 26.25610352 C-0.53568206 24.12877795 -0.59101764 22.00149764 -0.64819336 19.87426758 C-0.72986981 16.8238298 -0.80504681 13.77329203 -0.87890625 10.72265625 C-0.90594131 9.76537125 -0.93297638 8.80808624 -0.96083069 7.8217926 C-0.98092697 6.94095505 -1.00102325 6.06011749 -1.02172852 5.15258789 C-1.04171402 4.37315323 -1.06169952 3.59371857 -1.08229065 2.79066467 C-1 1 -1 1 0 0 Z " fill="#3F739A" transform="translate(73,13)"/>
<path d="M0 0 C0.99 0.33 1.98 0.66 3 1 C3 1.66 3 2.32 3 3 C3.66 3 4.32 3 5 3 C4.38722388 5.96175123 3.74627478 7.38058783 2 10 C-0.49361571 8.79618552 -2.68143083 7.54571278 -5 6 C-3.63016497 2.83884224 -3.0109362 2.0072908 0 0 Z " fill="#E7E7E7" transform="translate(77,73)"/>
<path d="M0 0 C0.99 0.33 1.98 0.66 3 1 C3 1.66 3 2.32 3 3 C3.99 3.33 4.98 3.66 6 4 C4.95125002 6.62187494 4.35068687 7.79371361 1.875 9.25 C1.25625 9.4975 0.6375 9.745 0 10 C-1.32 8.68 -2.64 7.36 -4 6 C-2.84826645 3.53199953 -1.95216435 1.95216435 0 0 Z " fill="#E7E7E7" transform="translate(13,73)"/>
<path d="M0 0 C1.9375 0.75 1.9375 0.75 3.9375 2.75 C3.9375 3.74 3.9375 4.73 3.9375 5.75 C3.2775 5.75 2.6175 5.75 1.9375 5.75 C1.2775 7.07 0.6175 8.39 -0.0625 9.75 C-1.0525 9.09 -2.0425 8.43 -3.0625 7.75 C-3.25 5.125 -3.25 5.125 -3.0625 2.75 C-3.7225 2.42 -4.3825 2.09 -5.0625 1.75 C-2.0625 -0.25 -2.0625 -0.25 0 0 Z " fill="#E7E8E8" transform="translate(78.0625,10.25)"/>
<path d="M0 0 C1.10844919 3.32534757 0.84454356 5.62182575 0 9 C-2.88575819 8.60196439 -3.82189513 8.20990931 -5.75 5.9375 C-6.1625 5.298125 -6.575 4.65875 -7 4 C-3.375 0 -3.375 0 0 0 Z " fill="#E6E6E6" transform="translate(16,10)"/>
<path d="M0 0 C0.66 0 1.32 0 2 0 C2 0.99 2 1.98 2 3 C2.66 3 3.32 3 4 3 C4 3.66 4 4.32 4 5 C2.35 4.67 0.7 4.34 -1 4 C-0.67 2.68 -0.34 1.36 0 0 Z " fill="#378BC1" transform="translate(38,51)"/>
</svg>
