<?xml version="1.0" encoding="UTF-8"?>
<svg version="1.1" xmlns="http://www.w3.org/2000/svg" width="1692" height="458">
<path d="M0 0 C14.85 0 29.7 0 45 0 C56.46139706 14.89981618 56.46139706 14.89981618 61.75 22.125 C62.95308677 23.76304891 64.15621291 25.40106891 65.359375 27.0390625 C65.96201172 27.86051758 66.56464844 28.68197266 67.18554688 29.52832031 C70.11805746 33.52303737 73.05936661 37.51126088 76 41.5 C77.16671111 43.08330059 78.33337772 44.66663396 79.5 46.25 C80.0775 47.03375 80.655 47.8175 81.25 48.625 C101.66666667 76.33333333 122.08333333 104.04166667 142.5 131.75 C143.0784668 132.53503906 143.65693359 133.32007813 144.25292969 134.12890625 C145.40991971 135.69915319 146.56682195 137.26946481 147.72363281 138.83984375 C150.78760462 142.99895624 153.85346173 147.15666287 156.921875 151.3125 C157.56253906 152.18068359 158.20320312 153.04886719 158.86328125 153.94335938 C160.09449316 155.61174074 161.32623946 157.27972791 162.55859375 158.94726562 C163.11160156 159.69685547 163.66460938 160.44644531 164.234375 161.21875 C164.72131836 161.87810547 165.20826172 162.53746094 165.70996094 163.21679688 C166.84422897 164.78467986 167.92656969 166.38985454 169 168 C169.33 112.56 169.66 57.12 170 0 C184.52 0 199.04 0 214 0 C214 81.84 214 163.68 214 248 C171 248 171 248 162.6875 240.1875 C161.46784198 237.67944317 160.24855408 235.16716694 159.18896484 232.58740234 C157.12284509 228.09115241 154.02694199 224.38475695 151 220.5 C149.81795983 218.90992287 148.64084517 217.31617203 147.46875 215.71875 C146.89125 214.935 146.31375 214.15125 145.71875 213.34375 C142.4156403 208.8395095 139.15755903 204.30283748 135.89453125 199.76953125 C131.96607984 194.31916162 127.99294732 188.90325984 124 183.5 C118.91794922 176.6229644 113.88997203 169.70966917 108.89453125 162.76953125 C104.96607984 157.31916162 100.99294732 151.90325984 97 146.5 C91.91794922 139.6229644 86.88997203 132.70966917 81.89453125 125.76953125 C77.96607936 120.31916095 73.9929005 114.90329511 70 109.5 C61.55968089 98.07665754 53.25537819 86.55752947 45 75 C44.67 132.09 44.34 189.18 44 248 C29.48 248 14.96 248 0 248 C0 166.16 0 84.32 0 0 Z " fill="#435464" transform="translate(477,50)"/>
<path d="M0 0 C2.52040664 0.01611263 5.03921081 0.00001365 7.55957031 -0.01904297 C22.82497844 -0.03968729 37.75033518 1.90830325 52.45800781 6.07861328 C53.36639404 6.33280029 54.27478027 6.5869873 55.21069336 6.84887695 C89.89581759 16.88986127 123.63652579 37.07952014 146.52050781 65.39111328 C147.35066406 66.39529297 148.18082031 67.39947266 149.03613281 68.43408203 C159.82658232 81.67064726 168.28942784 95.94799287 175.52050781 111.39111328 C176.05417969 112.50615234 176.58785156 113.62119141 177.13769531 114.77001953 C197.31327242 159.04129882 197.25808449 212.2907987 180.34960938 257.5234375 C171.30443613 280.23711241 159.16688392 301.03039545 142.11425781 318.65673828 C139.7576902 321.14107161 137.65570176 323.71876362 135.52050781 326.39111328 C132.99712334 328.8900582 130.24885998 331.11956285 127.52050781 333.39111328 C127.01116699 333.82343262 126.50182617 334.25575195 125.97705078 334.70117188 C86.83152329 367.8138033 36.51115214 383.71869915 -14.60449219 379.76611328 C-45.77132375 376.94761868 -76.34074006 366.66951726 -102.47949219 349.39111328 C-103.07455566 348.99811035 -103.66961914 348.60510742 -104.28271484 348.20019531 C-112.02190543 343.02055359 -119.01362666 337.34952755 -125.76074219 330.93408203 C-127.6852434 329.13400977 -129.59542269 327.44347183 -131.62792969 325.77783203 C-135.38603051 322.63235312 -138.35560829 319.1537095 -141.47949219 315.39111328 C-141.91036133 314.88322266 -142.34123047 314.37533203 -142.78515625 313.85205078 C-176.23691512 274.30770353 -191.64893224 224.04644426 -187.66699219 172.51611328 C-187.58481445 171.43418701 -187.50263672 170.35226074 -187.41796875 169.23754883 C-186.73984183 161.65146292 -186.73984183 161.65146292 -184.47949219 159.39111328 C-183.78082031 159.95701172 -183.08214844 160.52291016 -182.36230469 161.10595703 C-181.45222656 161.83943359 -180.54214844 162.57291016 -179.60449219 163.32861328 C-178.69957031 164.05951172 -177.79464844 164.79041016 -176.86230469 165.54345703 C-174.63446471 167.39473848 -174.63446471 167.39473848 -172.47949219 168.39111328 C-172.49520264 169.1899292 -172.51091309 169.98874512 -172.52709961 170.81176758 C-173.25201298 213.45319089 -165.2653144 254.55114445 -137.47949219 288.39111328 C-137.02848145 288.94750488 -136.5774707 289.50389648 -136.11279297 290.07714844 C-108.96685399 323.41894346 -70.13867999 344.65302879 -27.35449219 349.70361328 C14.16256801 353.90403314 56.1599223 342.61387403 89.52050781 317.39111328 C90.41511719 316.71951172 91.30972656 316.04791016 92.23144531 315.35595703 C105.63482076 304.84157893 117.13773061 292.58873669 126.52050781 278.39111328 C127.1112207 277.50286865 127.1112207 277.50286865 127.71386719 276.59667969 C151.08668108 240.92083939 159.5963332 196.82325614 151.32910156 155.00830078 C144.4842409 123.36504503 129.92003494 95.7770416 107.52050781 72.39111328 C106.82828125 71.64732422 106.13605469 70.90353516 105.42285156 70.13720703 C77.89003995 41.4051441 36.04882447 24.40465986 -3.47949219 23.39111328 C-10.44056356 23.24385837 -17.2433295 23.61862314 -24.16699219 24.32861328 C-25.06482422 24.415625 -25.96265625 24.50263672 -26.88769531 24.59228516 C-27.76748047 24.67929688 -28.64726562 24.76630859 -29.55371094 24.85595703 C-30.39732178 24.9375708 -31.24093262 25.01918457 -32.11010742 25.10327148 C-34.74983412 25.38610887 -34.74983412 25.38610887 -38.37011719 26.24267578 C-41.47949219 26.39111328 -41.47949219 26.39111328 -43.70214844 24.51220703 C-44.30929688 23.62662109 -44.91644531 22.74103516 -45.54199219 21.82861328 C-47.8692359 18.59406208 -50.07851187 15.62827353 -52.97949219 12.89111328 C-53.80449219 12.06611328 -54.62949219 11.24111328 -55.47949219 10.39111328 C-55.47949219 9.73111328 -55.47949219 9.07111328 -55.47949219 8.39111328 C-52.71187722 7.60700736 -49.94110394 6.83915138 -47.16699219 6.07861328 C-46.04647461 5.75860352 -46.04647461 5.75860352 -44.90332031 5.43212891 C-30.1166455 1.42116853 -15.28281468 -0.11555443 0 0 Z " fill="#0EA6B5" transform="translate(214.4794921875,46.60888671875)"/>
<path d="M0 0 C18.68087954 17.57085627 26.66640569 39.63081136 29.6953125 64.53515625 C29.6953125 71.79515625 29.6953125 79.05515625 29.6953125 86.53515625 C-15.5146875 86.53515625 -60.7246875 86.53515625 -107.3046875 86.53515625 C-102.59069597 104.21262448 -97.72287275 116.83335477 -82.1484375 127 C-66.1708286 135.62527514 -48.02002519 136.49637213 -30.70703125 131.49609375 C-21.52589616 128.39908409 -12.61421437 124.6456446 -5.3046875 118.16015625 C-2.3046875 115.53515625 -2.3046875 115.53515625 0.6953125 115.53515625 C1.95043945 116.86108398 1.95043945 116.86108398 3.18359375 118.71875 C3.64016357 119.39534668 4.0967334 120.07194336 4.56713867 120.76904297 C5.04256104 121.49623535 5.5179834 122.22342773 6.0078125 122.97265625 C6.73931519 124.06731201 6.73931519 124.06731201 7.4855957 125.18408203 C8.4545033 126.63575094 9.41935534 128.09013594 10.37988281 129.54736328 C12.01766883 132.02228046 13.70340598 134.46336541 15.3828125 136.91015625 C17.6953125 140.28445202 17.6953125 140.28445202 17.6953125 142.53515625 C4.82947988 154.26066459 -11.4540125 161.74882874 -28.3046875 165.53515625 C-29.50484497 165.81117676 -29.50484497 165.81117676 -30.72924805 166.09277344 C-38.60033117 167.72503575 -46.34672494 167.92047354 -54.3671875 167.91015625 C-55.04866852 167.90994476 -55.73014954 167.90973328 -56.43228149 167.90951538 C-72.15008569 167.86091762 -86.04337412 165.5018898 -100.3046875 158.53515625 C-101.201875 158.1175 -102.0990625 157.69984375 -103.0234375 157.26953125 C-122.78179797 147.39035101 -137.56101269 129.16508241 -144.53588867 108.37011719 C-148.11066627 97.14013704 -149.68175081 86.06795984 -149.6171875 74.28515625 C-149.61154785 73.19468994 -149.6059082 72.10422363 -149.60009766 70.98071289 C-149.22354609 45.77599167 -140.23080891 22.47783527 -122.40234375 4.47265625 C-89.65185502 -27.22070295 -34.90476367 -29.78340946 0 0 Z M-95.64453125 27.42578125 C-103.21367077 37.04304088 -106.80626503 46.54777652 -108.3046875 58.53515625 C-75.3046875 58.53515625 -42.3046875 58.53515625 -8.3046875 58.53515625 C-11.15594857 41.4275898 -16.14079234 29.84845352 -30.3046875 19.53515625 C-51.05486376 7.87243236 -78.79170745 9.41756291 -95.64453125 27.42578125 Z " fill="#435464" transform="translate(858.3046875,134.46484375)"/>
<path d="M0 0 C13.2 0 26.4 0 40 0 C40.0093457 3.66319336 40.01869141 7.32638672 40.02832031 11.10058594 C40.06215163 23.23045966 40.11753586 35.36014619 40.18390274 47.48987961 C40.22360204 54.84107548 40.25604051 62.19216573 40.27099609 69.54345703 C40.28406015 75.95572114 40.31114482 82.36775193 40.35461307 88.77988458 C40.37712203 92.17070509 40.39291711 95.56123897 40.39188385 98.95214081 C40.39426268 102.75067193 40.42141884 106.54830448 40.45410156 110.34667969 C40.4490712 111.45367722 40.44404083 112.56067474 40.43885803 113.70121765 C40.5665647 123.35243039 42.35412545 133.42787829 49.3046875 140.60546875 C58.69172563 148.32706463 70.36863083 148.75156539 82 148 C97.58263575 145.74686069 108.22425099 137.77574901 119 127 C119.10825579 125.35549337 119.14685268 123.70636111 119.15821838 122.05833435 C119.1680072 120.98836212 119.17779602 119.91838989 119.18788147 118.81599426 C119.19363693 117.63204575 119.1993924 116.44809723 119.20532227 115.22827148 C119.21522186 113.989422 119.22512146 112.75057251 119.23532104 111.47418213 C119.26157224 108.06733026 119.28340796 104.66050263 119.30332303 101.25361133 C119.32514442 97.69680391 119.35255186 94.14003976 119.37937927 90.58326721 C119.42935835 83.84366558 119.47427776 77.10403999 119.51740164 70.36439139 C119.56672954 62.69338528 119.62166411 55.02242258 119.67708123 47.35145843 C119.79098131 31.56767747 119.89706252 15.78385684 120 0 C133.2 0 146.4 0 160 0 C160 59.4 160 118.8 160 180 C146.8 180 133.6 180 120 180 C119.505 169.605 119.505 169.605 119 159 C116.69 161.31 114.38 163.62 112 166 C95.75946702 178.18527385 77.9855576 184.62067761 57.625 184.4375 C56.44760254 184.43065186 55.27020508 184.42380371 54.05712891 184.41674805 C38.2725217 184.12621378 24.88022853 180.2614097 13.140625 169.36328125 C1.40575019 156.40780815 -0.16081384 141.1789148 -0.11352539 124.53735352 C-0.11324298 123.1767324 -0.1134023 121.81611114 -0.1139679 120.45549011 C-0.11425378 116.77832247 -0.10839079 113.10118771 -0.10139394 109.42402768 C-0.09512566 105.57499946 -0.09455386 101.72597041 -0.09336853 97.87693787 C-0.09026544 90.59564087 -0.08206587 83.31435896 -0.07201904 76.0330686 C-0.06082612 67.74044219 -0.05533945 59.44781504 -0.05032361 51.15518296 C-0.03988237 34.10344509 -0.02154963 17.051728 0 0 Z " fill="#435464" transform="translate(1208,118)"/>
<path d="M0 0 C1.43092998 1.18874686 2.84362081 2.39938982 4.25244141 3.61425781 C3.64565872 6.421351 2.80519517 8.68931519 1.39697266 11.18847656 C1.02435303 11.85234375 0.6517334 12.51621094 0.26782227 13.20019531 C-0.12912842 13.89371094 -0.5260791 14.58722656 -0.93505859 15.30175781 C-1.33781006 16.01203125 -1.74056152 16.72230469 -2.15551758 17.45410156 C-5.13408651 22.65962128 -8.27937015 27.71799177 -11.74755859 32.61425781 C-14.60430874 31.30796608 -16.15333882 30.22692214 -18.49755859 27.98925781 C-33.24384528 15.16093165 -53.53769057 11.16846645 -72.50488281 12.38671875 C-80.73798314 13.22203875 -88.39408509 16.12141532 -93.74755859 22.61425781 C-96.59494279 27.33023789 -97.31732942 31.1852804 -96.42724609 36.54394531 C-95.23282282 40.18213116 -92.9608618 41.85540122 -89.74755859 43.61425781 C-78.55580358 49.27009764 -66.38642889 51.4680204 -54.23974609 54.16381836 C-32.46699876 59.0274066 -9.1317634 64.89294976 4.06494141 84.55175781 C11.21204039 96.77642544 12.16717141 112.34623431 9.12744141 125.98925781 C5.06410774 139.65175129 -3.40216594 149.95816427 -15.49755859 157.48925781 C-30.86657843 165.79091749 -46.9716713 168.03990674 -64.24755859 167.98925781 C-64.9483252 167.98871399 -65.6490918 167.98817017 -66.37109375 167.98760986 C-92.25825506 167.89557644 -116.51583108 161.35915453 -136.74755859 144.61425781 C-137.75818359 143.80988281 -138.76880859 143.00550781 -139.81005859 142.17675781 C-140.44943359 141.66113281 -141.08880859 141.14550781 -141.74755859 140.61425781 C-140.1140964 135.91463194 -137.59600296 131.96756615 -134.93505859 127.80175781 C-134.50902344 127.12822266 -134.08298828 126.4546875 -133.64404297 125.76074219 C-132.78597045 124.40418275 -131.92644059 123.048544 -131.06542969 121.69384766 C-128.94282616 118.34439659 -126.84510672 114.97943748 -124.74755859 111.61425781 C-121.06876787 112.40359709 -119.31916482 113.65605714 -116.49755859 116.17675781 C-98.24526474 131.11045278 -74.81643307 136.15822062 -51.74755859 134.61425781 C-43.67533393 133.24831562 -36.9796304 130.03662595 -31.74755859 123.61425781 C-29.03973889 119.16951428 -28.08722711 114.69499553 -29.06396484 109.55957031 C-30.69470719 104.91894352 -33.66798062 101.84879029 -37.8684082 99.35522461 C-46.56679847 95.24471268 -55.60459722 93.23605369 -64.93505859 91.11425781 C-117.61443079 79.00073337 -117.61443079 79.00073337 -128.74755859 61.61425781 C-136.10517857 48.86242768 -137.72287996 35.47261121 -135.09521484 21.02832031 C-130.83121942 7.08340823 -121.85516313 -3.73518841 -109.09667969 -10.65429688 C-75.55818226 -27.84569162 -29.68824554 -23.54155933 0 0 Z " fill="#435464" transform="translate(1521.74755859375,134.3857421875)"/>
<path d="M0 0 C1.43092998 1.18874686 2.84362081 2.39938982 4.25244141 3.61425781 C3.59025855 6.95496553 2.32654791 9.51177251 0.63525391 12.45800781 C0.11060547 13.37453125 -0.41404297 14.29105469 -0.95458984 15.23535156 C-1.50501953 16.18539062 -2.05544922 17.13542969 -2.62255859 18.11425781 C-3.16525391 19.06429687 -3.70794922 20.01433594 -4.26708984 20.99316406 C-6.59161616 25.03408878 -8.88173918 28.92887554 -11.74755859 32.61425781 C-14.60430874 31.30796608 -16.15333882 30.22692214 -18.49755859 27.98925781 C-33.24384528 15.16093165 -53.53769057 11.16846645 -72.50488281 12.38671875 C-80.73798314 13.22203875 -88.39408509 16.12141532 -93.74755859 22.61425781 C-96.59494279 27.33023789 -97.31732942 31.1852804 -96.42724609 36.54394531 C-95.23282282 40.18213116 -92.9608618 41.85540122 -89.74755859 43.61425781 C-78.55580358 49.27009764 -66.38642889 51.4680204 -54.23974609 54.16381836 C-32.48141338 59.02418666 -9.9295956 64.84513508 3.68994141 84.11425781 C11.25648208 96.36179398 12.20799655 112.2187637 9.06494141 126.05175781 C4.94523989 140.11949431 -4.89737127 150.81488717 -17.38818359 158.16894531 C-40.67812172 170.68573024 -73.36394173 171.3486393 -98.59082031 164.26464844 C-112.76286072 159.99089751 -125.2850299 154.10128056 -136.74755859 144.61425781 C-137.75818359 143.80988281 -138.76880859 143.00550781 -139.81005859 142.17675781 C-140.44943359 141.66113281 -141.08880859 141.14550781 -141.74755859 140.61425781 C-140.32290689 136.71668448 -138.48362533 133.38243137 -136.27099609 129.87597656 C-135.60068359 128.80927734 -134.93037109 127.74257813 -134.23974609 126.64355469 C-133.54107422 125.54076172 -132.84240234 124.43796875 -132.12255859 123.30175781 C-131.40864281 122.16852987 -130.69509734 121.03506855 -129.98193359 119.90136719 C-128.24076942 117.13668083 -126.49586805 114.37442912 -124.74755859 111.61425781 C-121.06876787 112.40359709 -119.31916482 113.65605714 -116.49755859 116.17675781 C-98.24526474 131.11045278 -74.81643307 136.15822062 -51.74755859 134.61425781 C-43.73377808 133.25820525 -36.86636768 130.08616855 -31.74755859 123.61425781 C-29.18695734 119.13934124 -28.36759838 115.03131837 -29.12255859 109.92675781 C-30.62968942 104.79894584 -33.27000668 102.34960261 -37.74755859 99.61425781 C-49.63434227 94.00853881 -62.65654151 91.53282819 -75.38037109 88.56738281 C-117.36026191 78.73013319 -117.36026191 78.73013319 -128.74755859 61.61425781 C-136.12262296 48.88300145 -137.71991809 35.4563298 -135.09521484 21.02832031 C-130.83121942 7.08340823 -121.85516313 -3.73518841 -109.09667969 -10.65429688 C-75.55818226 -27.84569162 -29.68824554 -23.54155933 0 0 Z " fill="#435464" transform="translate(1029.74755859375,134.3857421875)"/>
<path d="M0 0 C2.32884677 1.85323722 4.60715837 3.73521724 6.8359375 5.70703125 C5.91196255 12.14931154 2.30440342 17.05720219 -1.0390625 22.51953125 C-1.67714844 23.59396484 -2.31523438 24.66839844 -2.97265625 25.77539062 C-3.59011719 26.79052734 -4.20757813 27.80566406 -4.84375 28.8515625 C-5.40819824 29.78331299 -5.97264648 30.71506348 -6.55419922 31.67504883 C-7.35108154 32.68088013 -7.35108154 32.68088013 -8.1640625 33.70703125 C-11.99742347 33.70703125 -12.60444071 32.66267867 -15.4140625 30.14453125 C-31.17851209 17.21722498 -51.21008883 13.03892607 -71.1640625 14.70703125 C-78.29799773 15.76748108 -84.86907316 18.74566929 -90.1640625 23.70703125 C-93.04805004 27.8736343 -94.1640625 31.39587134 -94.1640625 36.45703125 C-92.74968317 41.05376409 -91.29026028 43.52889286 -86.99365234 45.90966797 C-79.56216052 49.39192397 -72.1543914 51.41664294 -64.1640625 53.20703125 C-61.58826746 53.80872316 -59.01274636 54.41158901 -56.4375 55.015625 C-55.19323242 55.30421387 -53.94896484 55.59280273 -52.66699219 55.89013672 C-9.23883726 66.01772289 -9.23883726 66.01772289 4.8359375 83.70703125 C13.17899169 97.27792197 14.9088945 112.02309178 12.1484375 127.58203125 C10.20842935 134.4367267 7.24823656 140.13196161 2.8359375 145.70703125 C2.06894531 146.68800781 1.30195312 147.66898438 0.51171875 148.6796875 C-10.51213121 161.76960902 -28.80660423 167.5060247 -45.1640625 169.70703125 C-50.56967504 170.11692923 -55.93302083 170.19363355 -61.3515625 170.14453125 C-62.06851288 170.14148987 -62.78546326 170.13844849 -63.5241394 170.13531494 C-75.40912115 170.06106784 -86.73434673 169.13752322 -98.1640625 165.70703125 C-98.86724609 165.49804199 -99.57042969 165.28905273 -100.29492188 165.07373047 C-115.19500162 160.45636592 -128.11192657 152.70715713 -139.1640625 141.70703125 C-135.29852645 134.83354496 -131.24456809 128.08742789 -126.9765625 121.45703125 C-126.56100098 120.78921631 -126.14543945 120.12140137 -125.71728516 119.43334961 C-124.49609375 117.56640625 -124.49609375 117.56640625 -122.1640625 114.70703125 C-117.30302563 114.70703125 -116.46575969 115.75262492 -112.7890625 118.76953125 C-97.82692702 130.49310926 -79.40855731 136.85558721 -60.4765625 136.95703125 C-59.53361328 136.97765625 -58.59066406 136.99828125 -57.61914062 137.01953125 C-47.10746628 137.0773274 -38.30048623 134.51892088 -30.1640625 127.70703125 C-26.34224151 122.6908912 -25.63525506 117.94695909 -26.1640625 111.70703125 C-27.98535573 106.04078566 -30.74866912 104.00372102 -35.9140625 101.14453125 C-46.02223462 96.20842874 -57.26934357 94.1945231 -68.1640625 91.70703125 C-113.36364059 81.18110211 -113.36364059 81.18110211 -125.7109375 64.08984375 C-132.99496117 52.14561139 -135.08886963 38.80401953 -132.48046875 25.12109375 C-128.00795435 9.49513056 -118.99267299 -1.12761627 -105.1640625 -9.29296875 C-73.13422499 -25.67186293 -28.92775912 -20.96369704 0 0 Z " fill="#435464" transform="translate(1179.1640625,132.29296875)"/>
<path d="M0 0 C2.07183069 1.80160558 4.10659917 3.63885063 6.125 5.5 C7.00800781 6.31210938 7.89101563 7.12421875 8.80078125 7.9609375 C29.32192956 27.68421846 42.54030202 53.72347585 48.125 81.5 C48.46144531 83.09521484 48.46144531 83.09521484 48.8046875 84.72265625 C55.16984771 120.60297716 46.10247807 158.76025001 25.50634766 188.59619141 C21.42495111 194.22127629 16.83891515 199.40239409 12.125 204.5 C11.36445313 205.33144531 10.60390625 206.16289062 9.8203125 207.01953125 C-14.07225168 232.00607731 -48.88892339 246.52089927 -83.2265625 247.72265625 C-122.13692662 248.5703263 -157.23588289 235.98348464 -185.875 209.5 C-186.70644531 208.73945313 -187.53789062 207.97890625 -188.39453125 207.1953125 C-212.23835294 184.39544097 -227.89353652 150.11793365 -228.95214844 117.09326172 C-229.03429064 111.89325941 -228.98220069 106.69923358 -228.875 101.5 C-225.245 101.83 -221.615 102.16 -217.875 102.5 C-217.77703125 103.89089844 -217.6790625 105.28179687 -217.578125 106.71484375 C-214.78689902 143.19227263 -201.62575089 174.00861708 -173.875 198.5 C-169.77707579 201.87177107 -165.40739375 204.74532959 -160.875 207.5 C-159.74964844 208.18578125 -158.62429687 208.8715625 -157.46484375 209.578125 C-144.3973705 217.17997144 -128.93574435 222.83203483 -113.875 224.5 C-112.53308594 224.66242188 -112.53308594 224.66242188 -111.1640625 224.828125 C-108.40137684 225.12219238 -105.64805672 225.33217812 -102.875 225.5 C-102.08351563 225.55414063 -101.29203125 225.60828125 -100.4765625 225.6640625 C-84.98824537 226.20151199 -69.34028157 222.80182639 -54.875 217.5 C-53.82054687 217.11972656 -52.76609375 216.73945313 -51.6796875 216.34765625 C-40.34345337 211.95227565 -30.15260436 205.30920655 -20.875 197.5 C-20.07578125 196.83484375 -19.2765625 196.1696875 -18.453125 195.484375 C4.89309283 175.32832358 19.31919892 145.52457207 21.71533203 114.88012695 C23.72887749 84.07657603 14.51191898 52.94862278 -5.5703125 29.25390625 C-8.23261174 26.2235889 -11.0226963 23.3523037 -13.875 20.5 C-14.74898437 19.62601563 -15.62296875 18.75203125 -16.5234375 17.8515625 C-43.768736 -8.11536422 -77.56094113 -14.01672179 -113.875 -13.5 C-115.195 -18.45 -116.515 -23.4 -117.875 -28.5 C-77.94005525 -39.39134857 -31.20833373 -26.30918973 0 0 Z " fill="#0EA6B5" transform="translate(305.875,128.5)"/>
<path d="M0 0 C5.5608825 3.99759525 10.48219738 8.62207282 15.3203125 13.453125 C16.04863281 14.16984375 16.77695312 14.8865625 17.52734375 15.625 C35.26958733 34.24210766 43.78036472 61.05824221 43.3203125 86.453125 C42.18001568 115.89351572 29.57002794 141.43066434 8.1328125 161.515625 C-12.4385527 179.19414197 -38.87107653 187.41930884 -65.8046875 186.328125 C-92.20119132 184.03392337 -115.1218968 173.24418402 -133.6796875 154.453125 C-134.35515625 153.77636719 -135.030625 153.09960938 -135.7265625 152.40234375 C-152.07543729 134.89104897 -160.94113985 110.79936707 -160.7421875 87.078125 C-160.73767578 86.05589844 -160.73316406 85.03367187 -160.72851562 83.98046875 C-160.7167905 81.47129306 -160.70037926 78.9622401 -160.6796875 76.453125 C-156.7196875 75.463125 -156.7196875 75.463125 -152.6796875 74.453125 C-152.64101562 76.08894531 -152.64101562 76.08894531 -152.6015625 77.7578125 C-151.72393408 103.97512708 -144.03504226 127.85410737 -124.6796875 146.453125 C-107.96015926 161.01691197 -85.43367156 170.33722763 -63.05859375 169.63671875 C-42.57160879 168.05562139 -24.52183678 161.83700974 -8.6796875 148.453125 C-8.02742187 147.95683594 -7.37515625 147.46054687 -6.703125 146.94921875 C8.94083049 134.51507882 18.81754281 112.84374248 21.3203125 93.453125 C22.8335273 69.15236649 18.14663218 46.53954798 2.3203125 27.453125 C1.63195312 26.60234375 0.94359375 25.7515625 0.234375 24.875 C-13.81317162 8.34250831 -33.62268436 -1.01840229 -54.8671875 -4.296875 C-64.54662099 -4.93159195 -74.02582529 -4.38634128 -83.6796875 -3.546875 C-83.0196875 -7.506875 -82.3596875 -11.466875 -81.6796875 -15.546875 C-53.6666753 -23.02099779 -23.55971549 -16.15204281 0 0 Z " fill="#0EA6B5" transform="translate(275.6796875,152.546875)"/>
<path d="M0 0 C4.40892817 1.31473517 8.02829989 3.04113804 11.9375 5.45703125 C12.49075455 5.79621582 13.04400909 6.13540039 13.61402893 6.48486328 C15.41267153 7.58877914 17.20622767 8.7006916 19 9.8125 C21.5282949 11.36728183 24.05913727 12.91789749 26.58984375 14.46875 C27.53681374 15.05025566 27.53681374 15.05025566 28.50291443 15.64350891 C34.14768029 19.10496198 39.84726615 22.46880956 45.5625 25.8125 C52.98312153 30.16907117 60.29926588 34.65974678 67.55712891 39.28173828 C74.14801287 43.47593717 80.78353432 47.59416593 87.4375 51.6875 C88.52361572 52.35579834 89.60973145 53.02409668 90.72875977 53.71264648 C96.59243401 57.31359812 102.46798979 60.89378414 108.359375 64.44921875 C135.34244907 80.73568235 160.01346286 98.05587571 183.1875 119.5 C184.12348022 120.36310791 184.12348022 120.36310791 185.07836914 121.24365234 C188.33949434 124.29465696 191.45139171 127.30673142 194 131 C194 131.99 194 132.98 194 134 C187.81585782 133.45771434 182.61924804 130.8270232 177.0625 128.25 C176.00853027 127.76265381 174.95456055 127.27530762 173.86865234 126.77319336 C150.99607948 116.01133275 129.80567656 102.66148493 110 87 C108.00258789 85.45498189 106.00250274 83.9134144 104 82.375 C103.47962158 81.97490723 102.95924316 81.57481445 102.4230957 81.16259766 C100.6162163 79.77399455 98.8082724 78.38678866 97 77 C96.23655273 76.41444336 95.47310547 75.82888672 94.68652344 75.22558594 C85.34897791 68.07055982 75.98864729 60.95381724 66.5 54 C56.22748096 46.47171722 46.1053206 38.75068279 36 31 C35.34741211 30.49952148 34.69482422 29.99904297 34.02246094 29.48339844 C31.33936931 27.42435006 28.65889117 25.36199759 25.98046875 23.296875 C23.88124797 21.67912688 21.77999553 20.06434497 19.67578125 18.453125 C17.48044996 16.77195255 15.28901071 15.08594726 13.1015625 13.39453125 C11.06200139 11.81990787 9.0152846 10.2545021 6.9609375 8.69921875 C6.04570312 7.99410156 5.13046875 7.28898437 4.1875 6.5625 C3.37667969 5.94503906 2.56585937 5.32757813 1.73046875 4.69140625 C0.87388672 3.85416016 0.87388672 3.85416016 0 3 C0 2.01 0 1.02 0 0 Z " fill="#0EA6B5" transform="translate(17,102)"/>
<path d="M0 0 C6.5704639 5.23409836 10.4325189 12.09545946 11.69921875 20.40234375 C12.14753264 29.32659219 9.8028423 37.77065934 3.890625 44.546875 C-3.74164161 51.44448493 -11.66877759 53.43636639 -21.8125 52.98046875 C-29.54246103 51.97635287 -36.20627 48.49628604 -41.30078125 42.52734375 C-46.05011351 34.86197071 -48.72734213 27.13567726 -46.76953125 18.06640625 C-44.04669706 8.21093033 -38.98272313 1.82287004 -30.17578125 -3.28515625 C-19.90392547 -7.52787929 -9.29920467 -5.95212251 0 0 Z " fill="#0EA6B5" transform="translate(107.30078125,62.47265625)"/>
<path d="M0 0 C3.3 0 6.6 0 10 0 C10.33 10.23 10.66 20.46 11 31 C13.64 29.02 16.28 27.04 19 25 C25.45933063 21.52189889 32.90591847 21.43399397 39.875 23.28515625 C46.94364576 25.66302789 51.96760855 29.75178949 56 36 C61.07330452 47.01205511 62.13903374 60.20825105 58.0390625 71.72265625 C54.19956959 80.13778545 49.37135613 85.83079849 40.75 89.3125 C31.77336888 90.95821571 24.07280301 90.54458155 16 86 C14.03981976 84.44156842 12.61281448 82.93537737 11 81 C10.67 83.31 10.34 85.62 10 88 C6.7 88 3.4 88 0 88 C0 58.96 0 29.92 0 0 Z M11.21728516 39.87475586 C8.45038528 44.7054545 9.19356701 50.60099561 9.3125 56 C9.29767578 57.258125 9.28285156 58.51625 9.26757812 59.8125 C9.16053512 67.24194765 9.16053512 67.24194765 12.28125 73.7265625 C18.19753566 78.67380137 23.97147164 80.69547976 31.71484375 80.3125 C37.51800179 79.51890574 41.11874843 76.51122242 44.67578125 72.0859375 C48.53713988 66.00344337 49.67318027 59.06839286 49 52 C47.37240064 45.10039403 44.77934581 39.44847131 39.375 34.6875 C29.63205415 29.81602708 18.81378235 31.93737465 11.21728516 39.87475586 Z " fill="#435464" transform="translate(911,319)"/>
<path d="M0 0 C8.81727596 8.98025703 9.73828125 17.74931552 9.73828125 30.08984375 C-7.09171875 30.08984375 -23.92171875 30.08984375 -41.26171875 30.08984375 C-37.61217796 40.12608093 -35.47497091 45.11266042 -26.26171875 49.52734375 C-18.0913206 51.0592934 -11.73164597 49.69809615 -4.26171875 46.08984375 C-3.24433145 45.10753877 -2.23945517 44.11162235 -1.26171875 43.08984375 C1.57648173 43.17853751 2.5431814 43.8947439 4.55078125 45.90234375 C5.73828125 48.08984375 5.73828125 48.08984375 5.59765625 50.03125 C3.62316431 54.76105568 -2.73398697 57.03496356 -7.24609375 58.91796875 C-16.4428512 61.66913551 -27.57265485 61.16690867 -36.26171875 57.08984375 C-44.74897673 51.95675012 -49.48442007 45.5397202 -52.26171875 36.08984375 C-54.10241183 25.43319959 -53.31977748 15.52642316 -47.51171875 6.21484375 C-41.75651811 -1.60996106 -35.69965086 -5.19337436 -26.44921875 -7.66015625 C-16.32425597 -8.45427098 -7.86965448 -6.64639212 0 0 Z M-36.82421875 8.95703125 C-40.02343787 13.62861826 -40.3951454 16.0238303 -41.26171875 22.08984375 C-28.06171875 22.08984375 -14.86171875 22.08984375 -1.26171875 22.08984375 C-2.27107448 14.01499792 -3.39054953 10.44347367 -9.32421875 5.27734375 C-18.03523536 -1.20958351 -30.03228284 0.84066784 -36.82421875 8.95703125 Z " fill="#435464" transform="translate(1600.26171875,348.91015625)"/>
<path d="M0 0 C8.32260895 9.63670509 9.375 16.63798913 9.375 29.75 C-7.455 29.75 -24.285 29.75 -41.625 29.75 C-37.61318335 40.81705462 -37.61318335 40.81705462 -29.625 47.75 C-21.41590093 50.97500321 -15.20204885 49.88098974 -7.17578125 46.91796875 C-4.68552915 45.77771549 -2.73931532 44.47809379 -0.625 42.75 C2.53615776 44.11983503 3.3677092 44.7390638 5.375 47.75 C5.28515625 49.7421875 5.28515625 49.7421875 4.375 51.75 C-4.84328961 59.26119894 -15.04762259 60.82855285 -26.625 59.75 C-36.16373602 57.67582173 -43.14708003 52.82580565 -48.5 44.6875 C-53.93359805 35.70116476 -53.98332204 24.5660112 -51.97265625 14.4765625 C-49.31665354 6.33756708 -44.63248539 0.32389572 -37.3125 -4.125 C-24.67382005 -10.4123703 -10.78765824 -9.24656421 0 0 Z M-36.4140625 7.7734375 C-40.02486034 12.78748379 -40.69253221 15.2227255 -41.625 21.75 C-28.095 21.75 -14.565 21.75 -0.625 21.75 C-2.77526093 11.43238691 -2.77526093 11.43238691 -9.6875 4.4375 C-18.31389116 -0.51808641 -29.64524493 0.11787527 -36.4140625 7.7734375 Z " fill="#435464" transform="translate(773.625,349.25)"/>
<path d="M0 0 C4.70601754 5.3551234 6.132513 10.83767809 6.11352539 17.88208008 C6.11344986 18.82267776 6.11337433 19.76327545 6.11329651 20.7323761 C6.10813522 21.7346373 6.10297394 22.7368985 6.09765625 23.76953125 C6.0962413 24.80567062 6.09482635 25.84181 6.09336853 26.90934753 C6.08778242 30.21042804 6.07523242 33.51144008 6.0625 36.8125 C6.05748321 39.05403548 6.05292061 41.29557202 6.04882812 43.53710938 C6.03781753 49.02476586 6.02056239 54.51237133 6 60 C2.37 60 -1.26 60 -5 60 C-5 58.35 -5 56.7 -5 55 C-5.49628906 55.33773437 -5.99257812 55.67546875 -6.50390625 56.0234375 C-14.34918943 61.17423063 -21.61801877 63.03069653 -31 62 C-38.19327744 60.19597169 -42.83649543 56.03460335 -47 50 C-49.08985698 43.73042905 -49.18082397 35.70365986 -46.5625 29.5625 C-43.64944554 24.63432184 -38.43437998 21.13108323 -33.04296875 19.35546875 C-23.2461613 17.65086172 -14.2288857 19.42559355 -6 25 C-5.51241261 17.54387167 -5.51241261 17.54387167 -7.625 10.5 C-11.6121531 6.30299674 -15.09068343 4.83750204 -20.8125 4.5625 C-27.34954139 4.76955561 -32.66198323 6.94710723 -37.5625 11.25 C-38.036875 11.8275 -38.51125 12.405 -39 13 C-42 12 -42 12 -43.75 9.6875 C-45 7 -45 7 -44.83984375 5.02734375 C-42.84596965 0.21422442 -36.49945775 -2.35737525 -31.9375 -4.3125 C-20.84535437 -6.90853408 -9.54823341 -7.00203784 0 0 Z M-34.9375 32.625 C-37.20899038 36.34198425 -37.80056396 38.46885696 -37.5546875 42.75 C-36.33448819 47.69954085 -32.87089215 50.86761791 -28.625 53.4375 C-21.81054851 54.89773961 -16.14106098 54.20801693 -10 51 C-6.83333333 49.16666667 -6.83333333 49.16666667 -5 46 C-4.03582556 40.75236207 -4.00594332 36.53918454 -6.9375 32 C-16.33972469 25.85977163 -26.11141685 24.73786187 -34.9375 32.625 Z " fill="#435464" transform="translate(1382,347)"/>
<path d="M0 0 C6.03472477 6.58013721 5.68288276 14.46166591 5.59765625 22.83203125 C5.59482635 23.88753677 5.59199646 24.9430423 5.58908081 26.03053284 C5.5779379 29.38245254 5.55284399 32.73409934 5.52734375 36.0859375 C5.51730635 38.36653258 5.50818183 40.64713188 5.5 42.92773438 C5.47801782 48.50140631 5.44352848 54.07487572 5.40234375 59.6484375 C1.77234375 59.6484375 -1.85765625 59.6484375 -5.59765625 59.6484375 C-5.92765625 58.3284375 -6.25765625 57.0084375 -6.59765625 55.6484375 C-7.2009375 55.99777344 -7.80421875 56.34710938 -8.42578125 56.70703125 C-9.62460937 57.38958984 -9.62460937 57.38958984 -10.84765625 58.0859375 C-11.6365625 58.53839844 -12.42546875 58.99085938 -13.23828125 59.45703125 C-19.56773505 62.65319584 -27.36898434 62.71362648 -34.171875 61 C-40.50954348 58.48214869 -44.80651972 54.41536381 -47.734375 48.2578125 C-49.65772708 42.4442415 -49.55148129 35.95177021 -47.03515625 30.3359375 C-43.95702665 25.05759555 -39.90325144 21.60547701 -34.28515625 19.2734375 C-25.42911342 17.77241329 -15.93112836 17.90772583 -8.30859375 23.25390625 C-7.74398437 23.71410156 -7.179375 24.17429687 -6.59765625 24.6484375 C-6.09066109 15.87365031 -6.09066109 15.87365031 -8.59765625 7.6484375 C-10.97884871 6.24585874 -10.97884871 6.24585874 -13.59765625 5.6484375 C-14.58765625 5.3184375 -15.57765625 4.9884375 -16.59765625 4.6484375 C-23.59372118 3.77571774 -29.41613961 5.35162863 -35.59765625 8.6484375 C-38.01837837 10.72980405 -38.01837837 10.72980405 -39.59765625 12.6484375 C-40.25765625 12.6484375 -40.91765625 12.6484375 -41.59765625 12.6484375 C-45.65374451 7.54935512 -45.65374451 7.54935512 -45.47265625 4.640625 C-43.37477034 -0.13581168 -37.11542407 -2.70109058 -32.53515625 -4.6640625 C-21.66089199 -7.20910307 -9.03205828 -7.64081214 0 0 Z M-36.09765625 33.4609375 C-37.89396001 37.278083 -38.19401471 39.47392826 -37.59765625 43.6484375 C-35.18826517 48.12302093 -32.61785674 51.50284421 -27.78515625 53.3359375 C-20.08639755 54.43576017 -13.24898967 52.90025467 -6.83203125 48.4140625 C-4.95803274 45.73353298 -5.12699569 43.4419437 -5.09765625 40.2109375 C-5.06671875 39.07785156 -5.03578125 37.94476563 -5.00390625 36.77734375 C-5.3241369 33.49328404 -5.3241369 33.49328404 -7.88671875 31.34765625 C-17.60639266 25.25535344 -27.99067033 24.34057834 -36.09765625 33.4609375 Z " fill="#435464" transform="translate(886.59765625,347.3515625)"/>
<path d="M0 0 C3.63 0 7.26 0 11 0 C16.08242958 9.52463062 19.8530276 19.51383831 23.75 29.5625 C24.77411579 32.1963182 25.79959941 34.8295791 26.82818604 37.46165466 C27.4642252 39.08985441 28.09757377 40.71910829 28.72796631 42.34950256 C29.91746441 45.94143238 29.91746441 45.94143238 32 49 C38.6 32.83 45.2 16.66 52 0 C55.96 0 59.92 0 64 0 C61.36940926 10.02081062 57.16090697 19.32682802 53.0625 28.8125 C51.52468085 32.38948508 49.99041006 35.96798449 48.45703125 39.546875 C48.07614349 40.43472183 47.69525574 41.32256866 47.30282593 42.23731995 C44.94498242 47.74692298 42.63855425 53.27439401 40.38671875 58.828125 C40.11453018 59.49732468 39.84234161 60.16652435 39.56190491 60.85600281 C38.31120507 63.93395911 37.07030191 67.01497472 35.84399414 70.1027832 C29.51436429 85.71338842 29.51436429 85.71338842 21.3984375 89.3515625 C16.69448922 90.62331399 11.82291998 90.47071699 7 90 C6.67 89.67 6.34 89.34 6 89 C6.08963062 87.30858344 6.24577676 85.62040398 6.4375 83.9375 C6.53933594 83.01839844 6.64117188 82.09929687 6.74609375 81.15234375 C6.82988281 80.44207031 6.91367188 79.73179687 7 79 C7.68707031 79.01160156 8.37414063 79.02320313 9.08203125 79.03515625 C10.43361328 79.04869141 10.43361328 79.04869141 11.8125 79.0625 C12.70582031 79.07410156 13.59914063 79.08570313 14.51953125 79.09765625 C17.13413791 79.11009967 17.13413791 79.11009967 20 78 C21.08885464 75.32186171 21.08885464 75.32186171 22 72 C22.59095459 70.82187744 23.18190918 69.64375488 23.79077148 68.42993164 C25.87155662 62.87212981 23.66819081 58.84994552 21.34765625 53.68359375 C20.9359166 52.70947037 20.52417694 51.73534698 20.09996033 50.73170471 C18.77915289 47.62221811 17.42200947 44.53023325 16.0625 41.4375 C15.18173634 39.38584067 14.30345597 37.3331134 13.42773438 35.27929688 C11.73607843 31.31864634 10.03462438 27.36246664 8.32470703 23.40966797 C6.29343262 18.69923676 4.29888491 13.97640432 2.37109375 9.22265625 C1.90501709 8.07676025 1.43894043 6.93086426 0.95874023 5.75024414 C0 3 0 3 0 0 Z " fill="#435464" transform="translate(1104,343)"/>
<path d="M0 0 C4.69715776 3.59782296 7.73091638 7.51306387 10 13 C10.85321815 19.52711887 11.36719146 26.7105182 7.9375 32.5625 C3.33651329 38.51138141 -1.42596185 42.67122138 -9 44 C-15.72035455 44.66101848 -21.12842764 43.41792342 -27 40 C-32.36746413 35.35412866 -35.54306264 30.64190336 -36.24609375 23.5 C-36.58662517 16.07022351 -35.41287951 9.948572 -30.45703125 4.21484375 C-21.82144833 -3.82790739 -10.53728139 -5.37268926 0 0 Z " fill="#0EA6B5" transform="translate(160,112)"/>
<path d="M0 0 C3.63 0 7.26 0 11 0 C11.01458252 1.39234863 11.02916504 2.78469727 11.04418945 4.21923828 C11.10226544 9.3967425 11.17949842 14.57381607 11.26245117 19.75097656 C11.29565666 21.98951211 11.32370216 24.22813049 11.34643555 26.46679688 C11.38006145 29.68916039 11.43238272 32.91076774 11.48828125 36.1328125 C11.49467117 37.12991241 11.5010611 38.12701233 11.50764465 39.15432739 C11.62003864 44.4947431 11.97086158 48.40097524 15 53 C19.34822734 56.16068626 24.88028322 55.58065944 30 55 C32.96245403 54.04690534 35.47764136 52.82014298 38 51 C38.68360596 50.53400391 39.36721191 50.06800781 40.0715332 49.58789062 C43.12363824 45.49214264 42.60330229 41.30744972 42.609375 36.328125 C42.62591125 35.29057068 42.64244751 34.25301636 42.65948486 33.184021 C42.70803985 29.8726209 42.72935302 26.56168029 42.75 23.25 C42.77815332 21.00388304 42.80807984 18.75778755 42.83984375 16.51171875 C42.91380124 11.00785031 42.96333037 5.50423809 43 0 C46.63 0 50.26 0 54 0 C54 21.12 54 42.24 54 64 C50.37 64 46.74 64 43 64 C42.505 61.03 42.505 61.03 42 58 C41.43152344 58.40992188 40.86304688 58.81984375 40.27734375 59.2421875 C32.06266455 64.97463475 25.01142603 66.90751056 15 66 C10.31603875 65.05686736 7.59548471 63.56959407 4.125 60.25 C-0.45888036 53.23935944 -0.27474163 46.516518 -0.1953125 38.37890625 C-0.1924826 37.27900864 -0.18965271 36.17911102 -0.18673706 35.04588318 C-0.1755898 31.55130897 -0.15049498 28.05699606 -0.125 24.5625 C-0.11496316 22.18555059 -0.10583854 19.80859714 -0.09765625 17.43164062 C-0.07566827 11.62099389 -0.04117582 5.81054117 0 0 Z " fill="#435464" transform="translate(550,343)"/>
<path d="M0 0 C3.3815397 2.90194633 4.75896768 6.13276825 5.625 10.39453125 C5.71008333 12.10474837 5.74276382 13.81794643 5.73852539 15.53027344 C5.73844986 16.55102966 5.73837433 17.57178589 5.73829651 18.62347412 C5.73313522 19.71839172 5.72797394 20.81330933 5.72265625 21.94140625 C5.7212413 23.06774475 5.71982635 24.19408325 5.71836853 25.35455322 C5.71277199 28.9512396 5.7002201 32.54786369 5.6875 36.14453125 C5.68248455 38.58333243 5.67792172 41.02213459 5.67382812 43.4609375 C5.66280369 49.43882608 5.6455414 55.4166681 5.625 61.39453125 C1.995 61.39453125 -1.635 61.39453125 -5.375 61.39453125 C-5.38958252 59.9969458 -5.40416504 58.59936035 -5.41918945 57.15942383 C-5.47720831 51.96889803 -5.55444163 46.7788044 -5.63745117 41.58862305 C-5.67068351 39.34325175 -5.69872069 37.09779725 -5.72143555 34.85229492 C-5.75501202 31.62252382 -5.80733073 28.39351398 -5.86328125 25.1640625 C-5.86967117 24.1618013 -5.8760611 23.1595401 -5.88264465 22.12690735 C-6.00405151 15.26143564 -6.00405151 15.26143564 -9.375 9.39453125 C-13.83801643 6.12890947 -17.55000288 6.03969779 -22.8359375 6.734375 C-26.30548063 7.63645621 -28.89566606 9.24861961 -31.78125 11.3359375 C-33.375 12.39453125 -33.375 12.39453125 -35.375 12.39453125 C-36.31289698 15.20822219 -36.52431982 17.03763625 -36.58032227 19.95776367 C-36.60026749 20.87849167 -36.62021271 21.79921967 -36.64076233 22.74784851 C-36.66583107 24.2339135 -36.66583107 24.2339135 -36.69140625 25.75 C-36.71218735 26.76677322 -36.73296844 27.78354645 -36.75437927 28.83113098 C-36.81980048 32.08136188 -36.87872537 35.33167402 -36.9375 38.58203125 C-36.98069227 40.78451363 -37.02430679 42.98698778 -37.06835938 45.18945312 C-37.17547432 50.59106242 -37.27676289 55.9927535 -37.375 61.39453125 C-41.005 61.39453125 -44.635 61.39453125 -48.375 61.39453125 C-48.375 40.27453125 -48.375 19.15453125 -48.375 -2.60546875 C-44.745 -2.60546875 -41.115 -2.60546875 -37.375 -2.60546875 C-37.045 -0.29546875 -36.715 2.01453125 -36.375 4.39453125 C-35.71757813 3.79705078 -35.71757813 3.79705078 -35.046875 3.1875 C-25.04285368 -5.16951781 -11.06292513 -7.73958674 0 0 Z " fill="#435464" transform="translate(1454.375,345.60546875)"/>
<path d="M0 0 C5.37207375 5.12788858 6.69352622 10.28388023 7.16998291 17.61575317 C7.22977905 20.46623853 7.22529266 23.30921818 7.1953125 26.16015625 C7.1924826 27.19063583 7.18965271 28.22111542 7.18673706 29.28282166 C7.17562863 32.54283743 7.15054163 35.80256862 7.125 39.0625 C7.11495813 41.2858033 7.1058344 43.50911094 7.09765625 45.73242188 C7.07571992 51.15505595 7.0412552 56.57747989 7 62 C3.37 62 -0.26 62 -4 62 C-4.01458252 60.67347412 -4.02916504 59.34694824 -4.04418945 57.98022461 C-4.10234122 53.0393636 -4.17957334 48.09895028 -4.26245117 43.15844727 C-4.29562117 41.02375578 -4.32367758 38.88897827 -4.34643555 36.75415039 C-4.38012717 33.67817669 -4.43245103 30.60298574 -4.48828125 27.52734375 C-4.49467117 26.57915268 -4.5010611 25.63096161 -4.50764465 24.65403748 C-4.63099247 19.04313947 -5.23597775 14.93045096 -8 10 C-12.68148835 7.00384746 -16.26817616 6.56949407 -21.72265625 7.41796875 C-26.78544136 8.7118881 -31.62910907 10.9140683 -35 15 C-35.47030995 17.19278255 -35.47030995 17.19278255 -35.43237305 19.6550293 C-35.45216721 20.59577805 -35.47196136 21.53652679 -35.49235535 22.50578308 C-35.50194023 24.02465874 -35.50194023 24.02465874 -35.51171875 25.57421875 C-35.52966995 26.61318802 -35.54762115 27.65215729 -35.56611633 28.72261047 C-35.62034043 32.04419891 -35.65415428 35.36564266 -35.6875 38.6875 C-35.72066234 40.93817123 -35.75515097 43.18882334 -35.79101562 45.43945312 C-35.87607408 50.95953122 -35.94282779 56.47956549 -36 62 C-39.63 62 -43.26 62 -47 62 C-47 40.88 -47 19.76 -47 -2 C-43.37 -2 -39.74 -2 -36 -2 C-35.67 -0.02 -35.34 1.96 -35 4 C-34.07380859 3.38511719 -34.07380859 3.38511719 -33.12890625 2.7578125 C-22.98318532 -3.6971515 -10.88504449 -7.34107651 0 0 Z " fill="#435464" transform="translate(699,345)"/>
<path d="M0 0 C5.81664568 6.88813304 5.79009651 13.1846132 5.66796875 21.87109375 C5.66372391 23.01538345 5.65947906 24.15967316 5.65510559 25.33863831 C5.63837804 28.97600311 5.60073565 32.61280402 5.5625 36.25 C5.54744556 38.72329926 5.53375848 41.19660725 5.52148438 43.66992188 C5.48849373 49.71766358 5.43675133 55.76498634 5.375 61.8125 C2.075 61.8125 -1.225 61.8125 -4.625 61.8125 C-4.63958252 60.52150391 -4.65416504 59.23050781 -4.66918945 57.90039062 C-4.7274131 53.08436176 -4.80464414 48.26878871 -4.88745117 43.453125 C-4.9205876 41.3737735 -4.94865424 39.29433448 -4.97143555 37.21484375 C-5.00518951 34.21576854 -5.0575156 31.21748713 -5.11328125 28.21875 C-5.11967117 27.29759399 -5.1260611 26.37643799 -5.13264465 25.42736816 C-5.26400626 19.58530197 -6.09638313 15.11303452 -8.625 9.8125 C-13.42448692 6.58019249 -17.4465333 6.38910911 -23.12109375 7.16015625 C-28.0819038 8.45259818 -32.03352427 11.22102427 -35.625 14.8125 C-35.95516506 16.91230044 -35.95516506 16.91230044 -35.94384766 19.35400391 C-35.96371735 20.29482819 -35.98358704 21.23565247 -36.00405884 22.20498657 C-36.02138565 23.73160416 -36.02138565 23.73160416 -36.0390625 25.2890625 C-36.05842865 26.32944672 -36.0777948 27.36983093 -36.0977478 28.44174194 C-36.15765727 31.7735772 -36.20397452 35.10544679 -36.25 38.4375 C-36.2881693 40.69272363 -36.3272204 42.94793252 -36.3671875 45.203125 C-36.46336819 50.739464 -36.54735716 56.27587124 -36.625 61.8125 C-40.255 61.8125 -43.885 61.8125 -47.625 61.8125 C-47.625 40.6925 -47.625 19.5725 -47.625 -2.1875 C-43.995 -2.1875 -40.365 -2.1875 -36.625 -2.1875 C-36.295 -0.2075 -35.965 1.7725 -35.625 3.8125 C-34.69880859 3.19761719 -34.69880859 3.19761719 -33.75390625 2.5703125 C-23.85018133 -3.73068753 -10.59722609 -7.98095331 0 0 Z " fill="#435464" transform="translate(1526.625,345.1875)"/>
<path d="M0 0 C-0.54723683 3.37462715 -1.0549 5.08235 -3 8 C-5.91044945 7.53432809 -7.56663536 6.64868608 -10.125 5.0625 C-15.77554076 1.75929309 -22.00559422 0.23999362 -28.4375 1.8125 C-29.613125 2.204375 -30.78875 2.59625 -32 3 C-32.99 3.33 -33.98 3.66 -35 4 C-35.165 5.27875 -35.33 6.5575 -35.5 7.875 C-35.5928125 8.59429687 -35.685625 9.31359375 -35.78125 10.0546875 C-36.0372485 12.00498344 -36.0372485 12.00498344 -36 14 C-32.79826423 15.42224473 -29.57398252 16.42480888 -26.19921875 17.33203125 C-25.30396484 17.57373047 -24.40871094 17.81542969 -23.48632812 18.06445312 C-21.63428608 18.5594511 -19.78011587 19.04656022 -17.92382812 19.52539062 C-11.10213092 21.38852083 -4.91555896 23.80229017 -0.0625 29.125 C2.7568075 34.10024853 2.66721015 39.45002466 2 45 C-0.16392673 50.63367131 -3.64105161 54.21334684 -9 57 C-17.79805936 60.66585807 -28.75231623 60.12700339 -37.66796875 57.06640625 C-41.76810766 55.19146835 -45.39584032 52.69006121 -49 50 C-48.23596585 46.52846619 -46.91813089 44.00229182 -45 41 C-42.84707106 42.07148084 -40.70099355 43.15381582 -38.5625 44.25390625 C-37.716875 44.68574219 -36.87125 45.11757813 -36 45.5625 C-35.154375 45.99691406 -34.30875 46.43132812 -33.4375 46.87890625 C-27.3551862 49.6763807 -20.94371146 50.03575033 -14.625 47.8125 C-11.66091924 45.76587281 -10.35049367 44.33651377 -9 41 C-8.75598722 38.38608611 -8.75598722 38.38608611 -10 36 C-15.01522196 31.91141548 -20.30209149 30.57324874 -26.5 29 C-34.90228607 26.86720214 -42.13730003 24.78720113 -47 17 C-47.98497316 11.21328266 -47.83308525 5.75873553 -45.3125 0.4375 C-33.00481313 -12.53546724 -13.07936896 -11.81362357 0 0 Z " fill="#435464" transform="translate(1255,350)"/>
<path d="M0 0 C2.625 2.8125 2.625 2.8125 4 5 C2.7251791 7.84383123 1.54862922 10.13754018 -1 12 C-3.91688221 11.90277059 -5.10553005 10.91390969 -7.375 9.0625 C-11.73207249 5.6390859 -15.41490237 4.77820701 -20.875 5.0625 C-27.16678648 5.91401998 -31.66299843 7.99772061 -35.60546875 13.0625 C-39.68694169 20.01357996 -40.12734665 27.11759223 -39 35 C-36.69976689 42.15419441 -33.33486574 46.52293386 -26.8125 50.25 C-21.22185861 51.7408377 -15.91709865 51.8016958 -10.5625 49.5625 C-9.716875 49.046875 -8.87125 48.53125 -8 48 C-7.01 47.67 -6.02 47.34 -5 47 C-4.67 46.01 -4.34 45.02 -4 44 C1.99725275 46.10714286 1.99725275 46.10714286 4 49 C3.45744152 53.27921124 1.30990496 55.01510636 -1.9296875 57.60546875 C-9.20584761 62.50658037 -17.45730304 62.90511908 -26 62 C-35.13173317 59.91711756 -41.66436202 55.81920087 -46.8125 48 C-52.17467119 38.64696697 -53.08150968 28.07544601 -50.77734375 17.59375 C-48.21517783 9.04461346 -43.23319631 3.14926035 -36 -2 C-24.50538431 -8.14037696 -10.71906032 -7.17918511 0 0 Z " fill="#435464" transform="translate(1320,347)"/>
<path d="M0 0 C3.63 0 7.26 0 11 0 C16.08242958 9.52463062 19.8530276 19.51383831 23.75 29.5625 C24.77411579 32.1963182 25.79959941 34.8295791 26.82818604 37.46165466 C27.4642252 39.08985441 28.09757377 40.71910829 28.72796631 42.34950256 C29.91746441 45.94143238 29.91746441 45.94143238 32 49 C38.6 32.83 45.2 16.66 52 0 C55.96 0 59.92 0 64 0 C62.09031823 5.87098355 60.03401854 11.6227684 57.70703125 17.33984375 C57.39730881 18.10567276 57.08758636 18.87150177 56.76847839 19.66053772 C56.11517544 21.27367985 55.46047878 22.8862582 54.80444336 24.49829102 C53.82822245 26.89883818 52.8581322 29.30179412 51.88867188 31.70507812 C47.48649661 42.57497156 42.82611401 53.31195039 38 64 C34.04 64 30.08 64 26 64 C20.7853421 54.13050831 16.67685842 43.81332481 12.4375 33.5 C11.67545634 31.6548132 10.9130889 29.80976007 10.15039062 27.96484375 C6.46117941 19.0299393 6.46117941 19.0299393 4.98312378 15.4050293 C4.28423338 13.69532404 3.57762539 11.9887647 2.86575317 10.28442383 C2.49892426 9.39456787 2.13209534 8.50471191 1.75415039 7.58789062 C1.2505172 6.37776306 1.2505172 6.37776306 0.73670959 5.14318848 C0 3 0 3 0 0 Z " fill="#435464" transform="translate(477,343)"/>
<path d="M0 0 C3.63 0 7.26 0 11 0 C11 5.61 11 11.22 11 17 C15.29 17 19.58 17 24 17 C24 20.3 24 23.6 24 27 C19.71 27 15.42 27 11 27 C11.11846533 32.60520034 11.24272849 38.21023125 11.37231445 43.81518555 C11.41556753 45.72107468 11.45724925 47.62700017 11.49731445 49.53295898 C11.55525071 52.27599021 11.6188774 55.01884013 11.68359375 57.76171875 C11.70030624 58.61086349 11.71701874 59.46000824 11.73423767 60.33488464 C11.8339619 64.33707142 12.02416551 68.09318932 13 72 C18.7974423 72.24428343 18.7974423 72.24428343 24 70 C26.03435531 73.72965139 27 75.66905042 27 80 C20.75416888 83.2586945 14.82406257 84.35254091 7.91015625 82.4140625 C5.26352373 81.19426147 3.38711402 79.76085815 2.05497742 77.14259338 C0.05877226 71.22058085 -0.40073155 65.93764591 -0.29296875 59.71484375 C-0.28872391 58.77314835 -0.28447906 57.83145294 -0.28010559 56.86122131 C-0.26346216 53.88634282 -0.22583772 50.91216986 -0.1875 47.9375 C-0.1724346 45.9069109 -0.15874946 43.87631107 -0.14648438 41.84570312 C-0.11360578 36.89686819 -0.0619244 31.94855325 0 27 C-3.3 27 -6.6 27 -10 27 C-10 23.7 -10 20.4 -10 17 C-6.7 17 -3.4 17 0 17 C0 11.39 0 5.78 0 0 Z " fill="#435464" transform="translate(1076,326)"/>
<path d="M0 0 C3.63 0 7.26 0 11 0 C11 29.04 11 58.08 11 88 C7.37 88 3.74 88 0 88 C0 58.96 0 29.92 0 0 Z " fill="#435464" transform="translate(1015,319)"/>
<path d="M0 0 C3.63 0 7.26 0 11 0 C11 29.04 11 58.08 11 88 C7.37 88 3.74 88 0 88 C0 58.96 0 29.92 0 0 Z " fill="#435464" transform="translate(622,319)"/>
<path d="M0 0 C5.17152554 2.89139702 8.02177909 6.4868693 9.70703125 12.1640625 C10.69856681 17.48323766 9.57646948 21.70705517 6.984375 26.40234375 C4.33605276 30.05492275 0.88861617 31.77020086 -3.29296875 33.1640625 C-8.98559713 33.72790379 -13.44241013 33.47126156 -18.29296875 30.1640625 C-22.63569556 25.75072224 -24.45931003 22.59888412 -24.60546875 16.4140625 C-24.55493294 11.13307041 -23.98705738 8.15767183 -20.29296875 4.1640625 C-14.45816115 -1.10149558 -7.55590467 -2.75462283 0 0 Z " fill="#0EA6B5" transform="translate(62.29296875,156.8359375)"/>
<path d="M0 0 C0 3.63 0 7.26 0 11 C-1.299375 11.061875 -2.59875 11.12375 -3.9375 11.1875 C-9.32418934 11.77560374 -13.64088941 13.81130599 -18 17 C-20.08382862 20.12574293 -20.25889959 20.90452555 -20.31884766 24.47143555 C-20.33871735 25.37214279 -20.35858704 26.27285004 -20.37905884 27.20085144 C-20.39638565 28.65410576 -20.39638565 28.65410576 -20.4140625 30.13671875 C-20.43342865 31.13129593 -20.4527948 32.12587311 -20.4727478 33.15058899 C-20.53256159 36.3294719 -20.57893639 39.50839098 -20.625 42.6875 C-20.6631781 44.84181273 -20.70222973 46.99611017 -20.7421875 49.15039062 C-20.83826472 54.43346966 -20.9222893 59.71662017 -21 65 C-24.63 65 -28.26 65 -32 65 C-32 43.88 -32 22.76 -32 1 C-28.37 1 -24.74 1 -21 1 C-20.67 3.31 -20.34 5.62 -20 8 C-19.48050781 7.59007812 -18.96101562 7.18015625 -18.42578125 6.7578125 C-12.12156104 1.88689929 -8.18042329 -0.32080091 0 0 Z " fill="#435464" transform="translate(830,342)"/>
<path d="M0 0 C0 3.63 0 7.26 0 11 C-1.98 11.12375 -1.98 11.12375 -4 11.25 C-10.1382935 11.92772957 -15.97610397 14.13881446 -20 19 C-20.46995058 21.15197401 -20.46995058 21.15197401 -20.43237305 23.56323242 C-20.45216721 24.48396042 -20.47196136 25.40468842 -20.49235535 26.35331726 C-20.50194023 27.83938225 -20.50194023 27.83938225 -20.51171875 29.35546875 C-20.52966995 30.37224197 -20.54762115 31.3890152 -20.56611633 32.43659973 C-20.6203354 35.68685752 -20.65415259 38.9369675 -20.6875 42.1875 C-20.72066279 44.38999458 -20.75515147 46.59246963 -20.79101562 48.79492188 C-20.87606874 54.19650812 -20.9428248 59.59804963 -21 65 C-24.63 65 -28.26 65 -32 65 C-32 43.88 -32 22.76 -32 1 C-28.37 1 -24.74 1 -21 1 C-20.67 3.31 -20.34 5.62 -20 8 C-19.48050781 7.59007812 -18.96101563 7.18015625 -18.42578125 6.7578125 C-12.12156104 1.88689929 -8.18042329 -0.32080091 0 0 Z " fill="#435464" transform="translate(1657,342)"/>
<path d="M0 0 C3.63 0 7.26 0 11 0 C11 21.12 11 42.24 11 64 C7.37 64 3.74 64 0 64 C0 42.88 0 21.76 0 0 Z " fill="#435464" transform="translate(1045,343)"/>
<path d="M0 0 C3.63 0 7.26 0 11 0 C11 21.12 11 42.24 11 64 C7.37 64 3.74 64 0 64 C0 42.88 0 21.76 0 0 Z " fill="#435464" transform="translate(986,343)"/>
<path d="M0 0 C6.4094547 3.95179887 11.45628348 10.28688288 13.5 17.5 C14.37187616 25.28149469 13.72746511 31.8076611 9.5 38.5 C4.43488147 44.49816668 -1.59119981 48.5885248 -9.5 49.5 C-17.19337399 49.61025536 -23.71956071 47.99197204 -29.4453125 42.703125 C-35.43590827 36.2362894 -38.15209662 30.21271288 -37.8359375 21.3359375 C-36.8202485 12.7616327 -33.32307313 7.61592989 -26.81640625 2.09375 C-19.57933902 -2.88554752 -8.09718175 -3.59521233 0 0 Z M-30.078125 12.234375 C-33.06115403 16.98755312 -33.94809673 21.64960694 -33.078125 27.18359375 C-31.50234163 33.0752727 -29.59176468 37.49091104 -24.3359375 40.90625 C-18.7554197 44.01613608 -13.87021965 45.83254595 -7.5 44.5 C-0.68193395 42.18308235 4.26646346 39.03736734 7.5 32.5 C10.12054596 25.9486351 9.77846783 20.76009297 7.25 14.3125 C3.61017334 8.46277858 -0.99155863 4.68899017 -7.5 2.5 C-17.0061098 0.85471177 -24.18935334 4.94094221 -30.078125 12.234375 Z " fill="#435464" transform="translate(1567.5,62.5)"/>
<path d="M0 0 C15 0 15 0 20 3 C22.39286884 5.39286884 22.32050616 6.09447094 22.375 9.375 C22.30946237 12.76657221 22.19088515 13.73912363 20.125 16.5625 C18 18 18 18 16 18 C16.5053125 18.78246094 17.010625 19.56492187 17.53125 20.37109375 C18.1809375 21.38300781 18.830625 22.39492187 19.5 23.4375 C20.1496875 24.44683594 20.799375 25.45617187 21.46875 26.49609375 C23 29 23 29 23 30 C20.22265625 30.30859375 20.22265625 30.30859375 17 30 C15.05859375 27.84765625 15.05859375 27.84765625 13.4375 25.0625 C11.89590183 22.28697353 11.89590183 22.28697353 10 20 C8.35 19.67 6.7 19.34 5 19 C5 22.63 5 26.26 5 30 C3.35 30 1.7 30 0 30 C0 20.1 0 10.2 0 0 Z M5 5 C5 7.97 5 10.94 5 14 C6.62463842 14.05395478 8.24978541 14.09277195 9.875 14.125 C10.77992187 14.14820312 11.68484375 14.17140625 12.6171875 14.1953125 C15.18806994 14.24324836 15.18806994 14.24324836 17 12 C17.33333333 9.5 17.33333333 9.5 17 7 C15.18806994 4.75675164 15.18806994 4.75675164 12.6171875 4.8046875 C11.71226563 4.82789062 10.80734375 4.85109375 9.875 4.875 C8.96492188 4.89304687 8.05484375 4.91109375 7.1171875 4.9296875 C6.41851563 4.95289062 5.71984375 4.97609375 5 5 Z " fill="#435464" transform="translate(1545,71)"/>
<path d="M0 0 C2.42194927 1.53390121 2.88729401 2.69408374 3.875 5.375 C4.03673305 8.77139406 2.96039694 10.28560423 1 13 C0 14 0 14 -3.3125 14.375 C-7 14 -7 14 -9.5 11.875 C-11 9 -11 9 -10.9375 5.875 C-8.95050095 -0.21846374 -6.28604728 -0.67350507 0 0 Z " fill="#435464" transform="translate(995,321)"/>
<path d="M0 0 C2.1595457 1.43969714 2.79150161 2.51884987 3.8125 4.875 C4.06431869 7.72894516 3.26998872 9.46002257 2 12 C0 14 0 14 -3.375 14.4375 C-7 14 -7 14 -9.5 11.875 C-11 9 -11 9 -10.9375 5.875 C-8.95050095 -0.21846374 -6.28604728 -0.67350507 0 0 Z " fill="#435464" transform="translate(1054,321)"/>
</svg>
