<?xml version="1.0" encoding="UTF-8"?>
<svg version="1.1" xmlns="http://www.w3.org/2000/svg" width="174" height="148">
<path d="M0 0 C57.42 0 114.84 0 174 0 C174 48.84 174 97.68 174 148 C116.58 148 59.16 148 0 148 C0 99.16 0 50.32 0 0 Z " fill="#FEFEFE" transform="translate(0,0)"/>
<path d="M0 0 C0.66 0 1.32 0 2 0 C2 21.78 2 43.56 2 66 C-55.42 66 -112.84 66 -172 66 C-172 44.55 -172 23.1 -172 1 C-169.525 1.99 -169.525 1.99 -167 3 C-165.33979528 3.36415544 -163.67160487 3.69238655 -162 4 C-149.31679892 6.7434491 -138.34556467 10.7551838 -127 17 C-124.72915709 18.2301435 -122.45542993 19.45452871 -120.17822266 20.67285156 C-118.72931248 21.45019235 -117.28462981 22.23548795 -115.84521484 23.03027344 C-101.27344562 30.92819364 -79.90290479 31.37268811 -64 27 C-61.83324888 26.12057597 -59.82852064 25.14142513 -57.7890625 24 C-56 23 -56 23 -52.5625 21.5625 C-49.84915922 20.37243826 -47.38064119 19.13785312 -44.8125 17.6875 C-43.20866184 16.79107867 -41.60447244 15.89528556 -40 15 C-39.11570313 14.49984375 -38.23140625 13.9996875 -37.3203125 13.484375 C-27.10054067 8.00059499 -16.45198609 5.51092788 -5 4 C-2.7124024 3.72359986 -2.7124024 3.72359986 -1 3 C-0.67 2.01 -0.34 1.02 0 0 Z " fill="#FDFEFE" transform="translate(172,82)"/>
<path d="M0 0 C0 0.99 0 1.98 0 3 C-4.28988212 2.52334643 -8.44058647 1.92532813 -12.65234375 0.98046875 C-17.86783447 -0.07301039 -22.87670888 -0.34489199 -28.1875 -0.3125 C-29.54790405 -0.30947876 -29.54790405 -0.30947876 -30.93579102 -0.30639648 C-38.94183405 -0.18844243 -46.23479453 1.12898295 -54 3 C-55.99714801 3.35001563 -57.99644623 3.68873901 -60 4 C-59.34 6.97 -58.68 9.94 -58 13 C-57.25234375 12.79503906 -56.5046875 12.59007813 -55.734375 12.37890625 C-54.74953125 12.10949219 -53.7646875 11.84007812 -52.75 11.5625 C-51.77546875 11.29566406 -50.8009375 11.02882813 -49.796875 10.75390625 C-48.87390625 10.50511719 -47.9509375 10.25632812 -47 10 C-46.09870361 9.73654785 -46.09870361 9.73654785 -45.17919922 9.46777344 C-32.85482519 6.82229947 -17.59881505 8.07136353 -5.375 10.8125 C-4.25810791 11.06036255 -4.25810791 11.06036255 -3.11865234 11.31323242 C-1.0859375 11.83203125 -1.0859375 11.83203125 2 13 C2.495 14.485 2.495 14.485 3 16 C4.32 15.67 5.64 15.34 7 15 C7.33 12.69 7.66 10.38 8 8 C7.01 7.67 6.02 7.34 5 7 C4.67 8.32 4.34 9.64 4 11 C4 9.02 4 7.04 4 5 C3.01 5 2.02 5 1 5 C1 4.34 1 3.68 1 3 C5.50411455 1.39138766 8.33263935 3.03132025 12.546875 4.82421875 C15.57859005 6.27731784 18.24252601 8.08175722 21 10 C22.28344155 10.64172078 23.57584962 11.26570854 24.875 11.875 C28.51416582 13.64986726 31.58663065 15.79708764 34.77734375 18.27734375 C37.44000257 20.34102132 40.15259603 22.32837507 42.875 24.3125 C43.80054688 24.98925781 44.72609375 25.66601562 45.6796875 26.36328125 C47.88125093 28.00317346 47.88125093 28.00317346 50 29 C50 29.66 50 30.32 50 31 C50.99 31.33 51.98 31.66 53 32 C57.21462981 36.09067011 57.81706468 39.32900523 58 45 C55.30541745 49.04187383 53.40567616 49.68075607 48.71484375 50.74609375 C46.84505859 51.08833984 46.84505859 51.08833984 44.9375 51.4375 C30.43678039 54.24454251 19.23815377 58.95580532 6.7578125 66.9453125 C3.96088434 68.62346939 1.03094348 69.8092722 -2 71 C-2.62648438 71.268125 -3.25296875 71.53625 -3.8984375 71.8125 C-18.40848324 77.77710378 -39.57014135 76.6931394 -54.0625 71.25 C-58.49911418 69.33754508 -62.68977189 67.04399875 -66.9140625 64.70703125 C-67.93242188 64.14371094 -68.95078125 63.58039063 -70 63 C-70.57459961 62.67950684 -71.14919922 62.35901367 -71.74121094 62.02880859 C-83.22654121 55.69637266 -94.93396045 51.7715131 -107.86328125 49.49609375 C-110 49 -110 49 -113 47 C-113.87888125 42.52641527 -113.7275535 38.30353335 -111.5 34.3125 C-110.675 33.549375 -109.85 32.78625 -109 32 C-108.48695312 31.49339844 -107.97390625 30.98679688 -107.4453125 30.46484375 C-102.23191589 25.55351089 -96.32308385 21.86645866 -90.28125 18.08203125 C-87.75627354 16.47987357 -85.33448822 14.8444715 -82.9375 13.0625 C-80.30313343 11.21283837 -77.97829508 10.13875989 -75 9 C-74.67 8.34 -74.34 7.68 -74 7 C-71.68245729 5.91848007 -69.37152077 4.95183487 -67 4 C-64.97900688 3.14621146 -62.95818464 2.29201838 -60.9375 1.4375 C-42.31179285 -6.41907293 -19.05630143 -7.0439134 0 0 Z " fill="#BAD7E3" transform="translate(115,37)"/>
<path d="M0 0 C0 0.99 0 1.98 0 3 C-4.28988212 2.52334643 -8.44058647 1.92532813 -12.65234375 0.98046875 C-17.86783447 -0.07301039 -22.87670888 -0.34489199 -28.1875 -0.3125 C-29.54790405 -0.30947876 -29.54790405 -0.30947876 -30.93579102 -0.30639648 C-38.94183405 -0.18844243 -46.23479453 1.12898295 -54 3 C-55.99714801 3.35001563 -57.99644623 3.68873901 -60 4 C-60 6.31 -60 8.62 -60 11 C-60.99 9.68 -61.98 8.36 -63 7 C-64.98 7.33 -66.96 7.66 -69 8 C-69.33 8.99 -69.66 9.98 -70 11 C-72.5625 12.1875 -72.5625 12.1875 -75 13 C-74.505 15.475 -74.505 15.475 -74 18 C-75.32 17.34 -76.64 16.68 -78 16 C-78 17.98 -78 19.96 -78 22 C-78.66 21.34 -79.32 20.68 -80 20 C-80 19.01 -80 18.02 -80 17 C-83.37088267 19.27415287 -83.37088267 19.27415287 -85 23 C-86.32 23 -87.64 23 -89 23 C-89.99 23.33 -90.98 23.66 -92 24 C-91.81171228 26.44480079 -91.81171228 26.44480079 -91 29 C-89.30136062 30.51617907 -89.30136062 30.51617907 -87 31 C-84.31006947 30.69621948 -84.31006947 30.69621948 -82 30 C-82 30.66 -82 31.32 -82 32 C-82.66 32 -83.32 32 -84 32 C-84.33 32.99 -84.66 33.98 -85 35 C-85.66 35.268125 -86.32 35.53625 -87 35.8125 C-87.99 36.4003125 -87.99 36.4003125 -89 37 C-89.81584568 40.05908413 -89.81584568 40.05908413 -90 43 C-89.34 43 -88.68 43 -88 43 C-88 43.99 -88 44.98 -88 46 C-86.72125 46.20625 -85.4425 46.4125 -84.125 46.625 C-78.84445743 47.67807807 -73.79291233 49.25220824 -68.6875 50.9375 C-67.91100098 51.19031738 -67.13450195 51.44313477 -66.33447266 51.70361328 C-62.26958912 53.07262461 -58.49570121 54.43927676 -55 57 C-55 57.66 -55 58.32 -55 59 C-56.6256807 58.69106068 -58.25052748 58.3777305 -59.875 58.0625 C-60.77992187 57.88847656 -61.68484375 57.71445313 -62.6171875 57.53515625 C-65 57 -65 57 -67 56 C-66.34 56.61875 -65.68 57.2375 -65 57.875 C-63 60 -63 60 -63 62 C-61.68 62 -60.36 62 -59 62 C-59 62.66 -59 63.32 -59 64 C-57.00531118 64.68239354 -55.00342734 65.34370484 -53 66 C-51.90945312 66.37898438 -51.90945312 66.37898438 -50.796875 66.765625 C-41.10701244 69.95390236 -31.13913492 70.3490782 -21 70 C-20.10410156 69.97164063 -19.20820312 69.94328125 -18.28515625 69.9140625 C-12.31815985 69.56257043 -7.53471105 68.32184059 -2.09375 65.83984375 C0 65 0 65 3 65 C2.34 63.68 1.68 62.36 1 61 C-4.98971505 61.39388149 -9.45804064 62.58169046 -15 65 C-17.7577534 65.51415741 -20.22320516 65.84336029 -23 66 C-23.90878906 66.05285156 -24.81757812 66.10570313 -25.75390625 66.16015625 C-34.32850137 66.41728231 -41.90116207 64.69961264 -50 62 C-50.33 61.01 -50.66 60.02 -51 59 C-43.43395742 59.89766607 -43.43395742 59.89766607 -40.796875 60.51953125 C-36.83841521 61.19954599 -32.94728665 61.22448028 -28.9375 61.25 C-28.15439453 61.270625 -27.37128906 61.29125 -26.56445312 61.3125 C-15.36003307 61.38507924 -5.18367407 57.53035902 5.125 53.5 C25.071044 45.76165002 25.071044 45.76165002 32 46 C32 43.36 32 40.72 32 38 C35.38706958 36.87097681 36.49925718 37.20573852 39.875 38.0625 C43.90030692 38.9511277 46.32291247 39.20625252 50 37 C49.67 36.34 49.34 35.68 49 35 C47.68 35 46.36 35 45 35 C45.33 33.68 45.66 32.36 46 31 C44.68 30.67 43.36 30.34 42 30 C41.67 30.99 41.34 31.98 41 33 C40 31 40 31 40 28 C39.01 27.67 38.02 27.34 37 27 C37 26.34 37 25.68 37 25 C35.35 25.33 33.7 25.66 32 26 C31.67 25.34 31.34 24.68 31 24 C31.66 24 32.32 24 33 24 C31.02 22.02 31.02 22.02 29 20 C28.67 20.66 28.34 21.32 28 22 C28 20.68 28 19.36 28 18 C27.319375 17.7525 26.63875 17.505 25.9375 17.25 C22.43134917 15.75802092 19.28379632 13.93164489 16 12 C15.34 14.64 14.68 17.28 14 20 C14.99 20 15.98 20 17 20 C17.33 20.99 17.66 21.98 18 23 C19.32 23 20.64 23 22 23 C22.33 23.99 22.66 24.98 23 26 C23.66 26.33 24.32 26.66 25 27 C25 27.66 25 28.32 25 29 C20.85701333 28.40165275 17.81805623 26.99335715 14.1875 24.9375 C13.21167969 24.38964844 12.23585938 23.84179688 11.23046875 23.27734375 C10.49441406 22.85582031 9.75835937 22.43429688 9 22 C9 21.34 9 20.68 9 20 C8.278125 19.87625 7.55625 19.7525 6.8125 19.625 C4.04278106 19.0095069 1.6029646 18.11555626 -1 17 C-2.32 18.32 -3.64 19.64 -5 21 C-5.495 20.01 -5.495 20.01 -6 19 C-6.66 18.67 -7.32 18.34 -8 18 C-7.34 18 -6.68 18 -6 18 C-6 17.34 -6 16.68 -6 16 C-7.32 16.33 -8.64 16.66 -10 17 C-9.505 15.515 -9.505 15.515 -9 14 C-10.32 13.67 -11.64 13.34 -13 13 C-13 13.99 -13 14.98 -13 16 C-13.66 16 -14.32 16 -15 16 C-15.495 14.515 -15.495 14.515 -16 13 C-16.66 12.67 -17.32 12.34 -18 12 C-18 12.66 -18 13.32 -18 14 C-18.66 14 -19.32 14 -20 14 C-20 13.34 -20 12.68 -20 12 C-20.66 12.33 -21.32 12.66 -22 13 C-22 13.66 -22 14.32 -22 15 C-23.65 15.33 -25.3 15.66 -27 16 C-27 16.66 -27 17.32 -27 18 C-24.90595652 18.55458686 -22.85241673 19.02317007 -20.7109375 19.359375 C-18.37012968 19.75081443 -16.2265474 20.17212523 -14 21 C-12.4375 23.625 -12.4375 23.625 -12 26 C-11.01 25.67 -10.02 25.34 -9 25 C-9.495 26.485 -9.495 26.485 -10 28 C-9.34 28.66 -8.68 29.32 -8 30 C-8.66 30 -9.32 30 -10 30 C-10 30.66 -10 31.32 -10 32 C-9.34 32.33 -8.68 32.66 -8 33 C-9.32 33.33 -10.64 33.66 -12 34 C-12.33 33.34 -12.66 32.68 -13 32 C-13.99 32 -14.98 32 -16 32 C-16.0825 32.70125 -16.165 33.4025 -16.25 34.125 C-17.35480176 38.36007343 -19.3076581 41.75894927 -22.875 44.375 C-27.36643685 45.69601084 -30.10144696 45.48383625 -34.25 43.25 C-36.80311845 41.1610849 -38.00545932 40.0830761 -39 37 C-39 36.01 -39 35.02 -39 34 C-29.5 34 -29.5 34 -26 35 C-26 34.01 -26 33.02 -26 32 C-27.98 32.33 -29.96 32.66 -32 33 C-31.67 31.68 -31.34 30.36 -31 29 C-31.391875 29.66 -31.78375 30.32 -32.1875 31 C-34 33 -34 33 -36.6875 33.25 C-37.450625 33.1675 -38.21375 33.085 -39 33 C-39 31.35 -39 29.7 -39 28 C-39.66 29.65 -40.32 31.3 -41 33 C-42.65 32.67 -44.3 32.34 -46 32 C-46 31.01 -46 30.02 -46 29 C-46.99 29 -47.98 29 -49 29 C-49.6875 27.25 -49.6875 27.25 -50 25 C-48.5625 22.75 -48.5625 22.75 -47 21 C-47.495 20.01 -47.495 20.01 -48 19 C-48.268125 19.78375 -48.53625 20.5675 -48.8125 21.375 C-50 24 -50 24 -53 26 C-52.505 26.99 -52.505 26.99 -52 28 C-53.32 28 -54.64 28 -56 28 C-56.33 29.65 -56.66 31.3 -57 33 C-56.01 33.495 -56.01 33.495 -55 34 C-55.99 34.33 -56.98 34.66 -58 35 C-59 34 -59 34 -59.09765625 31.49609375 C-59.08605469 30.48675781 -59.07445312 29.47742188 -59.0625 28.4375 C-59.05347656 27.42558594 -59.04445312 26.41367187 -59.03515625 25.37109375 C-59.02355469 24.58863281 -59.01195312 23.80617188 -59 23 C-58.34 23 -57.68 23 -57 23 C-57 21.35 -57 19.7 -57 18 C-57.928125 18.2475 -57.928125 18.2475 -58.875 18.5 C-61 19 -61 19 -63 19 C-63 18.34 -63 17.68 -63 17 C-62.360625 16.896875 -61.72125 16.79375 -61.0625 16.6875 C-60.381875 16.460625 -59.70125 16.23375 -59 16 C-58.505 14.515 -58.505 14.515 -58 13 C-55.63671875 12.0859375 -55.63671875 12.0859375 -52.6875 11.375 C-51.72199219 11.13523437 -50.75648437 10.89546875 -49.76171875 10.6484375 C-48.85035156 10.43445312 -47.93898438 10.22046875 -47 10 C-46.39986084 9.82654053 -45.79972168 9.65308105 -45.18139648 9.47436523 C-32.87726664 6.79871618 -17.58351035 8.07479555 -5.375 10.8125 C-4.25810791 11.06036255 -4.25810791 11.06036255 -3.11865234 11.31323242 C-1.0859375 11.83203125 -1.0859375 11.83203125 2 13 C2.495 14.485 2.495 14.485 3 16 C4.32 15.67 5.64 15.34 7 15 C7.33 12.69 7.66 10.38 8 8 C7.01 7.67 6.02 7.34 5 7 C4.67 8.32 4.34 9.64 4 11 C4 9.02 4 7.04 4 5 C3.01 5 2.02 5 1 5 C1 4.34 1 3.68 1 3 C5.50411455 1.39138766 8.33263935 3.03132025 12.546875 4.82421875 C15.57859005 6.27731784 18.24252601 8.08175722 21 10 C22.28344155 10.64172078 23.57584962 11.26570854 24.875 11.875 C28.51416582 13.64986726 31.58663065 15.79708764 34.77734375 18.27734375 C37.44000257 20.34102132 40.15259603 22.32837507 42.875 24.3125 C43.80054688 24.98925781 44.72609375 25.66601562 45.6796875 26.36328125 C47.88125093 28.00317346 47.88125093 28.00317346 50 29 C50 29.66 50 30.32 50 31 C50.99 31.33 51.98 31.66 53 32 C57.21462981 36.09067011 57.81706468 39.32900523 58 45 C55.30541745 49.04187383 53.40567616 49.68075607 48.71484375 50.74609375 C46.84505859 51.08833984 46.84505859 51.08833984 44.9375 51.4375 C30.43678039 54.24454251 19.23815377 58.95580532 6.7578125 66.9453125 C3.96088434 68.62346939 1.03094348 69.8092722 -2 71 C-2.62648438 71.268125 -3.25296875 71.53625 -3.8984375 71.8125 C-18.40848324 77.77710378 -39.57014135 76.6931394 -54.0625 71.25 C-58.49911418 69.33754508 -62.68977189 67.04399875 -66.9140625 64.70703125 C-67.93242188 64.14371094 -68.95078125 63.58039063 -70 63 C-70.57459961 62.67950684 -71.14919922 62.35901367 -71.74121094 62.02880859 C-83.22654121 55.69637266 -94.93396045 51.7715131 -107.86328125 49.49609375 C-110 49 -110 49 -113 47 C-113.87888125 42.52641527 -113.7275535 38.30353335 -111.5 34.3125 C-110.675 33.549375 -109.85 32.78625 -109 32 C-108.48695312 31.49339844 -107.97390625 30.98679688 -107.4453125 30.46484375 C-102.23191589 25.55351089 -96.32308385 21.86645866 -90.28125 18.08203125 C-87.75627354 16.47987357 -85.33448822 14.8444715 -82.9375 13.0625 C-80.30313343 11.21283837 -77.97829508 10.13875989 -75 9 C-74.67 8.34 -74.34 7.68 -74 7 C-71.68245729 5.91848007 -69.37152077 4.95183487 -67 4 C-64.97900688 3.14621146 -62.95818464 2.29201838 -60.9375 1.4375 C-42.31179285 -6.41907293 -19.05630143 -7.0439134 0 0 Z " fill="#8CBFD7" transform="translate(115,37)"/>
<path d="M0 0 C0.66 2.97 1.32 5.94 2 9 C1.01 9.33 0.02 9.66 -1 10 C-1.66 8.68 -2.32 7.36 -3 6 C-2.67 7.98 -2.34 9.96 -2 12 C-3.65 12 -5.3 12 -7 12 C-7 12.66 -7 13.32 -7 14 C-7.639375 14.103125 -8.27875 14.20625 -8.9375 14.3125 C-9.618125 14.539375 -10.29875 14.76625 -11 15 C-11.33 15.99 -11.66 16.98 -12 18 C-12.99 18 -13.98 18 -15 18 C-14.67 18.66 -14.34 19.32 -14 20 C-8.6913151 19.41825155 -8.6913151 19.41825155 -4 17 C-0.58900832 17 2.63088314 17.49145406 6 18 C6.02578125 18.66644531 6.0515625 19.33289063 6.078125 20.01953125 C6.52546315 27.28877624 8.27524423 33.27893577 11 40 C11.33 40.99 11.66 41.98 12 43 C12.66 43 13.32 43 14 43 C18.65909091 47.31818182 18.65909091 47.31818182 20 50 C18.02 50.495 18.02 50.495 16 51 C16 51.66 16 52.32 16 53 C18.99600003 53.68575112 21.99659034 54.34751797 25 55 C25.928125 55.20625 26.85625 55.4125 27.8125 55.625 C37.24649868 56.7348822 49.84007237 57.43995175 58 52 C60.26171875 51.5859375 60.26171875 51.5859375 62.6875 51.375 C63.49574219 51.30023438 64.30398437 51.22546875 65.13671875 51.1484375 C65.75160156 51.09945312 66.36648437 51.05046875 67 51 C67.99 53.475 67.99 53.475 69 56 C68.01 56 67.02 56 66 56 C65.505 56.99 65.505 56.99 65 58 C58.68950081 61.06719612 51.91082497 61.68362461 45 62 C44.23300781 62.04125 43.46601562 62.0825 42.67578125 62.125 C31.39366634 62.43147511 18.93131682 61.72103288 9 56 C8.01 55.505 8.01 55.505 7 55 C7 54.34 7 53.68 7 53 C6.05125 52.938125 5.1025 52.87625 4.125 52.8125 C3.09375 52.544375 2.0625 52.27625 1 52 C-0.375 49.4375 -0.375 49.4375 -1 47 C7.57142857 47.85714286 7.57142857 47.85714286 11 50 C11 49.34 11 48.68 11 48 C10.484375 47.896875 9.96875 47.79375 9.4375 47.6875 C7 47 7 47 4.0625 45.6875 C-0.97159308 43.50376099 -6.20428646 41.9434104 -11.4375 40.3125 C-12.45521484 39.99216797 -13.47292969 39.67183594 -14.52148438 39.34179688 C-17.01333172 38.55797635 -19.50616516 37.77746904 -22 37 C-22 36.01 -22 35.02 -22 34 C-22.66 34 -23.32 34 -24 34 C-24.3125 31.1875 -24.3125 31.1875 -24 28 C-21.5625 26.25 -21.5625 26.25 -19 25 C-18.67 24.34 -18.34 23.68 -18 23 C-17.34 23 -16.68 23 -16 23 C-16 22.34 -16 21.68 -16 21 C-18.31 21.66 -20.62 22.32 -23 23 C-26.96121884 18.67867036 -26.96121884 18.67867036 -27.125 15.8125 C-25.41920295 13.06427142 -23.02002101 12.94745757 -20 12 C-18.62913085 10.70529025 -17.28659163 9.37849103 -16 8 C-15.34 8 -14.68 8 -14 8 C-13.67 8.66 -13.34 9.32 -13 10 C-12.67 8.68 -12.34 7.36 -12 6 C-11.01 6 -10.02 6 -9 6 C-9 5.34 -9 4.68 -9 4 C-2.25 0 -2.25 0 0 0 Z " fill="#D6EEF7" transform="translate(49,46)"/>
<path d="M0 0 C0.74459473 0.1652417 1.48918945 0.3304834 2.25634766 0.50073242 C4.2890625 1.01953125 4.2890625 1.01953125 7.375 2.1875 C7.87 3.6725 7.87 3.6725 8.375 5.1875 C9.1175 4.94 9.86 4.6925 10.625 4.4375 C11.98625 4.31375 11.98625 4.31375 13.375 4.1875 C15.6875 6.125 15.6875 6.125 17.375 8.1875 C18.035 6.8675 18.695 5.5475 19.375 4.1875 C19.375 5.8375 19.375 7.4875 19.375 9.1875 C20.365 9.1875 21.355 9.1875 22.375 9.1875 C22.87 10.6725 22.87 10.6725 23.375 12.1875 C24.695 12.1875 26.015 12.1875 27.375 12.1875 C27.87 13.6725 27.87 13.6725 28.375 15.1875 C29.035 15.5175 29.695 15.8475 30.375 16.1875 C30.375 16.8475 30.375 17.5075 30.375 18.1875 C26.23201333 17.58915275 23.19305623 16.18085715 19.5625 14.125 C18.58667969 13.57714844 17.61085938 13.02929688 16.60546875 12.46484375 C15.86941406 12.04332031 15.13335937 11.62179688 14.375 11.1875 C14.375 10.5275 14.375 9.8675 14.375 9.1875 C13.2921875 9.001875 13.2921875 9.001875 12.1875 8.8125 C9.41778106 8.1970069 6.9779646 7.30305626 4.375 6.1875 C3.055 7.5075 1.735 8.8275 0.375 10.1875 C-0.12 9.1975 -0.12 9.1975 -0.625 8.1875 C-1.285 7.8575 -1.945 7.5275 -2.625 7.1875 C-1.965 7.1875 -1.305 7.1875 -0.625 7.1875 C-0.625 6.5275 -0.625 5.8675 -0.625 5.1875 C-1.945 5.5175 -3.265 5.8475 -4.625 6.1875 C-4.295 5.1975 -3.965 4.2075 -3.625 3.1875 C-4.945 2.8575 -6.265 2.5275 -7.625 2.1875 C-7.625 3.1775 -7.625 4.1675 -7.625 5.1875 C-8.285 5.1875 -8.945 5.1875 -9.625 5.1875 C-10.12 3.7025 -10.12 3.7025 -10.625 2.1875 C-11.285 1.8575 -11.945 1.5275 -12.625 1.1875 C-12.625 1.8475 -12.625 2.5075 -12.625 3.1875 C-13.285 3.1875 -13.945 3.1875 -14.625 3.1875 C-14.625 2.5275 -14.625 1.8675 -14.625 1.1875 C-15.285 1.5175 -15.945 1.8475 -16.625 2.1875 C-16.625 2.8475 -16.625 3.5075 -16.625 4.1875 C-18.275 4.5175 -19.925 4.8475 -21.625 5.1875 C-21.625 5.8475 -21.625 6.5075 -21.625 7.1875 C-19.53095652 7.74208686 -17.47741673 8.21067007 -15.3359375 8.546875 C-12.99512968 8.93831443 -10.8515474 9.35962523 -8.625 10.1875 C-7.0625 12.8125 -7.0625 12.8125 -6.625 15.1875 C-5.635 14.8575 -4.645 14.5275 -3.625 14.1875 C-4.12 15.6725 -4.12 15.6725 -4.625 17.1875 C-3.965 17.8475 -3.305 18.5075 -2.625 19.1875 C-3.285 19.1875 -3.945 19.1875 -4.625 19.1875 C-4.625 19.8475 -4.625 20.5075 -4.625 21.1875 C-3.965 21.5175 -3.305 21.8475 -2.625 22.1875 C-3.945 22.5175 -5.265 22.8475 -6.625 23.1875 C-7.12 22.1975 -7.12 22.1975 -7.625 21.1875 C-8.615 21.1875 -9.605 21.1875 -10.625 21.1875 C-10.7075 21.88875 -10.79 22.59 -10.875 23.3125 C-11.97980176 27.54757343 -13.9326581 30.94644927 -17.5 33.5625 C-21.99143685 34.88351084 -24.72644696 34.67133625 -28.875 32.4375 C-31.42811845 30.3485849 -32.63045932 29.2705761 -33.625 26.1875 C-33.625 25.1975 -33.625 24.2075 -33.625 23.1875 C-24.125 23.1875 -24.125 23.1875 -20.625 24.1875 C-20.625 23.1975 -20.625 22.2075 -20.625 21.1875 C-23.595 21.6825 -23.595 21.6825 -26.625 22.1875 C-26.295 20.8675 -25.965 19.5475 -25.625 18.1875 C-26.016875 18.8475 -26.40875 19.5075 -26.8125 20.1875 C-28.625 22.1875 -28.625 22.1875 -31.3125 22.4375 C-32.075625 22.355 -32.83875 22.2725 -33.625 22.1875 C-33.625 20.5375 -33.625 18.8875 -33.625 17.1875 C-34.615 19.6625 -34.615 19.6625 -35.625 22.1875 C-37.275 21.8575 -38.925 21.5275 -40.625 21.1875 C-40.625 20.1975 -40.625 19.2075 -40.625 18.1875 C-41.615 18.1875 -42.605 18.1875 -43.625 18.1875 C-44.3125 16.4375 -44.3125 16.4375 -44.625 14.1875 C-43.1875 11.9375 -43.1875 11.9375 -41.625 10.1875 C-41.955 9.5275 -42.285 8.8675 -42.625 8.1875 C-42.893125 8.97125 -43.16125 9.755 -43.4375 10.5625 C-44.625 13.1875 -44.625 13.1875 -47.625 15.1875 C-47.295 15.8475 -46.965 16.5075 -46.625 17.1875 C-47.945 17.1875 -49.265 17.1875 -50.625 17.1875 C-50.955 18.8375 -51.285 20.4875 -51.625 22.1875 C-50.965 22.5175 -50.305 22.8475 -49.625 23.1875 C-50.615 23.5175 -51.605 23.8475 -52.625 24.1875 C-53.625 23.1875 -53.625 23.1875 -53.72265625 20.68359375 C-53.71105469 19.67425781 -53.69945312 18.66492188 -53.6875 17.625 C-53.67847656 16.61308594 -53.66945312 15.60117187 -53.66015625 14.55859375 C-53.64855469 13.77613281 -53.63695312 12.99367188 -53.625 12.1875 C-52.965 12.1875 -52.305 12.1875 -51.625 12.1875 C-51.625 10.5375 -51.625 8.8875 -51.625 7.1875 C-52.24375 7.3525 -52.8625 7.5175 -53.5 7.6875 C-55.625 8.1875 -55.625 8.1875 -57.625 8.1875 C-57.625 7.5275 -57.625 6.8675 -57.625 6.1875 C-56.985625 6.084375 -56.34625 5.98125 -55.6875 5.875 C-55.006875 5.648125 -54.32625 5.42125 -53.625 5.1875 C-53.295 4.1975 -52.965 3.2075 -52.625 2.1875 C-50.26171875 1.2734375 -50.26171875 1.2734375 -47.3125 0.5625 C-46.34699219 0.32273438 -45.38148437 0.08296875 -44.38671875 -0.1640625 C-43.47535156 -0.37804688 -42.56398438 -0.59203125 -41.625 -0.8125 C-41.02486084 -0.98595947 -40.42472168 -1.15941895 -39.80639648 -1.33813477 C-27.50226664 -4.01378382 -12.20851035 -2.73770445 0 0 Z " fill="#86C0D2" transform="translate(109.625,47.8125)"/>
<path d="M0 0 C12.59550562 6.19101124 12.59550562 6.19101124 14 9 C16.01669827 10.13350534 16.01669827 10.13350534 18 11 C18 11.99 18 12.98 18 14 C18.66 13.67 19.32 13.34 20 13 C20.66 13.33 21.32 13.66 22 14 C22 14.66 22 15.32 22 16 C23.32 16.33 24.64 16.66 26 17 C26 18.32 26 19.64 26 21 C26.33 20.34 26.66 19.68 27 19 C28.32 19.33 29.64 19.66 31 20 C30.67 21.32 30.34 22.64 30 24 C31.32 23.67 32.64 23.34 34 23 C34.495 24.485 34.495 24.485 35 26 C31.98586901 28.25350283 30.48680753 29.02111592 26.66796875 28.85546875 C25.51941406 28.63503906 24.37085938 28.41460937 23.1875 28.1875 C22.02605469 27.97480469 20.86460937 27.76210937 19.66796875 27.54296875 C18.34732422 27.27419922 18.34732422 27.27419922 17 27 C17.185625 27.5775 17.37125 28.155 17.5625 28.75 C18.04023546 31.20692525 17.75729364 32.64397534 17 35 C16.07960937 35.23074219 15.15921875 35.46148437 14.2109375 35.69921875 C2.45890467 38.72698281 -8.89005622 42.50116761 -20.01171875 47.3984375 C-22 48 -22 48 -25 47 C-23.68 46.34 -22.36 45.68 -21 45 C-21 44.34 -21 43.68 -21 43 C-20.34 43 -19.68 43 -19 43 C-18.731875 42.443125 -18.46375 41.88625 -18.1875 41.3125 C-17 39 -17 39 -15.5 36.75 C-12.43512726 31.13106664 -11.77426583 25.06932614 -11.24609375 18.78515625 C-11 17 -11 17 -10 16 C-7.56985841 15.87256575 -5.18069765 15.81478879 -2.75 15.8125 C-1.74646484 15.79413086 -1.74646484 15.79413086 -0.72265625 15.77539062 C3.30686909 15.7635158 6.37575151 16.22299444 10 18 C10 17.34 10 16.68 10 16 C9.01 15.67 8.02 15.34 7 15 C6.67 14.34 6.34 13.68 6 13 C5.34 12.835 4.68 12.67 4 12.5 C3.34 12.335 2.68 12.17 2 12 C1.67 11.34 1.34 10.68 1 10 C0.01 9.67 -0.98 9.34 -2 9 C-1.34 6.03 -0.68 3.06 0 0 Z " fill="#D5EEF7" transform="translate(130,48)"/>
<path d="M0 0 C1.65 0 3.3 0 5 0 C5 0.66 5 1.32 5 2 C5.66 2 6.32 2 7 2 C7 1.34 7 0.68 7 0 C8.32 0.66 9.64 1.32 11 2 C10.67 2.66 10.34 3.32 10 4 C10.66 4 11.32 4 12 4 C12 3.01 12 2.02 12 1 C13.9375 1.375 13.9375 1.375 16 2 C16.495 2.99 16.495 2.99 17 4 C17.66 4 18.32 4 19 4 C19.495 5.98 19.495 5.98 20 8 C22.05270463 6.15811388 22.05270463 6.15811388 23 4 C27.75 4.75 27.75 4.75 30 7 C32.06874034 7.6425235 32.06874034 7.6425235 34 8 C34 8.66 34 9.32 34 10 C34.928125 10.28875 35.85625 10.5775 36.8125 10.875 C40 12 40 12 43 14 C42.67 14.66 42.34 15.32 42 16 C38.04 16 34.08 16 30 16 C29.81824219 17.28197266 29.81824219 17.28197266 29.6328125 18.58984375 C29.46523437 19.69457031 29.29765625 20.79929687 29.125 21.9375 C28.88136719 23.59072266 28.88136719 23.59072266 28.6328125 25.27734375 C28.42398438 26.17582031 28.21515625 27.07429688 28 28 C27.01 28.495 27.01 28.495 26 29 C26 27.68 26 26.36 26 25 C25.34 25 24.68 25 24 25 C24 24.34 24 23.68 24 23 C23.01 23.33 22.02 23.66 21 24 C20.9071875 25.175625 20.9071875 25.175625 20.8125 26.375 C20.544375 27.24125 20.27625 28.1075 20 29 C18.35448038 29.71727778 16.68577711 30.38325228 15 31 C14.690625 31.61875 14.38125 32.2375 14.0625 32.875 C12.49939614 36.00120772 9.8951571 37.15202738 7 39 C6.67 39.66 6.34 40.32 6 41 C5.34 41 4.68 41 4 41 C4 40.34 4 39.68 4 39 C3.01 39 2.02 39 1 39 C-0.2236068 41.0745356 -0.2236068 41.0745356 0 44 C-1.65 44 -3.3 44 -5 44 C-5.33 44.66 -5.66 45.32 -6 46 C-7.67062977 44.48124566 -8.88739142 43.23326063 -9.875 41.1875 C-12.0691811 36.92103674 -15.02969713 33.64686858 -19 31 C-19 30.34 -19 29.68 -19 29 C-19.99 29 -20.98 29 -22 29 C-21.505 27.515 -21.505 27.515 -21 26 C-20.96079185 24.00038436 -20.95556653 21.99950636 -21 20 C-19.35 19.34 -17.7 18.68 -16 18 C-16.66 17.34 -17.32 16.68 -18 16 C-16.68 16 -15.36 16 -14 16 C-14 17.65 -14 19.3 -14 21 C-11.55519921 20.81171228 -11.55519921 20.81171228 -9 20 C-7.63979849 18.03241727 -7.63979849 18.03241727 -7 16 C-6.34 16.33 -5.68 16.66 -5 17 C-5.66 18.32 -6.32 19.64 -7 21 C-5.02 20.67 -3.04 20.34 -1 20 C-1 20.99 -1 21.98 -1 23 C-2.98 22.67 -4.96 22.34 -7 22 C-7.33 22.99 -7.66 23.98 -8 25 C-8.33 24.34 -8.66 23.68 -9 23 C-11.52733235 22.34444881 -11.52733235 22.34444881 -14 22 C-13.43224464 23.29858939 -12.84508337 24.58870441 -12.25 25.875 C-11.92515625 26.59429687 -11.6003125 27.31359375 -11.265625 28.0546875 C-9.75145145 30.38202832 -8.57779776 31.03887081 -6 32 C-2.71601217 32.34936041 -0.48694205 32.17390787 2.625 31.0625 C5.67104366 28.41725156 6.59045369 25.71935307 7.91015625 21.9609375 C9 20 9 20 11.12109375 19.2265625 C11.74113281 19.15179688 12.36117187 19.07703125 13 19 C13.495 19.99 13.495 19.99 14 21 C14 19.68 14 18.36 14 17 C14.495 15.515 14.495 15.515 15 14 C14.34 14 13.68 14 13 14 C12.34 12.35 11.68 10.7 11 9 C9.453125 9.0928125 9.453125 9.0928125 7.875 9.1875 C3.76531027 8.98864405 1.51117504 8.05532197 -2 6 C-2 5.34 -2 4.68 -2 4 C-0.35 3.67 1.3 3.34 3 3 C3 2.34 3 1.68 3 1 C2.01 0.67 1.02 0.34 0 0 Z " fill="#ACD0DD" transform="translate(90,49)"/>
<path d="M0 0 C0 0.99 0 1.98 0 3 C-4.28988212 2.52334643 -8.44058647 1.92532813 -12.65234375 0.98046875 C-17.86783447 -0.07301039 -22.87670888 -0.34489199 -28.1875 -0.3125 C-29.54790405 -0.30947876 -29.54790405 -0.30947876 -30.93579102 -0.30639648 C-38.94183405 -0.18844243 -46.23479453 1.12898295 -54 3 C-55.99714801 3.35001563 -57.99644623 3.68873901 -60 4 C-60 6.31 -60 8.62 -60 11 C-60.99 9.68 -61.98 8.36 -63 7 C-64.98 7.33 -66.96 7.66 -69 8 C-69.33 8.99 -69.66 9.98 -70 11 C-72.5625 12.1875 -72.5625 12.1875 -75 13 C-74.505 15.475 -74.505 15.475 -74 18 C-75.32 17.34 -76.64 16.68 -78 16 C-78 17.98 -78 19.96 -78 22 C-78.66 21.34 -79.32 20.68 -80 20 C-80 19.01 -80 18.02 -80 17 C-83.37088267 19.27415287 -83.37088267 19.27415287 -85 23 C-86.32 23 -87.64 23 -89 23 C-89.99 23.33 -90.98 23.66 -92 24 C-91.81171228 26.44480079 -91.81171228 26.44480079 -91 29 C-89.30136062 30.51617907 -89.30136062 30.51617907 -87 31 C-84.31006947 30.69621948 -84.31006947 30.69621948 -82 30 C-82 30.66 -82 31.32 -82 32 C-82.66 32 -83.32 32 -84 32 C-84.33 32.99 -84.66 33.98 -85 35 C-85.66 35.268125 -86.32 35.53625 -87 35.8125 C-87.99 36.4003125 -87.99 36.4003125 -89 37 C-89.81584568 40.05908413 -89.81584568 40.05908413 -90 43 C-89.34 43 -88.68 43 -88 43 C-88 43.99 -88 44.98 -88 46 C-92.29 45.67 -96.58 45.34 -101 45 C-101 44.01 -101 43.02 -101 42 C-101.66 43.32 -102.32 44.64 -103 46 C-101.35 46.33 -99.7 46.66 -98 47 C-98 47.33 -98 47.66 -98 48 C-99.98 48 -101.96 48 -104 48 C-104 47.34 -104 46.68 -104 46 C-104.99 46 -105.98 46 -107 46 C-107.33 45.34 -107.66 44.68 -108 44 C-110.02463255 43.34786708 -110.02463255 43.34786708 -112 43 C-111.67 42.34 -111.34 41.68 -111 41 C-110.34 41 -109.68 41 -109 41 C-109 39.35 -109 37.7 -109 36 C-108.360625 35.814375 -107.72125 35.62875 -107.0625 35.4375 C-106.381875 34.963125 -105.70125 34.48875 -105 34 C-104.979375 32.948125 -104.95875 31.89625 -104.9375 30.8125 C-103.82059248 26.27040942 -103.08522487 25.99918682 -99.25 23.625 C-98.26257813 23.05652344 -97.27515625 22.48804687 -96.2578125 21.90234375 C-92.73022952 19.84247215 -89.44449253 17.56115668 -86.125 15.1875 C-82.46228017 12.57319998 -79.16598049 10.64996718 -75 9 C-74.67 8.34 -74.34 7.68 -74 7 C-71.68245729 5.91848007 -69.37152077 4.95183487 -67 4 C-64.97900688 3.14621146 -62.95818464 2.29201838 -60.9375 1.4375 C-42.31179285 -6.41907293 -19.05630143 -7.0439134 0 0 Z " fill="#A3BCC6" transform="translate(115,37)"/>
<path d="M0 0 C0.66 1.32 1.32 2.64 2 4 C1.01 4.99 0.02 5.98 -1 7 C-1.66 6.67 -2.32 6.34 -3 6 C-2.67 7.98 -2.34 9.96 -2 12 C-3.32 12.33 -4.64 12.66 -6 13 C-4.35 13.33 -2.7 13.66 -1 14 C-1 14.66 -1 15.32 -1 16 C-0.01 16 0.98 16 2 16 C2 16.66 2 17.32 2 18 C2.99 17.67 3.98 17.34 5 17 C4.34 16.67 3.68 16.34 3 16 C3 14.68 3 13.36 3 12 C3.66 12 4.32 12 5 12 C5 12.99 5 13.98 5 15 C5.53625 14.95359375 6.0725 14.9071875 6.625 14.859375 C19.91385123 14.24738843 40.083477 19.24947425 51 27 C51 27.66 51 28.32 51 29 C49.3743193 28.69106068 47.74947252 28.3777305 46.125 28.0625 C44.76761719 27.80146484 44.76761719 27.80146484 43.3828125 27.53515625 C41 27 41 27 39 26 C39.66 26.61875 40.32 27.2375 41 27.875 C43 30 43 30 43 32 C44.32 32 45.64 32 47 32 C47 32.66 47 33.32 47 34 C48.99468882 34.68239354 50.99657266 35.34370484 53 36 C54.09054688 36.37898438 54.09054688 36.37898438 55.203125 36.765625 C70.56866698 41.82138397 89.88432787 41.93430091 105 36 C105.33 36.66 105.66 37.32 106 38 C104.33762104 38.80063104 102.66981875 39.59000368 101 40.375 C100.071875 40.81585938 99.14375 41.25671875 98.1875 41.7109375 C91.46201186 44.43080403 85.42884249 45.340124 78.25 45.25 C77.46431641 45.24323242 76.67863281 45.23646484 75.86914062 45.22949219 C61.96047147 44.98458114 51.16536669 41.38962863 39.0859375 34.70703125 C38.06757812 34.14371094 37.04921875 33.58039063 36 33 C35.42540039 32.67950684 34.85080078 32.35901367 34.25878906 32.02880859 C22.77345879 25.69637266 11.06603955 21.7715131 -1.86328125 19.49609375 C-4 19 -4 19 -7 17 C-7.93290024 12.25145371 -7.69074302 8.1432988 -5.1875 4 C-3 2 -3 2 0 0 Z " fill="#7DA6BB" transform="translate(9,67)"/>
<path d="M0 0 C2.71347241 0.55831159 4.14349963 0.48970397 6.71484375 -0.44140625 C5.72484375 -1.10140625 4.73484375 -1.76140625 3.71484375 -2.44140625 C7.0894709 -1.89416942 8.79719375 -1.38650625 11.71484375 0.55859375 C10.39484375 0.88859375 9.07484375 1.21859375 7.71484375 1.55859375 C7.71484375 2.21859375 7.71484375 2.87859375 7.71484375 3.55859375 C8.70484375 3.55859375 9.69484375 3.55859375 10.71484375 3.55859375 C11.20984375 4.54859375 11.20984375 4.54859375 11.71484375 5.55859375 C13.7394763 6.21072667 13.7394763 6.21072667 15.71484375 6.55859375 C15.38484375 8.86859375 15.05484375 11.17859375 14.71484375 13.55859375 C13.06484375 13.88859375 11.41484375 14.21859375 9.71484375 14.55859375 C9.21984375 13.56859375 9.21984375 13.56859375 8.71484375 12.55859375 C-1.68833986 8.95040095 -12.27594186 8.16470616 -23.22265625 8.12109375 C-24.34655762 8.11126465 -25.47045898 8.10143555 -26.62841797 8.09130859 C-33.96591869 8.16601533 -40.30747572 9.35415682 -47.28515625 11.55859375 C-48.61589208 11.90215019 -49.94839003 12.23930553 -51.28515625 12.55859375 C-53.71460785 8.91441635 -53.446952 6.84618103 -53.28515625 2.55859375 C-36.34759959 -3.65184369 -17.46111664 -4.76212272 0 0 Z " fill="#D7EFF6" transform="translate(108.28515625,38.44140625)"/>
<path d="M0 0 C3.21407596 1.23363798 5.88260845 2.85071888 8.7265625 4.76953125 C10.65139787 6.01638817 12.58003178 6.98759084 14.65625 7.95703125 C18.24965412 9.70837967 21.28316724 11.84793511 24.43359375 14.296875 C27.09625257 16.36055257 29.80884603 18.34790632 32.53125 20.33203125 C33.45679688 21.00878906 34.38234375 21.68554688 35.3359375 22.3828125 C37.53750093 24.02270471 37.53750093 24.02270471 39.65625 25.01953125 C39.65625 25.67953125 39.65625 26.33953125 39.65625 27.01953125 C40.64625 27.34953125 41.63625 27.67953125 42.65625 28.01953125 C46.87087981 32.11020136 47.47331468 35.34853648 47.65625 41.01953125 C45.65670871 44.01884319 44.91829729 44.83333224 41.65625 46.01953125 C38.65625 45.01953125 38.65625 45.01953125 37.65625 44.01953125 C35.65666636 43.97872342 33.65579746 43.97698769 31.65625 44.01953125 C31.65625 43.02953125 31.65625 42.03953125 31.65625 41.01953125 C28.35625 41.01953125 25.05625 41.01953125 21.65625 41.01953125 C21.65625 38.70953125 21.65625 36.39953125 21.65625 34.01953125 C25.04331958 32.89050806 26.15550718 33.22526977 29.53125 34.08203125 C33.55655692 34.97065895 35.97916247 35.22578377 39.65625 33.01953125 C39.32625 32.35953125 38.99625 31.69953125 38.65625 31.01953125 C37.33625 31.01953125 36.01625 31.01953125 34.65625 31.01953125 C34.98625 29.69953125 35.31625 28.37953125 35.65625 27.01953125 C34.33625 26.68953125 33.01625 26.35953125 31.65625 26.01953125 C31.16125 27.50453125 31.16125 27.50453125 30.65625 29.01953125 C29.65625 27.01953125 29.65625 27.01953125 29.65625 24.01953125 C28.66625 23.68953125 27.67625 23.35953125 26.65625 23.01953125 C26.65625 22.35953125 26.65625 21.69953125 26.65625 21.01953125 C25.00625 21.34953125 23.35625 21.67953125 21.65625 22.01953125 C21.32625 21.35953125 20.99625 20.69953125 20.65625 20.01953125 C21.31625 20.01953125 21.97625 20.01953125 22.65625 20.01953125 C21.33625 18.69953125 20.01625 17.37953125 18.65625 16.01953125 C18.32625 16.67953125 17.99625 17.33953125 17.65625 18.01953125 C17.65625 16.69953125 17.65625 15.37953125 17.65625 14.01953125 C16.975625 13.77203125 16.295 13.52453125 15.59375 13.26953125 C12.08759917 11.77755217 8.94004632 9.95117614 5.65625 8.01953125 C5.32625 9.00953125 4.99625 9.99953125 4.65625 11.01953125 C3.99625 11.01953125 3.33625 11.01953125 2.65625 11.01953125 C2.32625 12.33953125 1.99625 13.65953125 1.65625 15.01953125 C0.33625 14.35953125 -0.98375 13.69953125 -2.34375 13.01953125 C-2.34375 10.04953125 -2.34375 7.07953125 -2.34375 4.01953125 C-3.33375 3.68953125 -4.32375 3.35953125 -5.34375 3.01953125 C-5.67375 4.33953125 -6.00375 5.65953125 -6.34375 7.01953125 C-6.34375 5.03953125 -6.34375 3.05953125 -6.34375 1.01953125 C-7.33375 1.01953125 -8.32375 1.01953125 -9.34375 1.01953125 C-9.34375 0.35953125 -9.34375 -0.30046875 -9.34375 -0.98046875 C-6.08293148 -2.61087801 -3.35172144 -1.05463649 0 0 Z " fill="#A4BFC8" transform="translate(125.34375,40.98046875)"/>
<path d="M0 0 C1.32 0 2.64 0 4 0 C4 1.65 4 3.3 4 5 C6.44480079 4.81171228 6.44480079 4.81171228 9 4 C10.36020151 2.03241727 10.36020151 2.03241727 11 0 C11.66 0.33 12.32 0.66 13 1 C12.34 2.32 11.68 3.64 11 5 C12.98 4.67 14.96 4.34 17 4 C17 4.99 17 5.98 17 7 C14.03 6.505 14.03 6.505 11 6 C10.67 6.99 10.34 7.98 10 9 C9.67 8.34 9.34 7.68 9 7 C6.47266765 6.34444881 6.47266765 6.34444881 4 6 C4.56775536 7.29858939 5.15491663 8.58870441 5.75 9.875 C6.07484375 10.59429687 6.3996875 11.31359375 6.734375 12.0546875 C8.24854855 14.38202832 9.42220224 15.03887081 12 16 C15.40833571 16.36258891 17.51765687 16.20191108 20.6875 14.875 C23.23041025 13.07706421 23.23041025 13.07706421 24.5625 9.875 C26 7 26 7 28 6.0625 C30 6 30 6 33 7 C33.66666667 8.33333333 34.33333333 9.66666667 35 11 C34.01 11 33.02 11 32 11 C32.268125 11.721875 32.53625 12.44375 32.8125 13.1875 C33 16 33 16 30.8125 18.5625 C29.4203125 19.7690625 29.4203125 19.7690625 28 21 C27.278125 21.763125 26.55625 22.52625 25.8125 23.3125 C24 25 24 25 22 25 C22 24.34 22 23.68 22 23 C21.01 23 20.02 23 19 23 C17.7763932 25.0745356 17.7763932 25.0745356 18 28 C16.35 28 14.7 28 13 28 C12.67 28.66 12.34 29.32 12 30 C10.32937023 28.48124566 9.11260858 27.23326063 8.125 25.1875 C5.9308189 20.92103674 2.97030287 17.64686858 -1 15 C-1 14.34 -1 13.68 -1 13 C-1.99 13 -2.98 13 -4 13 C-3.67 12.01 -3.34 11.02 -3 10 C-2.96079185 8.00038436 -2.95556653 5.99950636 -3 4 C-1.35 3.34 0.3 2.68 2 2 C1.34 1.34 0.68 0.68 0 0 Z " fill="#ADCBD9" transform="translate(72,65)"/>
<path d="M0 0 C3.3 0.99 6.6 1.98 10 3 C9.67 4.32 9.34 5.64 9 7 C11.99600003 7.68575112 14.99659034 8.34751797 18 9 C18.928125 9.20625 19.85625 9.4125 20.8125 9.625 C30.24649868 10.7348822 42.84007237 11.43995175 51 6 C53.26171875 5.5859375 53.26171875 5.5859375 55.6875 5.375 C56.49574219 5.30023438 57.30398437 5.22546875 58.13671875 5.1484375 C59.05904297 5.07496094 59.05904297 5.07496094 60 5 C60.99 7.475 60.99 7.475 62 10 C61.01 10 60.02 10 59 10 C58.67 10.66 58.34 11.32 58 12 C51.68950081 15.06719612 44.91082497 15.68362461 38 16 C37.23300781 16.04125 36.46601562 16.0825 35.67578125 16.125 C24.39366634 16.43147511 11.93131682 15.72103288 2 10 C1.34 9.67 0.68 9.34 0 9 C0 8.34 0 7.68 0 7 C-0.94875 6.938125 -1.8975 6.87625 -2.875 6.8125 C-4.421875 6.4103125 -4.421875 6.4103125 -6 6 C-7.375 3.4375 -7.375 3.4375 -8 1 C0.57142857 1.85714286 0.57142857 1.85714286 4 4 C4 3.34 4 2.68 4 2 C2.68 1.67 1.36 1.34 0 1 C0 0.67 0 0.34 0 0 Z " fill="#9EDAF5" transform="translate(56,92)"/>
<path d="M0 0 C12.59550562 6.19101124 12.59550562 6.19101124 14 9 C16.01669827 10.13350534 16.01669827 10.13350534 18 11 C18 11.99 18 12.98 18 14 C18.66 13.67 19.32 13.34 20 13 C20.66 13.33 21.32 13.66 22 14 C22 14.66 22 15.32 22 16 C23.32 16.33 24.64 16.66 26 17 C26 18.32 26 19.64 26 21 C26.33 20.34 26.66 19.68 27 19 C28.32 19.33 29.64 19.66 31 20 C30.67 21.32 30.34 22.64 30 24 C31.32 23.67 32.64 23.34 34 23 C34.495 24.485 34.495 24.485 35 26 C32.58541994 28.09263605 30.84795186 29.05004306 27.6171875 28.859375 C22.96196761 27.99781192 18.7694447 27.01555576 15 24 C15 23.34 15 22.68 15 22 C14.401875 21.896875 13.80375 21.79375 13.1875 21.6875 C10.71756736 20.91123545 9.67748765 19.92911079 8 18 C8.66 18 9.32 18 10 18 C10 17.34 10 16.68 10 16 C9.01 15.67 8.02 15.34 7 15 C6.67 14.34 6.34 13.68 6 13 C5.34 12.835 4.68 12.67 4 12.5 C3.34 12.335 2.68 12.17 2 12 C1.67 11.34 1.34 10.68 1 10 C0.01 9.67 -0.98 9.34 -2 9 C-1.34 6.03 -0.68 3.06 0 0 Z " fill="#A9C6D3" transform="translate(130,48)"/>
<path d="M0 0 C0 0.66 0 1.32 0 2 C0.61875 2.0825 1.2375 2.165 1.875 2.25 C4 3 4 3 5.25 4.8125 C6 7 6 7 6 11 C4.02 11 2.04 11 0 11 C1.64079242 12.64079242 3.77768765 12.60112342 6 13 C5.10732939 16.92775068 4.33981284 18.70652528 1.25 21.375 C-2.34334126 23.17167063 -4.05397137 23.65767144 -8 23 C-11.8271837 20.93920878 -14.63072705 19.24474613 -16 15 C-16 14.01 -16 13.02 -16 12 C-6.5 12 -6.5 12 -3 13 C-3 12.01 -3 11.02 -3 10 C-4.98 10.33 -6.96 10.66 -9 11 C-8.67 9.68 -8.34 8.36 -8 7 C-8.391875 7.66 -8.78375 8.32 -9.1875 9 C-11 11 -11 11 -13.6875 11.25 C-14.450625 11.1675 -15.21375 11.085 -16 11 C-15.81037036 6.92296284 -15.21550125 5.24782644 -12.5 2.125 C-8.63399746 -0.82636291 -4.65553289 -0.46555329 0 0 Z " fill="#4A616D" transform="translate(92,59)"/>
<path d="M0 0 C1.60597325 0.45196245 3.20972508 0.91182327 4.8125 1.375 C6.15248047 1.75785156 6.15248047 1.75785156 7.51953125 2.1484375 C10 3 10 3 13 5 C13.33 4.34 13.66 3.68 14 3 C15.37562854 4.28965176 16.70766393 5.62689293 18 7 C18 7.66 18 8.32 18 9 C19.32 9 20.64 9 22 9 C22 9.66 22 10.32 22 11 C23.99468882 11.68239354 25.99657266 12.34370484 28 13 C28.72703125 13.25265625 29.4540625 13.5053125 30.203125 13.765625 C45.56866698 18.82138397 64.88432787 18.93430091 80 13 C80.495 13.99 80.495 13.99 81 15 C79.33762104 15.80063104 77.66981875 16.59000368 76 17.375 C75.071875 17.81585938 74.14375 18.25671875 73.1875 18.7109375 C66.46201186 21.43080403 60.42884249 22.340124 53.25 22.25 C52.46431641 22.24323242 51.67863281 22.23646484 50.86914062 22.22949219 C35.6046873 21.96070779 24.14917629 17.41003305 11 10 C8.9390694 8.87212753 6.87661599 7.74703228 4.8125 6.625 C3.20833333 5.75 1.60416667 4.875 0 4 C0 2.68 0 1.36 0 0 Z " fill="#84B4C8" transform="translate(34,90)"/>
<path d="M0 0 C2.64 0 5.28 0 8 0 C7.67 0.99 7.34 1.98 7 3 C7.66 3 8.32 3 9 3 C10.33638584 10.16788767 10.33638584 10.16788767 8.8125 13.9375 C6.7706082 16.26103205 6.00869513 16.64603587 3 17 C2.0925 17.185625 1.185 17.37125 0.25 17.5625 C-0.4925 17.706875 -1.235 17.85125 -2 18 C-2 18.66 -2 19.32 -2 20 C-2.66 20 -3.32 20 -4 20 C-4 19.34 -4 18.68 -4 18 C-4.66 18 -5.32 18 -6 18 C-5.67 18.99 -5.34 19.98 -5 21 C-5.66 21 -6.32 21 -7 21 C-6.67 22.32 -6.34 23.64 -6 25 C-7.093125 24.979375 -8.18625 24.95875 -9.3125 24.9375 C-12.94384191 24.81455548 -12.94384191 24.81455548 -16 26 C-19 25 -19 25 -20 24 C-20 24.33 -20 24.66 -20 25 C-23.04386724 25.08226668 -25.07175348 24.97608217 -28 24 C-28.99 24 -29.98 24 -31 24 C-29.35 21.69 -27.7 19.38 -26 17 C-23 19 -23 19 -22 20 C-20.68 20 -19.36 20 -18 20 C-17.67 19.01 -17.34 18.02 -17 17 C-15.68 17 -14.36 17 -13 17 C-13 17.66 -13 18.32 -13 19 C-12.34 19 -11.68 19 -11 19 C-10.67 18.01 -10.34 17.02 -10 16 C-9.01 15.360625 -8.02 14.72125 -7 14.0625 C-3.88835952 12.33756036 -3.88835952 12.33756036 -3.125 9.75 C-3.08375 9.1725 -3.0425 8.595 -3 8 C-1.02 7.67 0.96 7.34 3 7 C3 5.68 3 4.36 3 3 C2.34 2.67 1.68 2.34 1 2 C0.67 1.34 0.34 0.68 0 0 Z " fill="#C1DCE9" transform="translate(107,71)"/>
<path d="M0 0 C10.60387579 -0.37646896 20.8421116 -0.4937329 31.25 1.8125 C32.01747559 1.97782227 32.78495117 2.14314453 33.57568359 2.31347656 C35.703125 2.83203125 35.703125 2.83203125 39 4 C39.495 5.485 39.495 5.485 40 7 C40.7425 6.7525 41.485 6.505 42.25 6.25 C43.61125 6.12625 43.61125 6.12625 45 6 C47.3125 7.9375 47.3125 7.9375 49 10 C49.66 8.68 50.32 7.36 51 6 C51 7.65 51 9.3 51 11 C51.99 11 52.98 11 54 11 C54.495 12.485 54.495 12.485 55 14 C56.32 14 57.64 14 59 14 C59.495 15.485 59.495 15.485 60 17 C60.66 17.33 61.32 17.66 62 18 C62 18.66 62 19.32 62 20 C57.85701333 19.40165275 54.81805623 17.99335715 51.1875 15.9375 C50.21167969 15.38964844 49.23585937 14.84179688 48.23046875 14.27734375 C47.49441406 13.85582031 46.75835937 13.43429688 46 13 C46 12.34 46 11.68 46 11 C44.9171875 10.814375 44.9171875 10.814375 43.8125 10.625 C41.04278106 10.0095069 38.6029646 9.11555626 36 8 C34.68 9.32 33.36 10.64 32 12 C31.67 11.34 31.34 10.68 31 10 C30.34 9.67 29.68 9.34 29 9 C29.66 9 30.32 9 31 9 C31 8.34 31 7.68 31 7 C29.68 7.33 28.36 7.66 27 8 C27.33 7.01 27.66 6.02 28 5 C26.68 4.67 25.36 4.34 24 4 C24 4.99 24 5.98 24 7 C23.34 7 22.68 7 22 7 C21.67 6.01 21.34 5.02 21 4 C20.34 3.67 19.68 3.34 19 3 C19 3.66 19 4.32 19 5 C18.34 5 17.68 5 17 5 C17 4.34 17 3.68 17 3 C16.01 3.495 16.01 3.495 15 4 C15 4.66 15 5.32 15 6 C13.865625 6.268125 12.73125 6.53625 11.5625 6.8125 C9.7990625 7.4003125 9.7990625 7.4003125 8 8 C7.67 8.99 7.34 9.98 7 11 C5.35 10.67 3.7 10.34 2 10 C2 7.33333333 2 4.66666667 2 2 C1.34 1.34 0.68 0.68 0 0 Z " fill="#7FB6C8" transform="translate(78,46)"/>
<path d="M0 0 C3.21407596 1.23363798 5.88260845 2.85071888 8.7265625 4.76953125 C10.65139787 6.01638817 12.58003178 6.98759084 14.65625 7.95703125 C19.09029848 10.11787359 22.80072647 12.96813926 26.65625 16.01953125 C28.32263341 17.31156332 29.98929918 18.60323132 31.65625 19.89453125 C32.99012971 20.93549818 34.32366527 21.97690708 35.65625 23.01953125 C33.828125 24.07421875 33.828125 24.07421875 31.65625 25.01953125 C28.90625 24.14453125 28.90625 24.14453125 26.65625 23.01953125 C26.65625 22.35953125 26.65625 21.69953125 26.65625 21.01953125 C25.00625 21.34953125 23.35625 21.67953125 21.65625 22.01953125 C21.32625 21.35953125 20.99625 20.69953125 20.65625 20.01953125 C21.31625 20.01953125 21.97625 20.01953125 22.65625 20.01953125 C21.33625 18.69953125 20.01625 17.37953125 18.65625 16.01953125 C18.32625 16.67953125 17.99625 17.33953125 17.65625 18.01953125 C17.65625 16.69953125 17.65625 15.37953125 17.65625 14.01953125 C16.975625 13.77203125 16.295 13.52453125 15.59375 13.26953125 C12.08759917 11.77755217 8.94004632 9.95117614 5.65625 8.01953125 C5.32625 9.00953125 4.99625 9.99953125 4.65625 11.01953125 C3.99625 11.01953125 3.33625 11.01953125 2.65625 11.01953125 C2.32625 12.33953125 1.99625 13.65953125 1.65625 15.01953125 C0.33625 14.35953125 -0.98375 13.69953125 -2.34375 13.01953125 C-2.34375 10.04953125 -2.34375 7.07953125 -2.34375 4.01953125 C-3.33375 3.68953125 -4.32375 3.35953125 -5.34375 3.01953125 C-5.67375 4.33953125 -6.00375 5.65953125 -6.34375 7.01953125 C-6.34375 5.03953125 -6.34375 3.05953125 -6.34375 1.01953125 C-7.33375 1.01953125 -8.32375 1.01953125 -9.34375 1.01953125 C-9.34375 0.35953125 -9.34375 -0.30046875 -9.34375 -0.98046875 C-6.08293148 -2.61087801 -3.35172144 -1.05463649 0 0 Z " fill="#9EB6BE" transform="translate(125.34375,40.98046875)"/>
<path d="M0 0 C0 0.99 0 1.98 0 3 C-4.28988212 2.52334643 -8.44058647 1.92532813 -12.65234375 0.98046875 C-17.86783447 -0.07301039 -22.87670888 -0.34489199 -28.1875 -0.3125 C-29.54790405 -0.30947876 -29.54790405 -0.30947876 -30.93579102 -0.30639648 C-38.94183405 -0.18844243 -46.23479453 1.12898295 -54 3 C-55.99714801 3.35001563 -57.99644623 3.68873901 -60 4 C-60 6.31 -60 8.62 -60 11 C-60.99 9.68 -61.98 8.36 -63 7 C-64.98 7.33 -66.96 7.66 -69 8 C-69 8.66 -69 9.32 -69 10 C-70.32 9.34 -71.64 8.68 -73 8 C-72.01 8 -71.02 8 -70 8 C-70 7.34 -70 6.68 -70 6 C-50.2913537 -6.66984405 -21.76232299 -8.04415899 0 0 Z " fill="#9BB3BB" transform="translate(115,37)"/>
<path d="M0 0 C1.65 0 3.3 0 5 0 C5 0.66 5 1.32 5 2 C5.66 2 6.32 2 7 2 C7 1.34 7 0.68 7 0 C8.32 0.66 9.64 1.32 11 2 C10.67 2.66 10.34 3.32 10 4 C10.66 4 11.32 4 12 4 C12 3.01 12 2.02 12 1 C13.9375 1.375 13.9375 1.375 16 2 C16.33 2.66 16.66 3.32 17 4 C17.66 4 18.32 4 19 4 C19.33 5.32 19.66 6.64 20 8 C22.05270463 6.15811388 22.05270463 6.15811388 23 4 C23.99 4.33 24.98 4.66 26 5 C28.2012966 9.75016635 28.1765235 13.88081854 28 19 C27.01 19 26.02 19 25 19 C25 18.01 25 17.02 25 16 C24.360625 15.855625 23.72125 15.71125 23.0625 15.5625 C21 15 21 15 20 14 C19.01 14.495 19.01 14.495 18 15 C15.5 14.875 15.5 14.875 13 14 C11.6875 11.4375 11.6875 11.4375 11 9 C9.453125 9.0928125 9.453125 9.0928125 7.875 9.1875 C3.76531027 8.98864405 1.51117504 8.05532197 -2 6 C-2 5.34 -2 4.68 -2 4 C-0.35 3.67 1.3 3.34 3 3 C3 2.34 3 1.68 3 1 C2.01 0.67 1.02 0.34 0 0 Z " fill="#96C9DB" transform="translate(90,49)"/>
<path d="M0 0 C6.67150398 0.953072 12.92868732 2.83792635 19.3125 4.9375 C20.47736938 5.31660522 20.47736938 5.31660522 21.66577148 5.70336914 C25.73042023 7.07288836 29.50432696 8.43929739 33 11 C33 11.66 33 12.32 33 13 C31.39536551 12.68991116 29.79130769 12.37683713 28.1875 12.0625 C27.29417969 11.88847656 26.40085938 11.71445313 25.48046875 11.53515625 C23 11 23 11 20 10 C20 10.66 20 11.32 20 12 C15.31479085 10.78184562 11.29456388 9.30440013 7 7 C6.67 8.32 6.34 9.64 6 11 C4 9 4 9 3 7 C-0.78872565 5.10563718 -4.88088642 3.95056467 -9 3 C-9 2.34 -9 1.68 -9 1 C-7.700625 1.020625 -6.40125 1.04125 -5.0625 1.0625 C-3.70834367 1.08399454 -2.35243917 1.07148199 -1 1 C-0.67 0.67 -0.34 0.34 0 0 Z " fill="#86B1C5" transform="translate(27,83)"/>
<path d="M0 0 C1.85625 0.0309375 1.85625 0.0309375 3.75 0.0625 C3.75 0.7225 3.75 1.3825 3.75 2.0625 C2.33461283 2.40122513 0.91762037 2.73324624 -0.5 3.0625 C-1.28890625 3.248125 -2.0778125 3.43375 -2.890625 3.625 C-5.25 4.0625 -5.25 4.0625 -9.25 4.0625 C-9.25 4.7225 -9.25 5.3825 -9.25 6.0625 C-9.93707031 6.25585938 -10.62414062 6.44921875 -11.33203125 6.6484375 C-12.23308594 6.90882812 -13.13414062 7.16921875 -14.0625 7.4375 C-14.95582031 7.69273438 -15.84914062 7.94796875 -16.76953125 8.2109375 C-19.45467896 9.01516661 -19.45467896 9.01516661 -22.25 11.0625 C-23.57303717 11.4346042 -24.90737935 11.76880173 -26.25 12.0625 C-27.24 12.3925 -28.23 12.7225 -29.25 13.0625 C-29.37375 12.134375 -29.37375 12.134375 -29.5 11.1875 C-30.05115872 8.87668662 -30.05115872 8.87668662 -32.296875 7.9296875 C-32.94140625 7.64351563 -33.5859375 7.35734375 -34.25 7.0625 C-33.26257813 6.71316406 -32.27515625 6.36382812 -31.2578125 6.00390625 C-29.96351786 5.54433786 -28.66924833 5.08469877 -27.375 4.625 C-26.72402344 4.39490234 -26.07304688 4.16480469 -25.40234375 3.92773438 C-21.76565978 2.64089884 -21.76565978 2.64089884 -18.25 1.0625 C-15.74718002 0.99273498 -13.26063572 1.06523109 -10.7578125 1.125 C-7.06661481 1.03300753 -3.73497006 -0.0622495 0 0 Z " fill="#90BBCF" transform="translate(152.25,83.9375)"/>
<path d="M0 0 C0 0.99 0 1.98 0 3 C3.465 2.505 3.465 2.505 7 2 C7 2.99 7 3.98 7 5 C6.37657715 5.1451001 5.7531543 5.2902002 5.11083984 5.43969727 C-7.38191322 8.39426674 -18.86753543 11.47872959 -30 18 C-30.33 17.34 -30.66 16.68 -31 16 C-30 13 -30 13 -27.671875 11.61328125 C-26.70765625 11.18402344 -25.7434375 10.75476563 -24.75 10.3125 C-23.31914062 9.65701172 -23.31914062 9.65701172 -21.859375 8.98828125 C-19.02126367 8.00734933 -16.9733844 7.79924229 -14 8 C-14 7.34 -14 6.68 -14 6 C-12.58461283 5.66127487 -11.16762037 5.32925376 -9.75 5 C-8.56664062 4.7215625 -8.56664062 4.7215625 -7.359375 4.4375 C-5 4 -5 4 -1 4 C-1 3.34 -1 2.68 -1 2 C-1.97582031 2.16757813 -2.95164063 2.33515625 -3.95703125 2.5078125 C-5.22933594 2.71148437 -6.50164062 2.91515625 -7.8125 3.125 C-9.07707031 3.33382812 -10.34164062 3.54265625 -11.64453125 3.7578125 C-15 4 -15 4 -18 2 C-11.84629161 0.176679 -6.40353322 -0.2361959 0 0 Z " fill="#80A3B2" transform="translate(157,82)"/>
<path d="M0 0 C2.12038635 2.61514317 4.13091744 5.19637616 6 8 C4.02 8.66 2.04 9.32 0 10 C0.66 10.33 1.32 10.66 2 11 C0.68 11.33 -0.64 11.66 -2 12 C-2 11.34 -2 10.68 -2 10 C-2.99 9.67 -3.98 9.34 -5 9 C-5.33 9.66 -5.66 10.32 -6 11 C-5.01 11.33 -4.02 11.66 -3 12 C-3 12.66 -3 13.32 -3 14 C-4.98 14.66 -6.96 15.32 -9 16 C-9 17.32 -9 18.64 -9 20 C-9.99 20 -10.98 20 -12 20 C-12.33 19.34 -12.66 18.68 -13 18 C-15.02463255 17.34786708 -15.02463255 17.34786708 -17 17 C-16.67 16.34 -16.34 15.68 -16 15 C-15.34 15 -14.68 15 -14 15 C-14 13.35 -14 11.7 -14 10 C-13.360625 9.7525 -12.72125 9.505 -12.0625 9.25 C-9.81258459 8.18437567 -9.81258459 8.18437567 -9.25 5.875 C-9.1675 5.25625 -9.085 4.6375 -9 4 C-8.34 4 -7.68 4 -7 4 C-5.76901371 3.37615174 -4.56223782 2.70354833 -3.375 2 C-2.26125 1.34 -1.1475 0.68 0 0 Z " fill="#B7D9E2" transform="translate(20,63)"/>
<path d="M0 0 C1.32 0 2.64 0 4 0 C4 1.65 4 3.3 4 5 C6.44480079 4.81171228 6.44480079 4.81171228 9 4 C10.36020151 2.03241727 10.36020151 2.03241727 11 0 C11.66 0.33 12.32 0.66 13 1 C12.34 2.32 11.68 3.64 11 5 C12.98 4.67 14.96 4.34 17 4 C17 4.99 17 5.98 17 7 C14.03 6.505 14.03 6.505 11 6 C10.67 6.99 10.34 7.98 10 9 C9.67 8.34 9.34 7.68 9 7 C6.47266765 6.34444881 6.47266765 6.34444881 4 6 C6.77167076 12.481679 6.77167076 12.481679 12 17 C11.67 17.66 11.34 18.32 11 19 C8.67843403 19.40729228 6.3431213 19.74438677 4 20 C3.5978125 19.0409375 3.5978125 19.0409375 3.1875 18.0625 C2.11332248 15.66868314 2.11332248 15.66868314 -1 15 C-1 14.34 -1 13.68 -1 13 C-1.99 13 -2.98 13 -4 13 C-3.67 12.01 -3.34 11.02 -3 10 C-2.96079185 8.00038436 -2.95556653 5.99950636 -3 4 C-1.35 3.34 0.3 2.68 2 2 C1.34 1.34 0.68 0.68 0 0 Z " fill="#A7C5D1" transform="translate(72,65)"/>
<path d="M0 0 C0.495 1.485 0.495 1.485 1 3 C0.34 3.99 -0.32 4.98 -1 6 C-1.66 6 -2.32 6 -3 6 C-3 6.66 -3 7.32 -3 8 C-5.89169987 12.0232346 -8.87968398 12.66677298 -13.47485352 13.61181641 C-17.57543244 14.24218675 -21.60979084 14.25023044 -25.75 14.1875 C-26.57371094 14.18685547 -27.39742187 14.18621094 -28.24609375 14.18554688 C-32.28800752 14.15625764 -36.05753817 14.00164172 -40 13 C-39.67 11.68 -39.34 10.36 -39 9 C-39 9.66 -39 10.32 -39 11 C-35.06924356 10.42547254 -35.06924356 10.42547254 -32 8 C-31.34 8.33 -30.68 8.66 -30 9 C-30 9.66 -30 10.32 -30 11 C-28.02 10.34 -26.04 9.68 -24 9 C-24 9.66 -24 10.32 -24 11 C-18.06 10.505 -18.06 10.505 -12 10 C-11.67 8.02 -11.34 6.04 -11 4 C-10.34 4 -9.68 4 -9 4 C-9 4.66 -9 5.32 -9 6 C-8.34 6 -7.68 6 -7 6 C-7 5.34 -7 4.68 -7 4 C-4.93057424 1.4132178 -3.24271506 0.5590888 0 0 Z " fill="#A1CCE0" transform="translate(112,85)"/>
<path d="M0 0 C2.62187494 1.04874998 3.79371361 1.64931313 5.25 4.125 C5.4975 4.74375 5.745 5.3625 6 6 C5.01 6.495 5.01 6.495 4 7 C3.31527335 8.88764903 3.31527335 8.88764903 2.875 11.0625 C2.62363281 12.16271484 2.62363281 12.16271484 2.3671875 13.28515625 C2.24601562 13.85105469 2.12484375 14.41695312 2 15 C1.01 15 0.02 15 -1 15 C-1.6875 13.25 -1.6875 13.25 -2 11 C-0.5625 8.75 -0.5625 8.75 1 7 C0.67 6.34 0.34 5.68 0 5 C-0.268125 5.78375 -0.53625 6.5675 -0.8125 7.375 C-2 10 -2 10 -5 12 C-4.67 12.66 -4.34 13.32 -4 14 C-5.32 14 -6.64 14 -8 14 C-8.33 15.65 -8.66 17.3 -9 19 C-8.34 19.33 -7.68 19.66 -7 20 C-7.99 20.33 -8.98 20.66 -10 21 C-11 20 -11 20 -11.09765625 17.49609375 C-11.08605469 16.48675781 -11.07445312 15.47742188 -11.0625 14.4375 C-11.05347656 13.42558594 -11.04445312 12.41367187 -11.03515625 11.37109375 C-11.02355469 10.58863281 -11.01195312 9.80617188 -11 9 C-10.34 9 -9.68 9 -9 9 C-8.67 6.69 -8.34 4.38 -8 2 C-4.94736336 1.01879536 -3.05263664 1.01879536 0 2 C0 1.34 0 0.68 0 0 Z " fill="#90CBDC" transform="translate(67,51)"/>
<path d="M0 0 C0 1.32 0 2.64 0 4 C0.66 4 1.32 4 2 4 C2 5.65 2 7.3 2 9 C0.68 9.33 -0.64 9.66 -2 10 C-2 10.66 -2 11.32 -2 12 C-1.01 11.67 -0.02 11.34 1 11 C1 11.99 1 12.98 1 14 C0.12988281 14.25523438 0.12988281 14.25523438 -0.7578125 14.515625 C-5.83092653 16.08946236 -9.67773001 17.94278464 -14 21 C-14.66 21 -15.32 21 -16 21 C-16 21.66 -16 22.32 -16 23 C-17.32 22.67 -18.64 22.34 -20 22 C-20 21.34 -20 20.68 -20 20 C-19.01 19.67 -18.02 19.34 -17 19 C-16.484375 18.484375 -15.96875 17.96875 -15.4375 17.4375 C-14.963125 16.963125 -14.48875 16.48875 -14 16 C-13.34 16 -12.68 16 -12 16 C-12 15.34 -12 14.68 -12 14 C-11.01 13.67 -10.02 13.34 -9 13 C-8.34 13.33 -7.68 13.66 -7 14 C-7.33 13.443125 -7.66 12.88625 -8 12.3125 C-9.1309601 9.69715478 -9.15662974 7.8193354 -9 5 C-7.66666667 7 -6.33333333 9 -5 11 C-4.34 11 -3.68 11 -3 11 C-3.66 8.03 -4.32 5.06 -5 2 C-5.99 2.33 -6.98 2.66 -8 3 C-8 2.34 -8 1.68 -8 1 C-2.25 -1.125 -2.25 -1.125 0 0 Z " fill="#ABCDDA" transform="translate(54,44)"/>
<path d="M0 0 C0.66 0.66 1.32 1.32 2 2 C0.33762104 2.80063104 -1.33018125 3.59000368 -3 4.375 C-3.928125 4.81585938 -4.85625 5.25671875 -5.8125 5.7109375 C-12.70635483 8.4988935 -18.77408114 9.30526346 -26.125 9.1875 C-26.89714844 9.18685547 -27.66929688 9.18621094 -28.46484375 9.18554688 C-32.74657696 9.15272269 -36.78473393 8.84170648 -41 8 C-37.50383635 5.66922424 -35.57954289 5.58934507 -31.42578125 5.25390625 C-30.11802734 5.13853516 -28.81027344 5.02316406 -27.46289062 4.90429688 C-25.39422935 4.73205096 -23.32532873 4.56352502 -21.25610352 4.39819336 C-13.69589443 3.78245845 -6.93202385 3.19460406 0 0 Z " fill="#73ADC8" transform="translate(113,103)"/>
<path d="M0 0 C0.56460938 0.14953125 1.12921875 0.2990625 1.7109375 0.453125 C3.98811225 1.02890059 3.98811225 1.02890059 6.2890625 1.359375 C8.62987032 1.75081443 10.7734526 2.17212523 13 3 C14.5625 5.625 14.5625 5.625 15 8 C15.99 7.67 16.98 7.34 18 7 C17.67 7.99 17.34 8.98 17 10 C17.66 10.66 18.32 11.32 19 12 C18.34 12 17.68 12 17 12 C17 12.66 17 13.32 17 14 C17.66 14.33 18.32 14.66 19 15 C17.68 15.33 16.36 15.66 15 16 C14.67 15.34 14.34 14.68 14 14 C13.01 14 12.02 14 11 14 C11 14.99 11 15.98 11 17 C8.69 17 6.38 17 4 17 C3.67 16.34 3.34 15.68 3 15 C3.66 14.34 4.32 13.68 5 13 C5 13.66 5 14.32 5 15 C6.65 15 8.3 15 10 15 C9.34 12.36 8.68 9.72 8 7 C6.68 6.67 5.36 6.34 4 6 C4 5.34 4 4.68 4 4 C2.35 4 0.7 4 -1 4 C-0.67 2.68 -0.34 1.36 0 0 Z " fill="#8DBACA" transform="translate(88,55)"/>
<path d="M0 0 C3.10902615 1.49529353 6.0618279 3.1944566 9 5 C8.67 5.99 8.34 6.98 8 8 C8.66 7.34 9.32 6.68 10 6 C10 5.67 10 5.34 10 5 C11.98 4.67 13.96 4.34 16 4 C16 4.66 16 5.32 16 6 C15.01 6.33 14.02 6.66 13 7 C12.53980469 7.51175781 12.07960937 8.02351563 11.60546875 8.55078125 C9.44800101 10.49827646 8.16791604 10.31164852 5.3125 10.1875 C4.10013672 10.14689453 4.10013672 10.14689453 2.86328125 10.10546875 C2.24839844 10.07066406 1.63351563 10.03585938 1 10 C1 9.01 1 8.02 1 7 C-2.3 7 -5.6 7 -9 7 C-9 4.69 -9 2.38 -9 0 C-5.92657895 -1.53671052 -3.19043988 -0.90216559 0 0 Z " fill="#93BCCD" transform="translate(156,75)"/>
<path d="M0 0 C4.4466311 2.18563224 8.79426701 4.37141688 13 7 C12.44271087 10.34373475 11.64826111 13.03312999 10 16 C9.01 15.67 8.02 15.34 7 15 C6.67 14.34 6.34 13.68 6 13 C5.34 12.835 4.68 12.67 4 12.5 C3.34 12.335 2.68 12.17 2 12 C1.67 11.34 1.34 10.68 1 10 C0.01 9.67 -0.98 9.34 -2 9 C-1.34 6.03 -0.68 3.06 0 0 Z " fill="#CEE9F0" transform="translate(130,48)"/>
<path d="M0 0 C1.32 0.66 2.64 1.32 4 2 C4 2.66 4 3.32 4 4 C7.465 3.505 7.465 3.505 11 3 C11 4.98 11 6.96 11 9 C11.66 9 12.32 9 13 9 C13 9.99 13 10.98 13 12 C8.71 11.67 4.42 11.34 0 11 C0 10.01 0 9.02 0 8 C-0.66 9.32 -1.32 10.64 -2 12 C-0.35 12.33 1.3 12.66 3 13 C3 13.33 3 13.66 3 14 C1.02 14 -0.96 14 -3 14 C-3.12375 13.21625 -3.2475 12.4325 -3.375 11.625 C-3.79117993 8.85942178 -3.79117993 8.85942178 -6 7 C-1.545 6.505 -1.545 6.505 3 6 C2.01 5.01 1.02 4.02 0 3 C0 2.01 0 1.02 0 0 Z " fill="#9ABCCD" transform="translate(14,71)"/>
<path d="M0 0 C1.3303125 0.39638672 1.3303125 0.39638672 2.6875 0.80078125 C5 1.6875 5 1.6875 7 3.6875 C6.79296875 6 6.79296875 6 6.1875 8.6875 C5.89939453 10.0178125 5.89939453 10.0178125 5.60546875 11.375 C5 13.6875 5 13.6875 4 15.6875 C2.68 15.0275 1.36 14.3675 0 13.6875 C0 10.7175 0 7.7475 0 4.6875 C-0.99 4.3575 -1.98 4.0275 -3 3.6875 C-3.33 5.0075 -3.66 6.3275 -4 7.6875 C-4 5.7075 -4 3.7275 -4 1.6875 C-4.99 1.6875 -5.98 1.6875 -7 1.6875 C-7 1.0275 -7 0.3675 -7 -0.3125 C-4.22057978 -1.70221011 -2.92961386 -0.89847169 0 0 Z " fill="#9DB3BD" transform="translate(123,40.3125)"/>
<path d="M0 0 C0 0.66 0 1.32 0 2 C0.639375 2.2475 1.27875 2.495 1.9375 2.75 C4 4 4 4 4.625 6 C4.74875 6.66 4.8725 7.32 5 8 C5.66 8.66 6.32 9.32 7 10 C6.01 10.66 5.02 11.32 4 12 C3.01 11.67 2.02 11.34 1 11 C1.66 11 2.32 11 3 11 C3 10.34 3 9.68 3 9 C0.69 9.66 -1.62 10.32 -4 11 C-8 6.63636364 -8 6.63636364 -8 3.8125 C-6.1336407 0.42972376 -3.69465053 0 0 0 Z " fill="#B1CED8" transform="translate(30,58)"/>
<path d="M0 0 C3.14737182 0.69941596 6.02588876 1.76078698 9 3 C9 3.66 9 4.32 9 5 C9.928125 5.28875 10.85625 5.5775 11.8125 5.875 C15 7 15 7 18 9 C17.67 9.66 17.34 10.32 17 11 C13.04 11 9.08 11 5 11 C4.67 13.97 4.34 16.94 4 20 C3.67 20 3.34 20 3 20 C2.95101562 19.05898437 2.90203125 18.11796875 2.8515625 17.1484375 C2.77679688 15.90320313 2.70203125 14.65796875 2.625 13.375 C2.55539063 12.14523438 2.48578125 10.91546875 2.4140625 9.6484375 C2.0185513 6.16346145 1.23738151 3.26950399 0 0 Z " fill="#BBE2F1" transform="translate(115,54)"/>
<path d="M0 0 C0.33 0.99 0.66 1.98 1 3 C1.7425 2.7525 2.485 2.505 3.25 2.25 C4.1575 2.1675 5.065 2.085 6 2 C8.3125 3.9375 8.3125 3.9375 10 6 C10.66 4.68 11.32 3.36 12 2 C12 3.65 12 5.3 12 7 C12.99 7 13.98 7 15 7 C15.33 7.99 15.66 8.98 16 10 C17.32 10 18.64 10 20 10 C20.33 10.99 20.66 11.98 21 13 C21.66 13.33 22.32 13.66 23 14 C23 14.66 23 15.32 23 16 C18.85701333 15.40165275 15.81805623 13.99335715 12.1875 11.9375 C11.21167969 11.38964844 10.23585938 10.84179688 9.23046875 10.27734375 C8.49441406 9.85582031 7.75835937 9.43429688 7 9 C7 8.34 7 7.68 7 7 C6.21625 6.9175 5.4325 6.835 4.625 6.75 C2 6 2 6 0.8125 4 C0.544375 3.34 0.27625 2.68 0 2 C-0.66 1.67 -1.32 1.34 -2 1 C-1.34 0.67 -0.68 0.34 0 0 Z " fill="#93BDC8" transform="translate(117,50)"/>
<path d="M0 0 C0.66666667 1.33333333 1.33333333 2.66666667 2 4 C1.38125 4.28875 0.7625 4.5775 0.125 4.875 C-2.13325765 5.93720042 -2.13325765 5.93720042 -4 8 C-4.66 8 -5.32 8 -6 8 C-7.11375 9.2375 -7.11375 9.2375 -8.25 10.5 C-11 13 -11 13 -14.3125 13.3125 C-15.6428125 13.1578125 -15.6428125 13.1578125 -17 13 C-17 12.34 -17 11.68 -17 11 C-16.34 11 -15.68 11 -15 11 C-15 10.34 -15 9.68 -15 9 C-13.8553125 8.38125 -13.8553125 8.38125 -12.6875 7.75 C-9.39760081 5.60774006 -8.665834 3.48310745 -7 0 C-3.88407501 -1.03864166 -2.9737344 -1.09036928 0 0 Z " fill="#A6C3D2" transform="translate(105,72)"/>
<path d="M0 0 C0.66 1.32 1.32 2.64 2 4 C1.01 4.99 0.02 5.98 -1 7 C-1.66 6.67 -2.32 6.34 -3 6 C-2.67 7.98 -2.34 9.96 -2 12 C-3.32 12.33 -4.64 12.66 -6 13 C-4.35 13.33 -2.7 13.66 -1 14 C-1 14.66 -1 15.32 -1 16 C-0.34 16 0.32 16 1 16 C0.67 17.32 0.34 18.64 0 20 C-2.96175123 19.38722388 -4.38058783 18.74627478 -7 17 C-7.93290024 12.25145371 -7.69074302 8.1432988 -5.1875 4 C-3 2 -3 2 0 0 Z " fill="#A0BAC3" transform="translate(9,67)"/>
<path d="M0 0 C0.33 0.66 0.66 1.32 1 2 C0.67 2.66 0.34 3.32 0 4 C0.99 3.67 1.98 3.34 3 3 C5.0625 3.125 5.0625 3.125 7 4 C8.125 6.375 8.125 6.375 9 9 C9.99 10.485 9.99 10.485 11 12 C10.67 12.99 10.34 13.98 10 15 C6.65750371 14.40312566 4.53563658 13.26396123 2 11 C2 10.34 2 9.68 2 9 C1.34 9 0.68 9 0 9 C-2.1519437 5.77208445 -2.20086443 4.71599191 -2 1 C-1.34 0.67 -0.68 0.34 0 0 Z " fill="#B9D3DF" transform="translate(61,80)"/>
<path d="M0 0 C1.24546405 2.49092811 0.7767578 3.41080733 0 6 C-0.66 6 -1.32 6 -2 6 C-2 7.32 -2 8.64 -2 10 C-5.3766856 11.12556187 -7.56192451 10.6876151 -11 10 C-13.01954441 10.33820153 -13.01954441 10.33820153 -15 11 C-16.66519519 11.34060811 -18.33157466 11.67558396 -20 12 C-16.82679539 8.55480642 -14.45061816 6.44903847 -10 5 C-8.60114711 4.50851115 -7.2054753 4.00790796 -5.8125 3.5 C-5.13832031 3.2628125 -4.46414062 3.025625 -3.76953125 2.78125 C-1.79671708 2.03756676 -1.79671708 2.03756676 0 0 Z " fill="#B8E1EE" transform="translate(58,54)"/>
<path d="M0 0 C-0.4375 2.3125 -0.4375 2.3125 -2 5 C-4.90755893 6.36075884 -7.89287788 7.21362959 -11 8 C-11 8.66 -11 9.32 -11 10 C-18.65128773 14.07384 -26.48007415 14.28665171 -35 14 C-35 13.67 -35 13.34 -35 13 C-33.83984375 12.85304688 -33.83984375 12.85304688 -32.65625 12.703125 C-26.83991861 11.86810713 -21.93929794 10.88700775 -16.80078125 8.00390625 C-15 7 -15 7 -11.375 5.5 C-7.70396351 3.86842823 -3.9749783 0 0 0 Z " fill="#E2F6F9" transform="translate(131,98)"/>
<path d="M0 0 C0.99 0.33 1.98 0.66 3 1 C3 1.66 3 2.32 3 3 C4.32 3.33 5.64 3.66 7 4 C6.67 5.65 6.34 7.3 6 9 C5.34 9 4.68 9 4 9 C4 9.66 4 10.32 4 11 C2.68 10.67 1.36 10.34 0 10 C0 9.34 0 8.68 0 8 C-1.65 7.67 -3.3 7.34 -5 7 C-3.35 4.69 -1.7 2.38 0 0 Z " fill="#D2EAED" transform="translate(149,61)"/>
<path d="M0 0 C1.32 0.66 2.64 1.32 4 2 C2.125 8.75 2.125 8.75 1 11 C1.99 11.33 2.98 11.66 4 12 C4 12.66 4 13.32 4 14 C-0.7517398 13.56802365 -2.92000054 12.67230705 -6 9 C-5.34 9 -4.68 9 -4 9 C-3.896875 8.071875 -3.79375 7.14375 -3.6875 6.1875 C-2.9929808 2.96745642 -2.52259061 1.97420135 0 0 Z " fill="#A9C5CF" transform="translate(144,57)"/>
<path d="M0 0 C0.66 0.33 1.32 0.66 2 1 C2 2.65 2 4.3 2 6 C1.34 5.67 0.68 5.34 0 5 C-0.33 6.98 -0.66 8.96 -1 11 C-0.01 11 0.98 11 2 11 C2.33 14.63 2.66 18.26 3 22 C2.01 22.33 1.02 22.66 0 23 C-0.33 21.35 -0.66 19.7 -1 18 C-1.66 18.66 -2.32 19.32 -3 20 C-3.03738281 19.30132812 -3.07476562 18.60265625 -3.11328125 17.8828125 C-3.17902344 16.97273438 -3.24476562 16.06265625 -3.3125 15.125 C-3.37050781 14.22007813 -3.42851563 13.31515625 -3.48828125 12.3828125 C-3.7882039 9.63778399 -3.7882039 9.63778399 -7 8 C-5.7934375 7.6596875 -5.7934375 7.6596875 -4.5625 7.3125 C-3.716875 6.879375 -2.87125 6.44625 -2 6 C-1.18068911 3.48823926 -1.18068911 3.48823926 -1 1 C-0.67 0.67 -0.34 0.34 0 0 Z " fill="#ABD2E2" transform="translate(67,55)"/>
<path d="M0 0 C1.88343932 3.76687864 2.22057835 5.02958963 2 9 C3.32 9 4.64 9 6 9 C5 11 4 13 3 15 C2.34 15 1.68 15 1 15 C0.67 15.66 0.34 16.32 0 17 C-0.66 16.34 -1.32 15.68 -2 15 C-2.66 15 -3.32 15 -4 15 C-4 14.01 -4 13.02 -4 12 C-4.66 12 -5.32 12 -6 12 C-6.33 12.99 -6.66 13.98 -7 15 C-7.33 13.68 -7.66 12.36 -8 11 C-4.535 10.505 -4.535 10.505 -1 10 C-0.67 6.7 -0.34 3.4 0 0 Z " fill="#C3DCE9" transform="translate(65,69)"/>
<path d="M0 0 C2.125 0.9375 2.125 0.9375 4 2 C3.50628906 2.40992187 3.01257812 2.81984375 2.50390625 3.2421875 C1.86324219 3.78101562 1.22257813 4.31984375 0.5625 4.875 C-0.07558594 5.40867187 -0.71367188 5.94234375 -1.37109375 6.4921875 C-4.05193813 8.97373649 -4.21076183 11.10761828 -4.5625 14.625 C-4.64628906 15.44226563 -4.73007813 16.25953125 -4.81640625 17.1015625 C-4.87699219 17.72804688 -4.93757812 18.35453125 -5 19 C-5.66 19 -6.32 19 -7 19 C-7 13.72 -7 8.44 -7 3 C-6.67 3.66 -6.34 4.32 -6 5 C-5.34 5 -4.68 5 -4 5 C-4 4.34 -4 3.68 -4 3 C-3.34 3 -2.68 3 -2 3 C-2 2.34 -2 1.68 -2 1 C-1.34 0.67 -0.68 0.34 0 0 Z " fill="#E7F3F7" transform="translate(7,64)"/>
<path d="M0 0 C0.1875 2.375 0.1875 2.375 0 5 C-0.99 5.66 -1.98 6.32 -3 7 C-4.19232613 9.05003955 -4.19232613 9.05003955 -5 11 C-6.65 11 -8.3 11 -10 11 C-9.86237302 8.04101995 -9.67947621 5.79204004 -7.703125 3.48828125 C-5.02873556 1.17797949 -3.60122522 0 0 0 Z " fill="#496C7B" transform="translate(86,59)"/>
<path d="M0 0 C-0.99 0.495 -0.99 0.495 -2 1 C-2.38218767 2.65614657 -2.71395102 4.32457024 -3 6 C-3.33 6.66 -3.66 7.32 -4 8 C-3.01 8.33 -2.02 8.66 -1 9 C-2.32 9 -3.64 9 -5 9 C-5.33 10.65 -5.66 12.3 -6 14 C-5.34 14.33 -4.68 14.66 -4 15 C-4.99 15.33 -5.98 15.66 -7 16 C-8 15 -8 15 -8.09765625 12.49609375 C-8.08605469 11.48675781 -8.07445312 10.47742188 -8.0625 9.4375 C-8.05347656 8.42558594 -8.04445312 7.41367187 -8.03515625 6.37109375 C-8.02355469 5.58863281 -8.01195312 4.80617188 -8 4 C-7.34 4 -6.68 4 -6 4 C-6 2.68 -6 1.36 -6 0 C-3.50907189 -1.24546405 -2.58919267 -0.7767578 0 0 Z " fill="#93C3D4" transform="translate(64,56)"/>
<path d="M0 0 C1.94268841 2.91403262 3.46395304 5.85808576 5 9 C3.3790787 10.17232685 1.75313167 11.3377077 0.125 12.5 C-0.77992187 13.1496875 -1.68484375 13.799375 -2.6171875 14.46875 C-5 16 -5 16 -7 16 C-7 16.66 -7 17.32 -7 18 C-8.32 17.67 -9.64 17.34 -11 17 C-11 16.34 -11 15.68 -11 15 C-10.01 14.67 -9.02 14.34 -8 14 C-7.484375 13.484375 -6.96875 12.96875 -6.4375 12.4375 C-5.963125 11.963125 -5.48875 11.48875 -5 11 C-4.34 11 -3.68 11 -3 11 C-3 10.34 -3 9.68 -3 9 C-2.01 8.67 -1.02 8.34 0 8 C0.66 8.33 1.32 8.66 2 9 C1.67 8.443125 1.34 7.88625 1 7.3125 C-0.1309601 4.69715478 -0.15662974 2.8193354 0 0 Z " fill="#9EBFC9" transform="translate(45,49)"/>
<path d="M0 0 C2.29296875 -0.25 2.29296875 -0.25 5 0 C6.80078125 1.75 6.80078125 1.75 8.3125 4 C8.82425781 4.7425 9.33601563 5.485 9.86328125 6.25 C10.23839844 6.8275 10.61351563 7.405 11 8 C10.67 8.66 10.34 9.32 10 10 C7.25 9.875 7.25 9.875 4 9 C1.39476132 5.84629002 0 4.13351845 0 0 Z " fill="#4E6473" transform="translate(76,71)"/>
<path d="M0 0 C5.38732394 0.59859155 5.38732394 0.59859155 7.8125 2.1875 C9.4528699 4.69122248 9.67321963 7.0589767 10 10 C8.35 10 6.7 10 5 10 C4.731875 9.38125 4.46375 8.7625 4.1875 8.125 C3.04443152 5.7004767 3.04443152 5.7004767 0 4 C0 2.68 0 1.36 0 0 Z " fill="#456471" transform="translate(88,60)"/>
<path d="M0 0 C3.3 0.99 6.6 1.98 10 3 C9.34 4.32 8.68 5.64 8 7 C6.948125 6.814375 5.89625 6.62875 4.8125 6.4375 C1.16030734 5.7887796 1.16030734 5.7887796 -1.6875 6.6875 C-2.8321875 6.8421875 -2.8321875 6.8421875 -4 7 C-6.3125 5.1875 -6.3125 5.1875 -8 3 C-8 2.34 -8 1.68 -8 1 C0.57142857 1.85714286 0.57142857 1.85714286 4 4 C4 3.34 4 2.68 4 2 C2.68 1.67 1.36 1.34 0 1 C0 0.67 0 0.34 0 0 Z " fill="#93C4D8" transform="translate(56,92)"/>
<path d="M0 0 C1.65 0.33 3.3 0.66 5 1 C4.06742166 5.10334471 3.35870974 6.71602146 0 9.375 C-3 11 -3 11 -5 11 C-5.25 8.75 -5.25 8.75 -5 6 C-3.0625 3.8125 -3.0625 3.8125 -1 2 C-0.67 1.34 -0.34 0.68 0 0 Z " fill="#506775" transform="translate(93,71)"/>
<path d="M0 0 C2.06498691 0.59561116 4.12690474 1.20186855 6.1875 1.8125 C7.91033203 2.31716797 7.91033203 2.31716797 9.66796875 2.83203125 C12.79016776 3.92644802 15.31534982 5.07372557 18 7 C18 7.66 18 8.32 18 9 C12.24237834 7.91103333 6.60752181 6.70663707 1 5 C1 4.34 1 3.68 1 3 C0.01 2.67 -0.98 2.34 -2 2 C-1.34 1.34 -0.68 0.68 0 0 Z " fill="#8AB8C9" transform="translate(42,87)"/>
<path d="M0 0 C2.64 0 5.28 0 8 0 C8.33 1.65 8.66 3.3 9 5 C8.01 5.33 7.02 5.66 6 6 C5.67 6.99 5.34 7.98 5 9 C3.35 8.67 1.7 8.34 0 8 C0 5.33333333 0 2.66666667 0 0 Z " fill="#70B6CD" transform="translate(80,48)"/>
<path d="M0 0 C0.33 0.99 0.66 1.98 1 3 C-2.3483778 5.81263735 -5.97531563 7.4063876 -10 9 C-10.68964844 9.29390625 -11.37929687 9.5878125 -12.08984375 9.890625 C-13.12818359 10.31601563 -13.12818359 10.31601563 -14.1875 10.75 C-14.82042969 11.01296875 -15.45335938 11.2759375 -16.10546875 11.546875 C-18.38552697 12.09220851 -19.79711378 11.72289836 -22 11 C-20.04350603 10.16235732 -18.08474444 9.33000941 -16.125 8.5 C-15.03445312 8.0359375 -13.94390625 7.571875 -12.8203125 7.09375 C-10 6 -10 6 -8 6 C-8 5.01 -8 4.02 -8 3 C-7.01 3 -6.02 3 -5 3 C-4.67 2.34 -4.34 1.68 -4 1 C-1.9375 0.375 -1.9375 0.375 0 0 Z " fill="#97BECD" transform="translate(123,99)"/>
<path d="M0 0 C0.66 1.32 1.32 2.64 2 4 C-4.435 6.97 -4.435 6.97 -11 10 C-11.33 9.34 -11.66 8.68 -12 8 C-11 5 -11 5 -8.49609375 3.61328125 C-7.48675781 3.18402344 -6.47742188 2.75476563 -5.4375 2.3125 C-4.42558594 1.87550781 -3.41367188 1.43851562 -2.37109375 0.98828125 C-1.58863281 0.66214844 -0.80617187 0.33601563 0 0 Z " fill="#80AABE" transform="translate(138,90)"/>
<path d="M0 0 C2.64 0.33 5.28 0.66 8 1 C8 1.66 8 2.32 8 3 C9.32 3 10.64 3 12 3 C12 3.66 12 4.32 12 5 C13.65 5 15.3 5 17 5 C16.67 5.99 16.34 6.98 16 8 C11.31479085 6.78184562 7.29456388 5.30440013 3 3 C2.67 4.32 2.34 5.64 2 7 C0 5 0 5 -0.125 2.375 C-0.08375 1.59125 -0.0425 0.8075 0 0 Z " fill="#AAE2F3" transform="translate(31,87)"/>
<path d="M0 0 C5.28 1.32 10.56 2.64 16 4 C16 4.99 16 5.98 16 7 C9.91766294 6.32418477 3.98685848 5.26361972 -2 4 C-1.34 2.68 -0.68 1.36 0 0 Z " fill="#A3BBC5" transform="translate(99,33)"/>
<path d="M0 0 C1.9375 1.5 1.9375 1.5 3 3 C2.67 3.99 2.34 4.98 2 6 C-2.05606165 5.53199289 -5.46588679 5.12046792 -9 3 C-9 2.34 -9 1.68 -9 1 C-5.95016004 -0.52491998 -3.3576631 -0.23562548 0 0 Z " fill="#ACD9EC" transform="translate(97,52)"/>
<path d="M0 0 C2.475 0.495 2.475 0.495 5 1 C5 1.99 5 2.98 5 4 C6.32 4.66 7.64 5.32 9 6 C8.34 7.32 7.68 8.64 7 10 C7 9.34 7 8.68 7 8 C6.01 8.495 6.01 8.495 5 9 C4.34786708 11.02463255 4.34786708 11.02463255 4 13 C2.68 12.67 1.36 12.34 0 12 C0.99 11.67 1.98 11.34 3 11 C2.67 10.01 2.34 9.02 2 8 C2 7.34 2 6.68 2 6 C1.34 5.34 0.68 4.68 0 4 C0 2.68 0 1.36 0 0 Z " fill="#BFDEEC" transform="translate(68,84)"/>
<path d="M0 0 C6.75 -0.125 6.75 -0.125 9 1 C9 1.66 9 2.32 9 3 C9.99 3.33 10.98 3.66 12 4 C11.01 4.495 11.01 4.495 10 5 C10 5.66 10 6.32 10 7 C8.02 7 6.04 7 4 7 C4.33 5.68 4.66 4.36 5 3 C3.68 2.67 2.36 2.34 1 2 C0.67 2.99 0.34 3.98 0 5 C-0.33 4.34 -0.66 3.68 -1 3 C-0.67 2.01 -0.34 1.02 0 0 Z " fill="#ABC3CB" transform="translate(156,65)"/>
<path d="M0 0 C7.72972973 2.45945946 7.72972973 2.45945946 10 4 C11.25 6.625 11.25 6.625 12 9 C7.75354935 9 5.61475228 7.18249194 2 5 C1.34 5.99 0.68 6.98 0 8 C0 5.36 0 2.72 0 0 Z " fill="#9BB2BA" transform="translate(129,44)"/>
<path d="M0 0 C4.455 0.99 4.455 0.99 9 2 C9 2.99 9 3.98 9 5 C7.375 6.1875 7.375 6.1875 5 7 C1.75 5.625 1.75 5.625 -1 4 C-0.67 2.68 -0.34 1.36 0 0 Z " fill="#A3DEF7" transform="translate(57,97)"/>
<path d="M0 0 C0.33 0.99 0.66 1.98 1 3 C0.01 4.485 0.01 4.485 -1 6 C-1.66 6 -2.32 6 -3 6 C-3.33 6.66 -3.66 7.32 -4 8 C-6.9375 9.1875 -6.9375 9.1875 -10 10 C-10.66 9.67 -11.32 9.34 -12 9 C-11.67 7.35 -11.34 5.7 -11 4 C-10.34 4 -9.68 4 -9 4 C-9 4.66 -9 5.32 -9 6 C-8.34 6 -7.68 6 -7 6 C-7 5.34 -7 4.68 -7 4 C-4.93057424 1.4132178 -3.24271506 0.5590888 0 0 Z " fill="#B1CFDB" transform="translate(112,85)"/>
<path d="M0 0 C2.475 0.495 2.475 0.495 5 1 C5 1.66 5 2.32 5 3 C6.65 2.34 8.3 1.68 10 1 C8.25 4.875 8.25 4.875 6 6 C5.34444881 8.52733235 5.34444881 8.52733235 5 11 C3.68 10.67 2.36 10.34 1 10 C1.66 10 2.32 10 3 10 C2.42655063 7.13275314 2.1385485 6.1385485 0 4 C0 2.68 0 1.36 0 0 Z " fill="#6E8290" transform="translate(83,71)"/>
<path d="M0 0 C-3.39529715 1.49393074 -6.62608759 2.89002576 -10.1875 3.9375 C-13.11271581 4.81485505 -13.11271581 4.81485505 -15.0625 7.125 C-17 9 -17 9 -19.75 9.25 C-20.4925 9.1675 -21.235 9.085 -22 9 C-22 8.34 -22 7.68 -22 7 C-21.360625 6.896875 -20.72125 6.79375 -20.0625 6.6875 C-19.381875 6.460625 -18.70125 6.23375 -18 6 C-17.67 5.01 -17.34 4.02 -17 3 C-14.63671875 2.0859375 -14.63671875 2.0859375 -11.6875 1.375 C-10.72199219 1.13523438 -9.75648437 0.89546875 -8.76171875 0.6484375 C-7.85035156 0.43445312 -6.93898438 0.22046875 -6 0 C-5.26394531 -0.21398438 -4.52789062 -0.42796875 -3.76953125 -0.6484375 C-2 -1 -2 -1 0 0 Z " fill="#95BFCD" transform="translate(74,47)"/>
<path d="M0 0 C5.50808397 0.59015185 10.64878069 1.56663769 16 3 C16 3.99 16 4.98 16 6 C10.71529678 6.40651563 5.725109 5.41726629 1 3 C0.67 2.01 0.34 1.02 0 0 Z " fill="#8ABBD3" transform="translate(64,96)"/>
<path d="M0 0 C1.65 0.33 3.3 0.66 5 1 C5 1.66 5 2.32 5 3 C5.66 3 6.32 3 7 3 C6.67 3.66 6.34 4.32 6 5 C5.01 5.33 4.02 5.66 3 6 C1.33289654 7.49985609 1.33289654 7.49985609 0 9 C-0.33 8.34 -0.66 7.68 -1 7 C-1.66 6.67 -2.32 6.34 -3 6 C-2.34 6 -1.68 6 -1 6 C-1 5.34 -1 4.68 -1 4 C-2.32 4.33 -3.64 4.66 -5 5 C-4.34 4.01 -3.68 3.02 -3 2 C-2.34 2 -1.68 2 -1 2 C-0.67 1.34 -0.34 0.68 0 0 Z " fill="#86BCCD" transform="translate(110,49)"/>
<path d="M0 0 C-1 3 -1 3 -2.70703125 4.1328125 C-3.40183594 4.46023437 -4.09664062 4.78765625 -4.8125 5.125 C-5.49957031 5.45757812 -6.18664062 5.79015625 -6.89453125 6.1328125 C-8.92371379 6.96857971 -10.86573115 7.50647739 -13 8 C-13.99 8.33 -14.98 8.66 -16 9 C-16.33 8.01 -16.66 7.02 -17 6 C-13.86501708 4.14223235 -11.62528568 3.79859524 -8 4 C-8 3.34 -8 2.68 -8 2 C-5.09399739 0.74335022 -3.20395416 0 0 0 Z " fill="#AADEF5" transform="translate(139,88)"/>
<path d="M0 0 C0.99 0 1.98 0 3 0 C3.66 0.66 4.32 1.32 5 2 C5.99 2.33 6.98 2.66 8 3 C6.1875 5 6.1875 5 4 7 C3.01 7 2.02 7 1 7 C0.67 7.66 0.34 8.32 0 9 C-0.66 8.67 -1.32 8.34 -2 8 C-1.67 7.34 -1.34 6.68 -1 6 C-1.66 6 -2.32 6 -3 6 C-3 5.34 -3 4.68 -3 4 C-2.34 4 -1.68 4 -1 4 C-0.67 2.68 -0.34 1.36 0 0 Z " fill="#7CB3C6" transform="translate(76,55)"/>
<path d="M0 0 C0 0.66 0 1.32 0 2 C-2.10320063 2.50404808 -4.20759791 3.00310508 -6.3125 3.5 C-8.07013672 3.91765625 -8.07013672 3.91765625 -9.86328125 4.34375 C-13 5 -13 5 -16 5 C-16.33 3.68 -16.66 2.36 -17 1 C-11.29014022 0.25983299 -5.75813575 -0.10469338 0 0 Z " fill="#A8D8EB" transform="translate(156,84)"/>
<path d="M0 0 C0.99 0.33 1.98 0.66 3 1 C3 1.99 3 2.98 3 4 C0.66785852 5.20628008 -1.49642139 6.1654738 -4 7 C-4 6.34 -4 5.68 -4 5 C-5.29233607 3.62689293 -6.62437146 2.28965176 -8 1 C-4.903311 -0.8801326 -3.41988546 -1.21350774 0 0 Z " fill="#B6DFEB" transform="translate(168,76)"/>
<path d="M0 0 C-2.35348271 2.35348271 -3.21466691 2.36468749 -6.4375 2.6875 C-7.21996094 2.77386719 -8.00242187 2.86023437 -8.80859375 2.94921875 C-11 3 -11 3 -14 2 C-15.33106622 1.65772583 -16.66400079 1.32248257 -18 1 C-5.30769231 -3.75961538 -5.30769231 -3.75961538 0 0 Z " fill="#AABEC9" transform="translate(78,35)"/>
<path d="M0 0 C0.33 0.66 0.66 1.32 1 2 C1.99 1.34 2.98 0.68 4 0 C7 0 7 0 9.625 2.375 C12 5 12 5 13 7 C7.72250715 6.46148032 3.74354436 5.22656164 -1 3 C-0.67 2.01 -0.34 1.02 0 0 Z " fill="#C8EDFA" transform="translate(56,89)"/>
<path d="M0 0 C1.65 0.33 3.3 0.66 5 1 C5 1.66 5 2.32 5 3 C5.66 3.33 6.32 3.66 7 4 C5.03617993 5.50559539 3.21736634 6.89131683 1 8 C-0.32 6.68 -1.64 5.36 -3 4 C-2.34 3.67 -1.68 3.34 -1 3 C-0.67 2.01 -0.34 1.02 0 0 Z " fill="#9CCEDF" transform="translate(107,56)"/>
<path d="M0 0 C1.32 0.33 2.64 0.66 4 1 C3.125 7.75 3.125 7.75 2 10 C0.68 9.34 -0.64 8.68 -2 8 C-1.34 5.36 -0.68 2.72 0 0 Z " fill="#D7F3F9" transform="translate(125,46)"/>
<path d="M0 0 C1.6065676 0.25620684 3.2102483 0.53055871 4.8125 0.8125 C6.15248047 1.03873047 6.15248047 1.03873047 7.51953125 1.26953125 C10.18321256 2.05395393 11.25690322 2.88627799 13 5 C9.28233332 6.23922223 7.56110463 5.57018942 3.8125 4.5625 C2.72582031 4.27503906 1.63914062 3.98757812 0.51953125 3.69140625 C-0.31191406 3.46324219 -1.14335937 3.23507813 -2 3 C-1.34 2.67 -0.68 2.34 0 2 C0 1.34 0 0.68 0 0 Z " fill="#85A6B7" transform="translate(19,86)"/>
<path d="M0 0 C2.02045442 0.60183749 4.02111039 1.27306096 6 2 C7.24546405 4.49092811 6.7767578 5.41080733 6 8 C5.34 8 4.68 8 4 8 C4 7.01 4 6.02 4 5 C0.7 5 -2.6 5 -6 5 C-5.67 4.01 -5.34 3.02 -5 2 C-5 2.66 -5 3.32 -5 4 C-3.35 4 -1.7 4 0 4 C0 2.68 0 1.36 0 0 Z " fill="#ABD1E6" transform="translate(153,77)"/>
<path d="M0 0 C2.06878307 4.38095238 2.06878307 4.38095238 1.75 7.25 C1 9 1 9 -1 10 C-2.98 6.535 -2.98 6.535 -5 3 C-2.25 0 -2.25 0 0 0 Z " fill="#D9F2F7" transform="translate(35,54)"/>
<path d="M0 0 C2.12038635 2.61514317 4.13091744 5.19637616 6 8 C4.35 8.33 2.7 8.66 1 9 C-0.98 5.535 -0.98 5.535 -3 2 C-2.01 1.34 -1.02 0.68 0 0 Z " fill="#D6EFF7" transform="translate(20,63)"/>
<path d="M0 0 C0.66 0.99 1.32 1.98 2 3 C3.32 3 4.64 3 6 3 C6.33 3.99 6.66 4.98 7 6 C7.66 6.33 8.32 6.66 9 7 C9 7.66 9 8.32 9 9 C5.04179141 8.43454163 2.3340947 7.19097652 -1 5 C-0.67 3.35 -0.34 1.7 0 0 Z " fill="#9AB8C4" transform="translate(131,57)"/>
<path d="M0 0 C0.99 0.33 1.98 0.66 3 1 C2.67 2.65 2.34 4.3 2 6 C1.34 6 0.68 6 0 6 C0 6.66 0 7.32 0 8 C-1.65 7.67 -3.3 7.34 -5 7 C-3.35 4.69 -1.7 2.38 0 0 Z " fill="#D5F1F6" transform="translate(149,61)"/>
<path d="M0 0 C0.99 0 1.98 0 3 0 C4.90877584 2.58246143 6.56377246 5.12754491 8 8 C6.68 8.33 5.36 8.66 4 9 C0 4.5 0 4.5 0 0 Z " fill="#D5F0F5" transform="translate(22,60)"/>
<path d="M0 0 C3.91402949 1.26941497 5.79072873 2.51167694 8 6 C5.21176345 7.0326802 4.1322726 7.04509293 1.25 6.0625 C0.5075 5.711875 -0.235 5.36125 -1 5 C-0.67 3.35 -0.34 1.7 0 0 Z " fill="#A1BAC0" transform="translate(153,59)"/>
<path d="M0 0 C-2.91765 1.9451 -4.62537285 2.45276317 -8 3 C-8 3.66 -8 4.32 -8 5 C-8.66 5 -9.32 5 -10 5 C-10.33 5.66 -10.66 6.32 -11 7 C-11.33 6.34 -11.66 5.68 -12 5 C-12.99 5 -13.98 5 -15 5 C-11.52013327 -0.2198001 -5.92840631 -0.28919055 0 0 Z " fill="#7DB5C5" transform="translate(75,48)"/>
<path d="M0 0 C2.0625 0.75 2.0625 0.75 4 2 C4.33 2.99 4.66 3.98 5 5 C4.67 5.66 4.34 6.32 4 7 C2.35 7 0.7 7 -1 7 C-1.33 5.02 -1.66 3.04 -2 1 C-1.34 0.67 -0.68 0.34 0 0 Z " fill="#A0C0D1" transform="translate(149,74)"/>
<path d="M0 0 C0.66 0.33 1.32 0.66 2 1 C1.34 2.32 0.68 3.64 0 5 C1.98 4.67 3.96 4.34 6 4 C6 4.99 6 5.98 6 7 C3.03 6.505 3.03 6.505 0 6 C-0.33 6.99 -0.66 7.98 -1 9 C-1.33 8.34 -1.66 7.68 -2 7 C-4.52733235 6.34444881 -4.52733235 6.34444881 -7 6 C-7 5.67 -7 5.34 -7 5 C-5.824375 4.87625 -5.824375 4.87625 -4.625 4.75 C-1.85250896 4.27193661 -1.85250896 4.27193661 -0.6875 1.9375 C-0.460625 1.298125 -0.23375 0.65875 0 0 Z " fill="#9DB4BF" transform="translate(83,65)"/>
<path d="M0 0 C1.32 0.66 2.64 1.32 4 2 C3.34 4.31 2.68 6.62 2 9 C0.68 9 -0.64 9 -2 9 C-1.34 6.03 -0.68 3.06 0 0 Z " fill="#D8F1F8" transform="translate(130,48)"/>
<path d="M0 0 C-0.99 0.66 -1.98 1.32 -3 2 C-4.7313848 3.20515289 -6.46036594 4.41376313 -8.1875 5.625 C-9.08855469 6.25664063 -9.98960938 6.88828125 -10.91796875 7.5390625 C-11.60503906 8.02117188 -12.29210937 8.50328125 -13 9 C-13.33 8.34 -13.66 7.68 -14 7 C-13.67 6.34 -13.34 5.68 -13 5 C-12.34 5 -11.68 5 -11 5 C-11 4.34 -11 3.68 -11 3 C-7.14243493 0.84694043 -4.44870215 -0.39253254 0 0 Z " fill="#EBF6F9" transform="translate(38,47)"/>
<path d="M0 0 C1.8871875 0.061875 1.8871875 0.061875 3.8125 0.125 C3.8125 0.455 3.8125 0.785 3.8125 1.125 C7.4425 1.455 11.0725 1.785 14.8125 2.125 C14.8125 2.455 14.8125 2.785 14.8125 3.125 C12.27076023 3.15216824 9.72931585 3.17191969 7.1875 3.1875 C6.11822266 3.20006836 6.11822266 3.20006836 5.02734375 3.21289062 C0.83905562 3.23210296 -3.0603462 2.9517327 -7.1875 2.125 C-4.09861478 0.06574319 -3.47814073 -0.1140374 0 0 Z " fill="#6593A7" transform="translate(79.1875,108.875)"/>
<path d="M0 0 C1.21816406 0.03480469 1.21816406 0.03480469 2.4609375 0.0703125 C3.68683594 0.09738281 3.68683594 0.09738281 4.9375 0.125 C5.87722656 0.15980469 5.87722656 0.15980469 6.8359375 0.1953125 C6.5059375 1.5153125 6.1759375 2.8353125 5.8359375 4.1953125 C-0.7890625 5.3203125 -0.7890625 5.3203125 -4.1640625 4.1953125 C-4.1640625 1.13098089 -2.96049401 0.2671926 0 0 Z " fill="#B7D5E7" transform="translate(92.1640625,91.8046875)"/>
<path d="M0 0 C0.99 0 1.98 0 3 0 C3.25 2.3125 3.25 2.3125 3 5 C1.25 6.8125 1.25 6.8125 -1 8 C-2.32 8 -3.64 8 -5 8 C-4.34 6.68 -3.68 5.36 -3 4 C-2.01 4 -1.02 4 0 4 C0 2.68 0 1.36 0 0 Z " fill="#3B5C6C" transform="translate(83,59)"/>
<path d="M0 0 C1.32 0.66 2.64 1.32 4 2 C2.92598892 4.91517292 2.22189824 6.77810176 0 9 C-0.99 9 -1.98 9 -3 9 C-2.01 6.03 -1.02 3.06 0 0 Z " fill="#D7F0F7" transform="translate(144,57)"/>
<path d="M0 0 C0.66 0 1.32 0 2 0 C2.66 2.97 3.32 5.94 4 9 C3.01 9.33 2.02 9.66 1 10 C-0.85064319 6.87703962 -1.29356154 4.62059232 -1 1 C-0.67 0.67 -0.34 0.34 0 0 Z " fill="#D9F2F9" transform="translate(47,46)"/>
<path d="M0 0 C8.57142857 -0.14285714 8.57142857 -0.14285714 12 1 C12 1.99 12 2.98 12 4 C6.06 3.01 6.06 3.01 0 2 C0 1.34 0 0.68 0 0 Z " fill="#A7DAEC" transform="translate(18,84)"/>
<path d="M0 0 C2.31 0.33 4.62 0.66 7 1 C6.505 1.433125 6.01 1.86625 5.5 2.3125 C3.66781808 3.99740483 3.66781808 3.99740483 4 7 C3.01 7 2.02 7 1 7 C0.67 6.34 0.34 5.68 0 5 C-2.02463255 4.34786708 -2.02463255 4.34786708 -4 4 C-3.67 3.34 -3.34 2.68 -3 2 C-2.34 2 -1.68 2 -1 2 C-0.67 1.34 -0.34 0.68 0 0 Z " fill="#BBE6F0" transform="translate(7,76)"/>
<path d="M0 0 C2.64 0 5.28 0 8 0 C7.67 0.99 7.34 1.98 7 3 C7.66 3 8.32 3 9 3 C8.67 3.66 8.34 4.32 8 5 C7.34 5 6.68 5 6 5 C6 5.66 6 6.32 6 7 C5.01 7 4.02 7 3 7 C3 5.68 3 4.36 3 3 C2.34 2.67 1.68 2.34 1 2 C0.67 1.34 0.34 0.68 0 0 Z " fill="#C8E2EF" transform="translate(107,71)"/>
<path d="M0 0 C0.66 0.33 1.32 0.66 2 1 C2.33 1.99 2.66 2.98 3 4 C3.66 4 4.32 4 5 4 C5 5.32 5 6.64 5 8 C3.35 8.33 1.7 8.66 0 9 C0 7.68 0 6.36 0 5 C-0.66 4.34 -1.32 3.68 -2 3 C-1.34 2.01 -0.68 1.02 0 0 Z " fill="#B3D7E5" transform="translate(110,61)"/>
<path d="M0 0 C0.99 0 1.98 0 3 0 C5.10770759 2.88834003 6 4.38462395 6 8 C3.23737447 7.6189482 2.15856106 7.16402868 0.1875 5.125 C-0.204375 4.42375 -0.59625 3.7225 -1 3 C-0.67 2.01 -0.34 1.02 0 0 Z " fill="#D6F2F8" transform="translate(27,58)"/>
<path d="M0 0 C-1.66666667 1.66666667 -3.33333333 3.33333333 -5 5 C-5.556875 5.598125 -6.11375 6.19625 -6.6875 6.8125 C-8 8 -8 8 -10 8 C-10 4 -10 4 -8.57421875 2.48046875 C-7.95160156 2.05378906 -7.32898438 1.62710938 -6.6875 1.1875 C-6.07261719 0.74792969 -5.45773438 0.30835937 -4.82421875 -0.14453125 C-3 -1 -3 -1 0 0 Z " fill="#B5D2E0" transform="translate(104,82)"/>
<path d="M0 0 C1.32 0 2.64 0 4 0 C4 0.66 4 1.32 4 2 C4.66 2 5.32 2 6 2 C5.67 3.32 5.34 4.64 5 6 C2.03824877 5.38722388 0.61941217 4.74627478 -2 3 C-1 1 -1 1 0 0 Z " fill="#A3C6D1" transform="translate(4,81)"/>
<path d="M0 0 C2.84550012 0.66010476 5.52325999 1.51724966 8.25 2.5625 C8.95640625 2.83191406 9.6628125 3.10132812 10.390625 3.37890625 C10.92171875 3.58386719 11.4528125 3.78882812 12 4 C12 4.66 12 5.32 12 6 C9.57498366 5.52846905 7.18892739 5.05397926 4.8125 4.375 C2.91096507 3.78653641 2.91096507 3.78653641 1 5 C0.34 4.34 -0.32 3.68 -1 3 C-0.34 3 0.32 3 1 3 C0.67 2.01 0.34 1.02 0 0 Z " fill="#84B9D1" transform="translate(55,101)"/>
<path d="M0 0 C1.32 0.33 2.64 0.66 4 1 C3.25 3.4375 3.25 3.4375 2 6 C-0.125 6.8125 -0.125 6.8125 -2 7 C-2 3 -2 3 0 0 Z " fill="#D7F0F5" transform="translate(157,67)"/>
<path d="M0 0 C0.33 0.66 0.66 1.32 1 2 C2.32 2 3.64 2 5 2 C5 3.65 5 5.3 5 7 C3.35 6.67 1.7 6.34 0 6 C-1.125 2.25 -1.125 2.25 0 0 Z " fill="#82ADC0" transform="translate(51,97)"/>
<path d="M0 0 C2.64 0.33 5.28 0.66 8 1 C7.67 2.65 7.34 4.3 7 6 C4.625 5.8125 4.625 5.8125 2 5 C0.6875 2.4375 0.6875 2.4375 0 0 Z " fill="#A6DDF5" transform="translate(48,93)"/>
<path d="M0 0 C0.66 0 1.32 0 2 0 C2 0.66 2 1.32 2 2 C2.66 2 3.32 2 4 2 C4 2.66 4 3.32 4 4 C6.475 4.99 6.475 4.99 9 6 C9 6.66 9 7.32 9 8 C4.75153925 7.52794881 2.73180712 5.11122478 0 2 C0 1.34 0 0.68 0 0 Z M8 4 C10 5 10 5 10 5 Z " fill="#ABCDDA" transform="translate(62,87)"/>
<path d="M0 0 C0.66 0.66 1.32 1.32 2 2 C1.67 2.99 1.34 3.98 1 5 C0.01 5.33 -0.98 5.66 -2 6 C-2.66 6.66 -3.32 7.32 -4 8 C-4.66 7.01 -5.32 6.02 -6 5 C-2.25 1.125 -2.25 1.125 0 0 Z " fill="#9EB3BD" transform="translate(16,61)"/>
<path d="M0 0 C2.475 0.99 2.475 0.99 5 2 C4.67 3.32 4.34 4.64 4 6 C2.68 5.67 1.36 5.34 0 5 C-0.33 6.98 -0.66 8.96 -1 11 C-1.90064221 8.4782018 -2.19407719 7.42696982 -1.0625 4.9375 C-0.711875 4.298125 -0.36125 3.65875 0 3 C0 2.01 0 1.02 0 0 Z " fill="#ACC5D0" transform="translate(125,41)"/>
<path d="M0 0 C0.66 0.66 1.32 1.32 2 2 C1.01 2 0.02 2 -1 2 C-0.67 2.99 -0.34 3.98 0 5 C-2.64 5 -5.28 5 -8 5 C-7.67 4.01 -7.34 3.02 -7 2 C-3.4375 0.8125 -3.4375 0.8125 0 0 Z " fill="#B0D3EB" transform="translate(22,77)"/>
<path d="M0 0 C0.66 0 1.32 0 2 0 C2.33 0.99 2.66 1.98 3 3 C3.66 3.33 4.32 3.66 5 4 C5 4.66 5 5.32 5 6 C5.66 6.33 6.32 6.66 7 7 C5.68 7.33 4.36 7.66 3 8 C3 7.34 3 6.68 3 6 C1.68 5.34 0.36 4.68 -1 4 C-0.67 2.68 -0.34 1.36 0 0 Z " fill="#D5EFF8" transform="translate(15,67)"/>
<path d="M0 0 C0.66 1.32 1.32 2.64 2 4 C-1.465 5.485 -1.465 5.485 -5 7 C-5 5.35 -5 3.7 -5 2 C-3.35 1.34 -1.7 0.68 0 0 Z " fill="#8DB3C3" transform="translate(138,90)"/>
<path d="M0 0 C1.65 1.65 3.3 3.3 5 5 C4.67 5.66 4.34 6.32 4 7 C1.0625 6.625 1.0625 6.625 -2 6 C-2.33 5.34 -2.66 4.68 -3 4 C-2.01 3.67 -1.02 3.34 0 3 C0 2.01 0 1.02 0 0 Z " fill="#546C79" transform="translate(82,74)"/>
<path d="M0 0 C1.98 0 3.96 0 6 0 C4.68 0.33 3.36 0.66 2 1 C2.27617533 2.94074861 2.27617533 2.94074861 3 5 C3.99 5.66 4.98 6.32 6 7 C5.67 7.66 5.34 8.32 5 9 C3.0625 8.625 3.0625 8.625 1 8 C-0.35439668 5.29120665 -0.06501451 2.99066732 0 0 Z " fill="#6C8C9B" transform="translate(86,59)"/>
<path d="M0 0 C3.14737182 0.69941596 6.02588876 1.76078698 9 3 C6.64046906 5.35953094 5.22104383 5.49141413 2 6 C1.34 4.02 0.68 2.04 0 0 Z " fill="#AADDEF" transform="translate(115,54)"/>
<path d="M0 0 C0.66 0 1.32 0 2 0 C2 0.99 2 1.98 2 3 C3.65 2.34 5.3 1.68 7 1 C6.67 1.598125 6.34 2.19625 6 2.8125 C4.79212012 5.05386471 4.79212012 5.05386471 5 8 C4.34 8 3.68 8 3 8 C2.71125 7.195625 2.4225 6.39125 2.125 5.5625 C1.26737432 2.8673532 1.26737432 2.8673532 -1 2 C-0.67 1.34 -0.34 0.68 0 0 Z " fill="#8EC4D2" transform="translate(100,55)"/>
<path d="M0 0 C0.66 0 1.32 0 2 0 C2 2.97 2 5.94 2 9 C1.01 9.495 1.01 9.495 0 10 C0 8.68 0 7.36 0 6 C-0.66 6 -1.32 6 -2 6 C-1.34 4.02 -0.68 2.04 0 0 Z " fill="#AFCAD7" transform="translate(116,68)"/>
<path d="M0 0 C0.66 0 1.32 0 2 0 C2.66 1.32 3.32 2.64 4 4 C3.01 4 2.02 4 1 4 C1 4.99 1 5.98 1 7 C-1.31 7 -3.62 7 -6 7 C-6.33 6.34 -6.66 5.68 -7 5 C-6.34 4.34 -5.68 3.68 -5 3 C-5 3.66 -5 4.32 -5 5 C-3.35 5 -1.7 5 0 5 C0 3.35 0 1.7 0 0 Z " fill="#92B0C1" transform="translate(98,65)"/>
<path d="M0 0 C0.66 0.33 1.32 0.66 2 1 C1.67 1.66 1.34 2.32 1 3 C1.66 3.33 2.32 3.66 3 4 C3.625 7.0625 3.625 7.0625 4 10 C3.34 9.34 2.68 8.68 2 8 C2 7.01 2 6.02 2 5 C0.02 5.99 0.02 5.99 -2 7 C-2 6.01 -2 5.02 -2 4 C-2.66 3.67 -3.32 3.34 -4 3 C-2.68 2.01 -1.36 1.02 0 0 Z " fill="#AFC8CD" transform="translate(33,49)"/>
<path d="M0 0 C2.97 0 5.94 0 9 0 C9 1.32 9 2.64 9 4 C6.03 3.01 3.06 2.02 0 1 C0 0.67 0 0.34 0 0 Z " fill="#7AB5C5" transform="translate(100,48)"/>
<path d="M0 0 C2.0625 2.25 2.0625 2.25 4 5 C3.75 7.3125 3.75 7.3125 3 9 C0.525 8.01 0.525 8.01 -2 7 C-1.34 6.67 -0.68 6.34 0 6 C0 4.02 0 2.04 0 0 Z " fill="#94BFD7" transform="translate(47,93)"/>
<path d="M0 0 C1.24546405 2.49092811 0.7767578 3.41080733 0 6 C0.99 6.33 1.98 6.66 3 7 C1.35 7.33 -0.3 7.66 -2 8 C-2.33 5.69 -2.66 3.38 -3 1 C-2.01 0.67 -1.02 0.34 0 0 Z " fill="#B4CDD8" transform="translate(59,72)"/>
<path d="M0 0 C1.67542976 0.28604898 3.34385343 0.61781233 5 1 C5 2.32 5 3.64 5 5 C3.35 5.33 1.7 5.66 0 6 C-0.33 5.01 -0.66 4.02 -1 3 C-0.01 3 0.98 3 2 3 C1.01 2.34 0.02 1.68 -1 1 C-0.67 0.67 -0.34 0.34 0 0 Z " fill="#BAD8E3" transform="translate(105,73)"/>
<path d="M0 0 C0.99 0.33 1.98 0.66 3 1 C3 1.66 3 2.32 3 3 C0.09451118 5.04169485 -1.40142046 6 -5 6 C-4.67 5.01 -4.34 4.02 -4 3 C-3.34 3 -2.68 3 -2 3 C-2 2.34 -2 1.68 -2 1 C-1.34 0.67 -0.68 0.34 0 0 Z " fill="#CFECF5" transform="translate(162,71)"/>
<path d="M0 0 C0.12375 0.598125 0.2475 1.19625 0.375 1.8125 C0.95475985 4.26231348 0.95475985 4.26231348 3 7 C2.67 7.66 2.34 8.32 2 9 C-0.86724686 8.42655063 -1.8614515 8.1385485 -4 6 C-3.34 5.34 -2.68 4.68 -2 4 C-1.30251417 2.68252676 -0.63040043 1.35085807 0 0 Z " fill="#A7C8D1" transform="translate(128,52)"/>
<path d="M0 0 C0.66 0 1.32 0 2 0 C1.625 1.9375 1.625 1.9375 1 4 C-2.21451269 5.60725635 -5.43612536 5.05748185 -9 5 C-6.32917896 3.21945264 -3.95812156 2.16767956 -1 1 C-0.67 0.67 -0.34 0.34 0 0 Z " fill="#95D5F2" transform="translate(106,102)"/>
<path d="M0 0 C0.33 0.66 0.66 1.32 1 2 C2.89533342 2.46523063 2.89533342 2.46523063 5.0625 2.625 C6.361875 2.74875 7.66125 2.8725 9 3 C9 3.66 9 4.32 9 5 C7.35333797 4.8864371 5.70763918 4.75882619 4.0625 4.625 C2.68771484 4.52058594 2.68771484 4.52058594 1.28515625 4.4140625 C0.15400391 4.20910156 0.15400391 4.20910156 -1 4 C-1.33 3.34 -1.66 2.68 -2 2 C-1.34 2 -0.68 2 0 2 C0 1.34 0 0.68 0 0 Z " fill="#799AA9" transform="translate(10,83)"/>
<path d="M0 0 C2.875 0.6875 2.875 0.6875 6 2 C7.375 4.625 7.375 4.625 8 7 C7.34 7 6.68 7 6 7 C5.67 7.66 5.34 8.32 5 9 C5 7.68 5 6.36 5 5 C3.02 4.01 1.04 3.02 -1 2 C-0.67 1.34 -0.34 0.68 0 0 Z " fill="#7EA3B7" transform="translate(154,75)"/>
<path d="M0 0 C1.32 0 2.64 0 4 0 C4.66 1.65 5.32 3.3 6 5 C5.01 4.67 4.02 4.34 3 4 C3 3.01 3 2.02 3 1 C0.66924071 1.95865509 0.66924071 1.95865509 -1 5 C-1.99 4.67 -2.98 4.34 -4 4 C-3.67 3.01 -3.34 2.02 -3 1 C-2.34 1 -1.68 1 -1 1 C-0.67 0.67 -0.34 0.34 0 0 Z " fill="#B5CFD9" transform="translate(14,66)"/>
<path d="M0 0 C1.32 0.33 2.64 0.66 4 1 C4 3.31 4 5.62 4 8 C2.68 7.34 1.36 6.68 0 6 C0 4.02 0 2.04 0 0 Z " fill="#8DC4DA" transform="translate(112,53)"/>
<path d="M0 0 C2.86724686 0.57344937 3.8614515 0.8614515 6 3 C4.73392393 3.53229326 3.46189588 4.05044544 2.1875 4.5625 C1.47980469 4.85253906 0.77210937 5.14257812 0.04296875 5.44140625 C-2 6 -2 6 -5 5 C-4.175 4.360625 -3.35 3.72125 -2.5 3.0625 C-1.675 2.381875 -0.85 1.70125 0 1 C0 0.67 0 0.34 0 0 Z " fill="#EBF3F6" transform="translate(60,32)"/>
<path d="M0 0 C0 0.66 0 1.32 0 2 C-5.95703125 3.7578125 -5.95703125 3.7578125 -8 4 C-8.99 3.34 -9.98 2.68 -11 2 C-3.375 0 -3.375 0 0 0 Z " fill="#86AFC1" transform="translate(150,82)"/>
<path d="M0 0 C1.32 0 2.64 0 4 0 C4 2.64 4 5.28 4 8 C3.34 8 2.68 8 2 8 C1.67 7.01 1.34 6.02 1 5 C0.34 5 -0.32 5 -1 5 C-0.67 3.35 -0.34 1.7 0 0 Z " fill="#B0D3E0" transform="translate(59,65)"/>
<path d="M0 0 C0.99 0.33 1.98 0.66 3 1 C3.33 2.98 3.66 4.96 4 7 C3.01 7.33 2.02 7.66 1 8 C-0.35439668 5.29120665 -0.06501451 2.99066732 0 0 Z " fill="#DCF4FC" transform="translate(51,45)"/>
<path d="M0 0 C0.33 0.99 0.66 1.98 1 3 C-2.37097383 4.49821059 -4.20442119 5 -8 5 C-8 4.34 -8 3.68 -8 3 C-7.01 3 -6.02 3 -5 3 C-4.67 2.34 -4.34 1.68 -4 1 C-1.9375 0.375 -1.9375 0.375 0 0 Z " fill="#73A2B5" transform="translate(123,99)"/>
<path d="M0 0 C2.64 0.33 5.28 0.66 8 1 C8 1.99 8 2.98 8 4 C5.125 4.125 5.125 4.125 2 4 C1.34 3.34 0.68 2.68 0 2 C0 1.34 0 0.68 0 0 Z " fill="#83B6CB" transform="translate(72,98)"/>
<path d="M0 0 C1.32 0 2.64 0 4 0 C3.67 2.31 3.34 4.62 3 7 C2.01 6.34 1.02 5.68 0 5 C-0.1875 2.375 -0.1875 2.375 0 0 Z " fill="#A0C7DB" transform="translate(31,87)"/>
<path d="M0 0 C2.97 0.495 2.97 0.495 6 1 C5.01 1.495 5.01 1.495 4 2 C4 2.99 4 3.98 4 5 C2.68 4.67 1.36 4.34 0 4 C0 2.68 0 1.36 0 0 Z " fill="#3C5F6D" transform="translate(88,60)"/>
<path d="M0 0 C1.65 0.33 3.3 0.66 5 1 C4.3125 2.9375 4.3125 2.9375 3 5 C0.375 5.75 0.375 5.75 -2 6 C-2.33 5.34 -2.66 4.68 -3 4 C-2.505 3.525625 -2.01 3.05125 -1.5 2.5625 C0.11542197 1.24076302 0.11542197 1.24076302 0 0 Z " fill="#AEC7CB" transform="translate(149,57)"/>
<path d="M0 0 C6.75 -0.125 6.75 -0.125 9 1 C8.67 1.99 8.34 2.98 8 4 C7.01 4 6.02 4 5 4 C5 3.34 5 2.68 5 2 C3.35 2 1.7 2 0 2 C0 1.34 0 0.68 0 0 Z " fill="#AFE2F5" transform="translate(90,52)"/>
<path d="M0 0 C0.66 0.66 1.32 1.32 2 2 C1.34 2 0.68 2 0 2 C0.66 4.97 1.32 7.94 2 11 C0.68 10.34 -0.64 9.68 -2 9 C-2 6.36 -2 3.72 -2 1 C-1.34 0.67 -0.68 0.34 0 0 Z " fill="#CCE9EF" transform="translate(45,47)"/>
<path d="M0 0 C-1 3 -1 3 -3.0625 4.1875 C-3.701875 4.455625 -4.34125 4.72375 -5 5 C-5 4.01 -5 3.02 -5 2 C-5.99 2.33 -6.98 2.66 -8 3 C-8 2.34 -8 1.68 -8 1 C-2.25 -1.125 -2.25 -1.125 0 0 Z " fill="#C2DEE9" transform="translate(54,44)"/>
<path d="M0 0 C2.475 0.495 2.475 0.495 5 1 C5 2.32 5 3.64 5 5 C3.35 4.67 1.7 4.34 0 4 C0 2.68 0 1.36 0 0 Z " fill="#80A7B9" transform="translate(34,90)"/>
<path d="M0 0 C2 2 2 2 2.125 4.625 C2.08375 5.40875 2.0425 6.1925 2 7 C1.01 7 0.02 7 -1 7 C-1.625 5.1875 -1.625 5.1875 -2 3 C-1.34 2.01 -0.68 1.02 0 0 Z " fill="#99CCD8" transform="translate(67,59)"/>
<path d="M0 0 C1.32 0.33 2.64 0.66 4 1 C3.67 1.99 3.34 2.98 3 4 C2.34 4 1.68 4 1 4 C0.67 4.66 0.34 5.32 0 6 C-0.99 4.68 -1.98 3.36 -3 2 C-2.01 2 -1.02 2 0 2 C0 1.34 0 0.68 0 0 Z " fill="#C9E3EE" transform="translate(65,80)"/>
<path d="M0 0 C0.99 0.33 1.98 0.66 3 1 C3 1.99 3 2.98 3 4 C3.99 4.33 4.98 4.66 6 5 C4.1875 5.6875 4.1875 5.6875 2 6 C0.25 4.5625 0.25 4.5625 -1 3 C-0.67 2.01 -0.34 1.02 0 0 Z " fill="#D5F2FA" transform="translate(11,70)"/>
<path d="M0 0 C0.99 0.33 1.98 0.66 3 1 C3.6875 3.0625 3.6875 3.0625 4 5 C2.35 5.33 0.7 5.66 -1 6 C-0.67 4.02 -0.34 2.04 0 0 Z " fill="#5A7580" transform="translate(84,64)"/>
<path d="M0 0 C0.66 0.33 1.32 0.66 2 1 C1.67 2.65 1.34 4.3 1 6 C1.66 6.33 2.32 6.66 3 7 C2.01 7.33 1.02 7.66 0 8 C-1 7 -1 7 -1.125 4 C-1 1 -1 1 0 0 Z " fill="#A6C8D4" transform="translate(57,64)"/>
<path d="M0 0 C-0.33 0.66 -0.66 1.32 -1 2 C-1.66 2 -2.32 2 -3 2 C-3 2.66 -3 3.32 -3 4 C-4.32 3.67 -5.64 3.34 -7 3 C-7 2.34 -7 1.68 -7 1 C-3.375 -1.125 -3.375 -1.125 0 0 Z " fill="#9AB9C8" transform="translate(41,63)"/>
<path d="M0 0 C0.33 0 0.66 0 1 0 C1 1.65 1 3.3 1 5 C0.360625 5.103125 -0.27875 5.20625 -0.9375 5.3125 C-1.618125 5.539375 -2.29875 5.76625 -3 6 C-3.33 6.99 -3.66 7.98 -4 9 C-4.66 8.67 -5.32 8.34 -6 8 C-5 6.66666667 -4 5.33333333 -3 4 C-2.46375 3.2575 -1.9275 2.515 -1.375 1.75 C-0.694375 0.88375 -0.694375 0.88375 0 0 Z " fill="#C3E1E9" transform="translate(41,55)"/>
<path d="M0 0 C-4.1795645 2.78637633 -6.14668677 1.79562512 -11 1 C-11 0.67 -11 0.34 -11 0 C-6.98195309 -0.84098656 -3.98196457 -1.05404945 0 0 Z " fill="#6196AF" transform="translate(104,109)"/>
<path d="M0 0 C-0.66 1.65 -1.32 3.3 -2 5 C-3.98 5 -5.96 5 -8 5 C-6.45487538 1.90975077 -3.48715062 0 0 0 Z " fill="#E1F2F7" transform="translate(131,98)"/>
<path d="M0 0 C0.66 0 1.32 0 2 0 C2.33 1.32 2.66 2.64 3 4 C2.34 4 1.68 4 1 4 C1 4.66 1 5.32 1 6 C0.34 6 -0.32 6 -1 6 C-1.33 4.68 -1.66 3.36 -2 2 C-1.34 2 -0.68 2 0 2 C0 1.34 0 0.68 0 0 Z " fill="#DEF5FB" transform="translate(28,76)"/>
<path d="M0 0 C1.65 0 3.3 0 5 0 C5 0.66 5 1.32 5 2 C4.01 2 3.02 2 2 2 C2 2.66 2 3.32 2 4 C0.68 4.33 -0.64 4.66 -2 5 C-2 4.34 -2 3.68 -2 3 C-1.34 3 -0.68 3 0 3 C0 2.01 0 1.02 0 0 Z " fill="#A4C6D7" transform="translate(20,74)"/>
<path d="M0 0 C0.66 0.66 1.32 1.32 2 2 C1.01 2 0.02 2 -1 2 C-1.33 3.65 -1.66 5.3 -2 7 C-3.32 6.01 -4.64 5.02 -6 4 C-4.68 3.67 -3.36 3.34 -2 3 C-2 2.34 -2 1.68 -2 1 C-1.34 0.67 -0.68 0.34 0 0 Z " fill="#ABCCD8" transform="translate(44,57)"/>
<path d="M0 0 C2.475 0.99 2.475 0.99 5 2 C4.67 2.99 4.34 3.98 4 5 C2.68 5 1.36 5 0 5 C0 3.35 0 1.7 0 0 Z " fill="#CAE9F2" transform="translate(118,48)"/>
<path d="M0 0 C2.475 0.99 2.475 0.99 5 2 C5 2.99 5 3.98 5 5 C4.01 5.33 3.02 5.66 2 6 C1.34 4.02 0.68 2.04 0 0 Z " fill="#B1C5CA" transform="translate(139,49)"/>
<path d="M0 0 C3.1875 0.875 3.1875 0.875 6 2 C6 2.66 6 3.32 6 4 C1.545 3.01 1.545 3.01 -3 2 C-2.01 1.34 -1.02 0.68 0 0 Z " fill="#7FADC1" transform="translate(54,92)"/>
<path d="M0 0 C2.31 0.66 4.62 1.32 7 2 C6.67 2.66 6.34 3.32 6 4 C1.25 3.25 1.25 3.25 -1 1 C-0.67 0.67 -0.34 0.34 0 0 Z " fill="#D4E8F0" transform="translate(10,86)"/>
<path d="M0 0 C2.31 0 4.62 0 7 0 C7 0.66 7 1.32 7 2 C4.69 2.33 2.38 2.66 0 3 C0 2.01 0 1.02 0 0 Z " fill="#B1E2EF" transform="translate(149,84)"/>
<path d="M0 0 C2 2 2 2 2.1953125 4.1640625 C2.16050781 5.38222656 2.16050781 5.38222656 2.125 6.625 C2.10695312 7.44226563 2.08890625 8.25953125 2.0703125 9.1015625 C2.04710937 9.72804688 2.02390625 10.35453125 2 11 C0.42852169 7.98532733 -0.5533372 5.39463729 -1 2 C-0.67 1.34 -0.34 0.68 0 0 Z " fill="#E5F1F3" transform="translate(172,71)"/>
<path d="M0 0 C1.32 0 2.64 0 4 0 C4.125 2.875 4.125 2.875 4 6 C3.34 6.66 2.68 7.32 2 8 C2 7.34 2 6.68 2 6 C1.34 5.67 0.68 5.34 0 5 C0.66 5 1.32 5 2 5 C2 4.01 2 3.02 2 2 C1.34 1.34 0.68 0.68 0 0 Z " fill="#A4CCD9" transform="translate(72,65)"/>
<path d="M0 0 C0.6875 1.8125 0.6875 1.8125 1 4 C-0.4375 5.75 -0.4375 5.75 -2 7 C-2.66 6.67 -3.32 6.34 -4 6 C-3.67 4.35 -3.34 2.7 -3 1 C-2.01 0.67 -1.02 0.34 0 0 Z " fill="#AEC6CE" transform="translate(44,43)"/>
</svg>
