<?xml version="1.0" encoding="UTF-8"?>
<svg version="1.1" xmlns="http://www.w3.org/2000/svg" width="149" height="148">
<path d="M0 0 C49.17 0 98.34 0 149 0 C149 48.84 149 97.68 149 148 C99.83 148 50.66 148 0 148 C0 99.16 0 50.32 0 0 Z " fill="#4CCEDF" transform="translate(0,0)"/>
<path d="M0 0 C49.17 0 98.34 0 149 0 C149 48.84 149 97.68 149 148 C99.83 148 50.66 148 0 148 C0 99.16 0 50.32 0 0 Z M25 36 C13.6975313 51.48224958 11.2947547 67.1176099 13 86 C13.91591624 90.98202922 15.76967891 95.46521973 18 100 C18.37253906 100.82242188 18.74507812 101.64484375 19.12890625 102.4921875 C26.28309772 116.90028042 40.09786335 128.14692178 55.125 133.3125 C71.91440687 137.74606632 89.53442357 136.17663697 105.03515625 128.49609375 C120.1504165 119.67354381 130.94518265 104.96455916 135.59423828 88.14379883 C136.46613612 83.53721944 136.32696485 78.85964797 136.3125 74.1875 C136.32861328 73.15818359 136.34472656 72.12886719 136.36132812 71.06835938 C136.37136909 55.19358826 129.80407773 41.89040468 118.8046875 30.69921875 C112.82786905 24.94715531 106.71532839 20.13729758 99 17 C98.14792969 16.62746094 97.29585938 16.25492188 96.41796875 15.87109375 C70.30412802 6.04845641 42.6238887 15.32699561 25 36 Z " fill="#FDFEFE" transform="translate(0,0)"/>
<path d="M0 0 C-4.11110174 3.60025478 -8.43701302 5.89655673 -13.3125 8.25 C-17.1178125 10.10625 -17.1178125 10.10625 -21 12 C-3.675 12.495 -3.675 12.495 14 13 C10.225622 15.8307835 6.87307486 17.32654418 2.5234375 18.8984375 C1.03176879 19.46539133 -0.45909203 20.03447441 -1.94921875 20.60546875 C-4.27276168 21.49134689 -6.59750333 22.36516525 -8.93896484 23.20263672 C-20.74453451 27.45143433 -27.40841481 32.23177087 -34 43 C-28.82786407 53.67251022 -23.25577015 64.01799315 -17.3059082 74.27954102 C-16.76281006 75.22369873 -16.21971191 76.16785645 -15.66015625 77.140625 C-15.17168213 77.98141602 -14.68320801 78.82220703 -14.17993164 79.68847656 C-13.093586 81.81666206 -12.45922118 83.6659336 -12 86 C-13.485 85.505 -13.485 85.505 -15 85 C-14.62746094 85.69867188 -14.25492188 86.39734375 -13.87109375 87.1171875 C-13.39800781 88.02726562 -12.92492187 88.93734375 -12.4375 89.875 C-11.96183594 90.77992187 -11.48617187 91.68484375 -10.99609375 92.6171875 C-10.66738281 93.40351562 -10.33867188 94.18984375 -10 95 C-10.33 95.66 -10.66 96.32 -11 97 C-16.42465018 91.09063773 -21.84575758 85.17803822 -27.25 79.25 C-27.99765625 78.43015625 -28.7453125 77.6103125 -29.515625 76.765625 C-30.85071552 75.27939216 -32.18104071 73.78843741 -33.47998047 72.27050781 C-38.58655411 66.31761576 -44.06928887 60.78236781 -49.625 55.25 C-50.553125 54.31800781 -51.48125 53.38601562 -52.4375 52.42578125 C-53.33726563 51.52730469 -54.23703125 50.62882812 -55.1640625 49.703125 C-55.97311035 48.89520508 -56.7821582 48.08728516 -57.61572266 47.25488281 C-59.99657445 44.92896388 -59.99657445 44.92896388 -62.80224609 42.83105469 C-63.52750488 42.22680664 -64.25276367 41.62255859 -65 41 C-65 40.34 -65 39.68 -65 39 C-68.00800036 40.73187899 -70.86868705 42.58747678 -73.68359375 44.61328125 C-74.61836548 45.28484253 -74.61836548 45.28484253 -75.57202148 45.9699707 C-76.04325439 46.30988037 -76.5144873 46.64979004 -77 47 C-76.5256323 44.18661171 -76.04575381 41.37436287 -75.5625 38.5625 C-75.42779297 37.76005859 -75.29308594 36.95761719 -75.15429688 36.13085938 C-74.11328125 30.11328125 -74.11328125 30.11328125 -73 29 C-71.44051458 28.84313751 -69.87457332 28.74923361 -68.30859375 28.68359375 C-67.36435547 28.64169922 -66.42011719 28.59980469 -65.44726562 28.55664062 C-63.95743164 28.49766602 -63.95743164 28.49766602 -62.4375 28.4375 C-61.44041016 28.39431641 -60.44332031 28.35113281 -59.41601562 28.30664062 C-56.9441585 28.20019702 -54.4721969 28.09818072 -52 28 C-51.94408691 27.2476709 -51.88817383 26.4953418 -51.83056641 25.72021484 C-51.4735544 21.10449909 -51.03788482 16.50128564 -50.25 11.9375 C-50.13140625 11.22464844 -50.0128125 10.51179688 -49.890625 9.77734375 C-49 8 -49 8 -46.99707031 6.9831543 C-43.09335243 5.70258474 -39.21262948 5.09655724 -35.15625 4.4921875 C-34.30953735 4.36184113 -33.46282471 4.23149475 -32.5904541 4.09719849 C-30.80569577 3.82380174 -29.02048522 3.55334286 -27.23486328 3.28564453 C-24.50825226 2.87623909 -21.78339263 2.45643582 -19.05859375 2.03515625 C-17.32040662 1.77021507 -15.58212821 1.50587199 -13.84375 1.2421875 C-13.03216431 1.11721893 -12.22057861 0.99225037 -11.38439941 0.86349487 C-7.55322906 0.29370597 -3.88685482 -0.15496738 0 0 Z " fill="#212121" transform="translate(103,28)"/>
</svg>
