<?xml version="1.0" encoding="UTF-8"?>
<svg version="1.1" xmlns="http://www.w3.org/2000/svg" width="32" height="32">
<path d="M0 0 C10.56 0 21.12 0 32 0 C32 10.56 32 21.12 32 32 C21.44 32 10.88 32 0 32 C0 21.44 0 10.88 0 0 Z " fill="#0E0EFF" transform="translate(0,0)"/>
<path d="M0 0 C6.57692308 0.57692308 6.57692308 0.57692308 8 2 C7.62056512 6.09789669 7.30694043 8.53958935 5 12 C5.99 12.33 6.98 12.66 8 13 C6.35 12.67 4.7 12.34 3 12 C3 11.34 3 10.68 3 10 C2.360625 9.855625 1.72125 9.71125 1.0625 9.5625 C-1 9 -1 9 -2 8 C-2.1875 5.0625 -2.1875 5.0625 -2 2 C-1.34 1.34 -0.68 0.68 0 0 Z " fill="#D9D9FF" transform="translate(14,4)"/>
<path d="M0 0 C0.99 0.33 1.98 0.66 3 1 C3.6875 3.0625 3.6875 3.0625 4 5 C5.70840281 3.36587557 6.93453047 2.13093906 8 0 C8.99 0 9.98 0 11 0 C11 3.3 11 6.6 11 10 C10.34 10 9.68 10 9 10 C8.67 8.35 8.34 6.7 8 5 C7.34 6.32 6.68 7.64 6 9 C5.34 9 4.68 9 4 9 C3.34 7.68 2.68 6.36 2 5 C1.67 6.65 1.34 8.3 1 10 C0.67 10 0.34 10 0 10 C0 6.7 0 3.4 0 0 Z " fill="#D5D5FF" transform="translate(1,19)"/>
<path d="M0 0 C2.31 0 4.62 0 7 0 C7 1.98 7 3.96 7 6 C5.35 6.33 3.7 6.66 2 7 C2 7.99 2 8.98 2 10 C1.34 10 0.68 10 0 10 C0 6.7 0 3.4 0 0 Z " fill="#F4F4FF" transform="translate(25,19)"/>
<path d="M0 0 C0.99 0 1.98 0 3 0 C6 6.625 6 6.625 6 10 C5.34 10 4.68 10 4 10 C3.67 9.34 3.34 8.68 3 8 C2.01 8 1.02 8 0 8 C-0.33 8.66 -0.66 9.32 -1 10 C-1.66 10 -2.32 10 -3 10 C-2.39009109 6.44219804 -1.4216319 3.3171411 0 0 Z " fill="#B8B8FF" transform="translate(17,19)"/>
<path d="M0 0 C0.99 0 1.98 0 3 0 C3.33 1.98 3.66 3.96 4 6 C2.02 6.99 2.02 6.99 0 8 C-0.66 7.34 -1.32 6.68 -2 6 C-1.44444444 1.44444444 -1.44444444 1.44444444 0 0 Z " fill="#0A0AFF" transform="translate(16,5)"/>
<path d="M0 0 C2.0625 0.4375 2.0625 0.4375 4 1 C3.01 1.33 2.02 1.66 1 2 C0.67 2.66 0.34 3.32 0 4 C1.65 4.33 3.3 4.66 5 5 C5 6.32 5 7.64 5 9 C3.35 9.33 1.7 9.66 0 10 C0.99 9.01 1.98 8.02 3 7 C0.525 6.01 0.525 6.01 -2 5 C-1.125 1.125 -1.125 1.125 0 0 Z " fill="#DFDFFF" transform="translate(4,4)"/>
<path d="M0 0 C0.78375 0.04125 1.5675 0.0825 2.375 0.125 C1.055 1.115 -0.265 2.105 -1.625 3.125 C-1.295 5.435 -0.965 7.745 -0.625 10.125 C-1.945 9.465 -3.265 8.805 -4.625 8.125 C-4.75 5.25 -4.75 5.25 -4.625 2.125 C-2.625 0.125 -2.625 0.125 0 0 Z " fill="#C8C8FF" transform="translate(16.625,3.875)"/>
<path d="M0 0 C1.5 1.3125 1.5 1.3125 3 3 C3 3.99 3 4.98 3 6 C2.34 6 1.68 6 1 6 C0.67 5.34 0.34 4.68 0 4 C-0.99 4 -1.98 4 -3 4 C-3.33 4.66 -3.66 5.32 -4 6 C-4.66 6 -5.32 6 -6 6 C-6 5.01 -6 4.02 -6 3 C-4.02 2.67 -2.04 2.34 0 2 C0 1.34 0 0.68 0 0 Z " fill="#E1E1FF" transform="translate(20,23)"/>
<path d="M0 0 C0.99 0 1.98 0 3 0 C3 3.3 3 6.6 3 10 C2.34 10 1.68 10 1 10 C0.67 6.7 0.34 3.4 0 0 Z " fill="#FDFDFF" transform="translate(9,19)"/>
<path d="M0 0 C1.32 0.33 2.64 0.66 4 1 C3.67 2.32 3.34 3.64 3 5 C2.01 5 1.02 5 0 5 C0 3.35 0 1.7 0 0 Z " fill="#0A0AFF" transform="translate(27,20)"/>
<path d="M0 0 C1.65 0 3.3 0 5 0 C4.34 1.32 3.68 2.64 3 4 C1.68 3.67 0.36 3.34 -1 3 C-0.67 2.01 -0.34 1.02 0 0 Z " fill="#5353FF" transform="translate(5,5)"/>
</svg>
